<svg width="109" height="228" viewBox="0 0 109 228" fill="none" xmlns="http://www.w3.org/2000/svg">
<path d="M96.0802 0.281835H80.0448C79.5216 0.291533 79.0054 0.404216 78.5257 0.613444C78.046 0.822672 77.6123 1.12434 77.2493 1.50123C76.8862 1.87812 76.601 2.32285 76.4098 2.80999C76.2187 3.29714 76.1254 3.81718 76.1353 4.34039V7.24764C76.1452 7.77045 76.0518 8.29007 75.8606 8.77675C75.6693 9.26343 75.384 9.7076 75.0208 10.0838C74.6577 10.4601 74.2239 10.7609 73.7443 10.9693C73.2646 11.1776 72.7487 11.2893 72.2258 11.2979L40.9667 11.1571C39.9092 11.1289 38.9062 10.6822 38.1778 9.915C37.4495 9.14782 37.0554 8.12294 37.0821 7.06542V4.15817C37.1088 3.10205 36.7158 2.07839 35.9893 1.31145C35.2627 0.54451 34.2618 0.0968284 33.2057 0.0664813H27.5652L13.5259 0.000224035C10.1866 -0.0196577 6.9755 1.28446 4.59567 3.62703C2.21584 5.9696 0.861219 9.15973 0.82841 12.4989L0.000133867 214.946C-0.00749761 216.603 0.311233 218.245 0.938138 219.778C1.56504 221.311 2.48785 222.706 3.65385 223.883C4.81984 225.06 6.20621 225.995 7.73378 226.636C9.26135 227.277 10.9002 227.611 12.5568 227.619L95.1194 228C96.7771 228.007 98.42 227.689 99.9544 227.061C101.489 226.434 102.885 225.51 104.062 224.344C105.24 223.177 106.176 221.79 106.817 220.261C107.459 218.733 107.793 217.093 107.8 215.435L108.629 12.9876C108.648 9.63899 107.338 6.41956 104.985 4.03699C102.632 1.65442 99.4288 0.303735 96.0802 0.281835Z" fill="white"/>
</svg>
