<svg width="4" height="4" viewBox="0 0 4 4" fill="none" xmlns="http://www.w3.org/2000/svg">
<path d="M3.99465 2.14636C3.966 2.53689 3.82334 2.91041 3.58436 3.22061C3.34538 3.53081 3.0206 3.76403 2.6503 3.89135C2.28 4.01867 1.88046 4.03448 1.50125 3.93683C1.12204 3.83918 0.779835 3.63237 0.517084 3.34203C0.254332 3.05169 0.0826005 2.69059 0.0231709 2.30354C-0.0362588 1.9165 0.0192278 1.52052 0.182767 1.16473C0.346305 0.808932 0.610703 0.508978 0.943146 0.302055C1.27559 0.095131 1.66145 -0.00965604 2.05289 0.000699723C2.59379 0.0308391 3.101 0.273026 3.4645 0.674696C3.828 1.07637 4.01849 1.60515 3.99465 2.14636Z" fill="#F37A20"/>
</svg>
