<svg width="336" height="315" viewBox="0 0 336 315" fill="none" xmlns="http://www.w3.org/2000/svg">
<path d="M299.009 95.9884C293.128 142.88 252.048 189.694 206.869 219.842C90.1161 298.386 -22.7539 165.106 5.71659 117.237C27.0867 68.6854 93.7484 82.0213 122.106 62.9343C281.487 -45.1013 304.535 56.742 299.009 95.9884Z" fill="#F37A20"/>
<path opacity="0.9" d="M299.009 95.9884C293.128 142.88 252.048 189.694 206.869 219.842C90.1161 298.386 -22.7539 165.106 5.71659 117.237C27.0867 68.6854 93.7484 82.0213 122.106 62.9343C281.487 -45.1013 304.535 56.742 299.009 95.9884Z" fill="white"/>
<path d="M167.683 315C260.292 315 335.367 310.617 335.367 305.21C335.367 299.803 260.292 295.42 167.683 295.42C75.0744 295.42 0 299.803 0 305.21C0 310.617 75.0744 315 167.683 315Z" fill="#F5F5F5"/>
<path d="M167.649 257.48H44.8418L38.122 59.9765H160.929L167.649 257.48Z" fill="#F37A20"/>
<path d="M173.78 251.348H50.9735L44.245 53.8448H167.052L173.78 251.348Z" fill="#F37A20"/>
<path opacity="0.3" d="M173.78 251.348H50.9735L44.245 53.8448H167.052L173.78 251.348Z" fill="white"/>
<path d="M132.634 135.117C145.783 121.741 145.224 99.869 131.384 86.2645C117.545 72.66 95.6667 72.4747 82.5175 85.8507C69.3684 99.2267 69.9278 121.099 83.767 134.703C97.6063 148.308 119.485 148.493 132.634 135.117Z" fill="#F37A20"/>
<path d="M136.091 110.492C136.268 115.198 135.241 119.871 133.107 124.07C130.804 128.594 127.287 132.387 122.948 135.024C118.61 137.661 113.622 139.036 108.546 138.997C103.35 138.969 98.2528 137.575 93.7657 134.955C89.2786 132.335 85.5594 128.581 82.9812 124.07C80.5773 119.936 79.2343 115.271 79.0721 110.492C78.9126 106.786 79.5082 103.086 80.8226 99.6179C82.137 96.1494 84.1429 92.9844 86.7184 90.3151C89.2939 87.6458 92.3851 85.528 95.8044 84.0903C99.2236 82.6527 102.899 81.9252 106.609 81.952C114.25 82.0061 121.576 85.0016 127.066 90.3163C132.557 95.631 135.789 102.856 136.091 110.492Z" fill="white"/>
<path opacity="0.6" d="M133.09 124.07C130.787 128.594 127.269 132.387 122.931 135.024C118.592 137.661 113.605 139.036 108.528 138.997C103.333 138.969 98.2354 137.575 93.7483 134.955C89.2612 132.335 85.542 128.581 82.9638 124.07C90.2779 119.083 98.9325 116.432 107.785 116.468C116.779 116.487 125.573 119.129 133.09 124.07Z" fill="#F37A20"/>
<path opacity="0.6" d="M116.461 109.781C121.296 104.862 121.09 96.8195 116.001 91.817C110.912 86.8145 102.868 86.7464 98.0325 91.6649C93.1974 96.5834 93.4031 104.626 98.4919 109.628C103.581 114.631 111.626 114.699 116.461 109.781Z" fill="#F37A20"/>
<path d="M149.107 179.826H70.7697L70.2421 164.259H148.579L149.107 179.826Z" fill="white"/>
<path d="M150.058 207.648H71.7124L71.1848 192.08H149.531L150.058 207.648Z" fill="white"/>
<path d="M119.823 194.225L100.944 196.82C100.764 196.84 100.59 196.898 100.433 196.989C100.276 197.08 100.14 197.202 100.033 197.349C99.9255 197.495 99.8497 197.662 99.81 197.839C99.7704 198.015 99.7678 198.199 99.8023 198.377L102.284 211.029C102.366 211.4 102.583 211.728 102.893 211.947C103.204 212.166 103.585 212.262 103.962 212.214L122.842 209.619C123.021 209.597 123.194 209.537 123.35 209.445C123.506 209.353 123.641 209.229 123.748 209.083C123.854 208.936 123.929 208.769 123.968 208.592C124.007 208.415 124.009 208.232 123.975 208.054L121.501 195.402C121.42 195.031 121.202 194.704 120.892 194.486C120.581 194.269 120.2 194.175 119.823 194.225ZM114.401 207.042L110.941 207.501L110.604 203.419C110.248 203.264 109.934 203.027 109.688 202.726C109.443 202.425 109.274 202.069 109.194 201.689C109.131 201.394 109.13 201.09 109.191 200.795C109.253 200.5 109.376 200.221 109.552 199.977C109.728 199.732 109.953 199.527 110.214 199.375C110.474 199.223 110.763 199.128 111.063 199.094C111.677 199.015 112.298 199.17 112.804 199.527C113.31 199.884 113.664 200.418 113.795 201.023C113.87 201.389 113.847 201.767 113.729 202.121C113.611 202.475 113.401 202.791 113.121 203.038L114.401 207.042Z" fill="#F37A20"/>
<path d="M117.955 193.542C117.621 193.585 117.284 193.501 117.009 193.307C116.733 193.114 116.54 192.824 116.468 192.496L116.226 191.259C115.88 189.571 114.934 188.066 113.563 187.023C112.192 185.98 110.489 185.469 108.771 185.586C107.903 185.635 107.057 185.871 106.289 186.276C105.52 186.682 104.848 187.248 104.318 187.936C103.788 188.625 103.413 189.419 103.217 190.265C103.021 191.112 103.01 191.99 103.184 192.842L103.461 194.269C103.493 194.427 103.492 194.59 103.457 194.747C103.423 194.905 103.356 195.054 103.26 195.184C103.165 195.314 103.044 195.423 102.904 195.504C102.764 195.585 102.609 195.635 102.449 195.652C102.114 195.699 101.775 195.617 101.498 195.422C101.222 195.228 101.03 194.936 100.961 194.606L100.728 193.404C100.49 192.28 100.482 191.12 100.704 189.994C100.927 188.867 101.374 187.797 102.021 186.848C102.667 185.899 103.498 185.09 104.465 184.47C105.432 183.85 106.514 183.433 107.646 183.242C110.102 182.83 112.621 183.378 114.682 184.775C116.744 186.171 118.188 188.307 118.716 190.74L118.993 192.158C119.025 192.318 119.023 192.484 118.987 192.643C118.951 192.802 118.882 192.952 118.784 193.083C118.686 193.213 118.562 193.322 118.419 193.401C118.276 193.48 118.118 193.528 117.955 193.542Z" fill="#F37A20"/>
<path d="M137.129 229.45H86.1292L85.7919 219.314H136.783L137.129 229.45Z" fill="#F37A20"/>
<path d="M112.524 172.042C112.539 172.412 112.479 172.781 112.348 173.127C112.216 173.473 112.016 173.788 111.758 174.054C111.501 174.32 111.193 174.531 110.852 174.674C110.51 174.818 110.144 174.89 109.774 174.888C109.011 174.882 108.28 174.583 107.731 174.054C107.182 173.524 106.858 172.804 106.825 172.042C106.809 171.673 106.869 171.304 107.001 170.958C107.133 170.612 107.333 170.296 107.59 170.03C107.847 169.764 108.156 169.553 108.497 169.41C108.838 169.267 109.205 169.194 109.575 169.197C110.338 169.201 111.07 169.499 111.62 170.029C112.169 170.558 112.493 171.28 112.524 172.042Z" fill="#263238"/>
<path d="M100.226 172.042C100.243 172.412 100.183 172.782 100.052 173.128C99.9211 173.474 99.7207 173.79 99.4633 174.057C99.2059 174.323 98.8969 174.534 98.5552 174.677C98.2135 174.82 97.8463 174.891 97.4759 174.888C96.7142 174.882 95.984 174.583 95.4366 174.053C94.8892 173.523 94.5665 172.803 94.5354 172.042C94.5202 171.673 94.5802 171.304 94.7118 170.958C94.8434 170.612 95.0439 170.296 95.301 170.03C95.5582 169.764 95.8667 169.553 96.2078 169.41C96.5489 169.267 96.9156 169.194 97.2856 169.197C98.048 169.201 98.7794 169.499 99.3272 170.029C99.8751 170.559 100.197 171.28 100.226 172.042Z" fill="#263238"/>
<path d="M88.0059 172.042C88.0211 172.412 87.9611 172.781 87.8295 173.127C87.6979 173.473 87.4975 173.788 87.2403 174.054C86.9832 174.32 86.6747 174.531 86.3335 174.674C85.9924 174.818 85.6257 174.89 85.2557 174.888C84.4933 174.884 83.7619 174.586 83.2141 174.055C82.6662 173.525 82.3442 172.804 82.3152 172.042C82.3 171.673 82.36 171.304 82.4916 170.958C82.6232 170.612 82.8236 170.296 83.0808 170.03C83.3379 169.764 83.6464 169.553 83.9876 169.41C84.3287 169.267 84.6954 169.194 85.0654 169.197C85.8278 169.201 86.5592 169.499 87.107 170.029C87.6549 170.559 87.9769 171.28 88.0059 172.042Z" fill="#263238"/>
<path d="M124.779 172.042C124.794 172.412 124.734 172.781 124.602 173.127C124.471 173.473 124.27 173.788 124.013 174.054C123.756 174.32 123.448 174.531 123.106 174.674C122.765 174.818 122.399 174.89 122.029 174.888C121.266 174.884 120.535 174.586 119.987 174.055C119.439 173.525 119.117 172.804 119.088 172.042C119.075 171.674 119.137 171.306 119.271 170.962C119.404 170.618 119.606 170.305 119.864 170.042C120.122 169.778 120.43 169.569 120.771 169.429C121.112 169.288 121.478 169.218 121.847 169.223C122.604 169.229 123.329 169.524 123.874 170.049C124.42 170.573 124.743 171.286 124.779 172.042Z" fill="#263238"/>
<path d="M137.034 172.042C137.05 172.412 136.991 172.782 136.86 173.128C136.729 173.474 136.528 173.79 136.271 174.057C136.013 174.323 135.704 174.534 135.363 174.677C135.021 174.82 134.654 174.891 134.283 174.888C133.522 174.882 132.792 174.583 132.244 174.053C131.697 173.523 131.374 172.803 131.343 172.042C131.328 171.673 131.388 171.304 131.519 170.958C131.651 170.612 131.851 170.296 132.109 170.03C132.366 169.764 132.674 169.553 133.015 169.41C133.356 169.267 133.723 169.194 134.093 169.197C134.856 169.201 135.587 169.499 136.135 170.029C136.683 170.559 137.005 171.28 137.034 172.042Z" fill="#263238"/>
<path d="M240.252 95.9538C241.402 97.8045 242.362 99.5688 243.348 101.411C244.334 103.253 245.225 105.104 246.098 106.998C247.881 110.833 249.355 114.803 250.509 118.872C250.665 119.382 250.777 119.927 250.907 120.455L251.097 121.259L251.192 121.657L251.305 122.314C251.5 123.805 251.409 125.32 251.037 126.777C250.439 129.039 249.531 131.207 248.338 133.22C246.204 136.877 243.624 140.255 240.658 143.278L237.018 140.528C238.845 137.168 240.471 133.702 241.887 130.149C242.517 128.584 242.961 126.95 243.21 125.28C243.289 124.771 243.266 124.25 243.141 123.75L242.795 122.695C242.656 122.262 242.527 121.83 242.362 121.389C241.047 117.821 239.525 114.333 237.804 110.941C236.075 107.482 234.215 104.023 232.356 100.719L240.252 95.9538Z" fill="#FF8B7B"/>
<path d="M237.943 139.325L233.965 141.427L238.531 146.772C238.531 146.772 241.385 144.843 241.515 141.903L237.943 139.325Z" fill="#FF8B7B"/>
<path d="M228.629 144.722L233.515 148.605L238.531 146.772L233.965 141.427L228.629 144.722Z" fill="#FF8B7B"/>
<path d="M211.92 67.6563C211.825 68.1406 211.488 68.4779 211.176 68.4174C210.865 68.3568 210.683 67.9071 210.778 67.4314C210.874 66.9558 211.211 66.5666 211.531 66.6704C211.851 66.7742 212.015 67.172 211.92 67.6563Z" fill="#263238"/>
<path d="M211.531 68.4865C210.66 69.8412 209.606 71.0693 208.4 72.1361C208.685 72.4314 209.03 72.6616 209.412 72.8108C209.795 72.9601 210.205 73.025 210.614 73.001L211.531 68.4865Z" fill="#FF5652"/>
<path d="M209.974 85.4546V79.7813L217.481 80.6461C217.481 80.6461 217.36 85.5238 213.157 86.9594L209.974 85.4546Z" fill="#FF8B7B"/>
<path d="M212.136 75.6993L217.42 77.2214L217.515 80.6894L210.009 79.7813L212.136 75.6993Z" fill="#FF8B7B"/>
<path opacity="0.2" d="M217.42 77.2214L212.136 75.6993L211.107 77.6711C211.163 79.2248 211.649 80.7326 212.51 82.0271C213.371 83.3217 214.574 84.3524 215.985 85.0049C216.893 83.7368 217.423 82.2377 217.515 80.6807L217.42 77.2214Z" fill="black"/>
<path d="M214.22 65.3472C214.276 65.3457 214.33 65.3285 214.376 65.2977C214.422 65.2669 214.458 65.2237 214.481 65.1731C214.504 65.1224 214.511 65.0664 214.504 65.0116C214.496 64.9567 214.473 64.9051 214.437 64.8628C214.133 64.5198 213.751 64.2544 213.324 64.0889C212.897 63.9234 212.436 63.8626 211.98 63.9115C211.906 63.9242 211.84 63.9659 211.796 64.0276C211.752 64.0892 211.734 64.1656 211.747 64.2402C211.76 64.3152 211.801 64.3824 211.862 64.4276C211.924 64.4727 212 64.4923 212.076 64.4823C212.436 64.4469 212.801 64.4983 213.138 64.6322C213.475 64.7661 213.775 64.9786 214.013 65.252C214.039 65.2809 214.071 65.3042 214.107 65.3206C214.143 65.3369 214.181 65.3459 214.22 65.3472Z" fill="#263238"/>
<path d="M225.273 76.4085C224.408 80.8624 223.872 87.0287 227.003 89.9951C227.003 89.9951 225.792 94.5095 217.49 94.5095C208.4 94.5095 213.122 90.5486 213.122 90.5486C216.901 89.3724 216.867 85.0741 216.002 81.6148L225.273 76.4085Z" fill="#FF8B7B"/>
<path d="M228.689 92.9701C229.502 91.8285 229.467 88.2048 228.603 87.5649C227.21 86.5357 221.234 86.2935 213.2 88.1443C214.065 91.6555 212.205 93.489 212.205 93.489L228.689 92.9701Z" fill="#F37A20"/>
<path d="M255.724 298.291C255.477 298.378 255.216 298.415 254.954 298.4C254.693 298.386 254.437 298.319 254.202 298.205C254.113 298.122 254.051 298.013 254.027 297.894C254.002 297.775 254.015 297.651 254.063 297.539C254.091 297.445 254.138 297.359 254.202 297.286C254.267 297.212 254.346 297.154 254.435 297.115C255.257 296.717 257.142 297.487 257.229 297.522C257.255 297.532 257.277 297.55 257.292 297.573C257.307 297.596 257.316 297.623 257.315 297.651C257.315 297.679 257.308 297.706 257.294 297.73C257.281 297.755 257.261 297.775 257.237 297.79C256.75 298.004 256.243 298.172 255.724 298.291ZM254.729 297.314C254.672 297.327 254.617 297.348 254.565 297.375C254.511 297.394 254.463 297.426 254.424 297.469C254.384 297.511 254.356 297.561 254.34 297.617C254.262 297.876 254.34 297.963 254.392 297.989C254.721 298.265 255.932 297.989 256.788 297.669C256.136 297.399 255.433 297.278 254.729 297.314Z" fill="#F37A20"/>
<path d="M257.203 297.798H257.134C256.442 297.599 254.972 296.553 254.954 295.87C254.954 295.761 254.99 295.656 255.058 295.571C255.126 295.486 255.22 295.426 255.326 295.403C255.429 295.364 255.539 295.349 255.648 295.358C255.757 295.367 255.863 295.4 255.958 295.455C256.77 295.87 257.289 297.548 257.307 297.625C257.319 297.646 257.325 297.67 257.325 297.695C257.325 297.719 257.319 297.743 257.307 297.764C257.293 297.777 257.277 297.787 257.259 297.793C257.241 297.799 257.222 297.801 257.203 297.798ZM255.473 295.645H255.404C255.231 295.705 255.231 295.792 255.231 295.835C255.231 296.242 256.217 297.063 256.961 297.392C256.779 296.908 256.381 295.948 255.854 295.662C255.737 295.609 255.603 295.603 255.482 295.645H255.473Z" fill="#F37A20"/>
<path d="M210.804 299.312C210.026 299.312 209.273 299.199 209.023 298.853C208.957 298.761 208.922 298.651 208.922 298.538C208.922 298.425 208.957 298.314 209.023 298.222C209.072 298.138 209.138 298.064 209.217 298.006C209.296 297.948 209.386 297.907 209.481 297.885C210.493 297.608 212.62 298.819 212.707 298.871C212.733 298.884 212.755 298.905 212.767 298.932C212.78 298.959 212.783 298.989 212.776 299.018C212.773 299.047 212.76 299.075 212.74 299.097C212.72 299.119 212.693 299.133 212.664 299.139C212.05 299.251 211.428 299.309 210.804 299.312ZM209.844 298.127C209.753 298.112 209.659 298.112 209.568 298.127C209.509 298.139 209.453 298.163 209.404 298.197C209.355 298.231 209.314 298.275 209.282 298.326C209.178 298.507 209.222 298.594 209.282 298.646C209.568 299.044 211.098 299.052 212.231 298.888C211.492 298.484 210.681 298.225 209.844 298.127Z" fill="#F37A20"/>
<path d="M212.655 299.139H212.594C211.859 298.81 210.406 297.496 210.519 296.804C210.519 296.639 210.657 296.441 211.055 296.406C211.197 296.389 211.341 296.402 211.478 296.444C211.615 296.486 211.742 296.555 211.851 296.648C212.405 297.311 212.738 298.13 212.802 298.992C212.802 299.017 212.796 299.041 212.786 299.063C212.775 299.086 212.76 299.106 212.742 299.122C212.715 299.135 212.685 299.141 212.655 299.139ZM211.168 296.674H211.081C210.822 296.674 210.804 296.795 210.804 296.83C210.735 297.245 211.721 298.283 212.473 298.732C212.407 298.038 212.126 297.382 211.669 296.856C211.527 296.735 211.345 296.67 211.159 296.674H211.168Z" fill="#F37A20"/>
<path d="M219.332 299H213.252L212.646 284.912H218.726L219.332 299Z" fill="#FF8B7B"/>
<path d="M263.983 296.181L258.042 297.47L252.066 284.35L258.016 283.062L263.983 296.181Z" fill="#FF8B7B"/>
<path d="M257.462 296.873L264.148 295.429C264.264 295.404 264.386 295.419 264.493 295.473C264.6 295.526 264.685 295.614 264.736 295.723L267.053 300.756C267.115 300.878 267.147 301.013 267.147 301.149C267.146 301.286 267.113 301.42 267.051 301.542C266.989 301.663 266.898 301.768 266.787 301.848C266.677 301.928 266.548 301.981 266.413 302.001C264.078 302.46 262.911 302.572 259.979 303.204C258.171 303.601 254.089 304.596 251.59 305.132C249.091 305.668 248.234 303.273 249.212 302.832C253.579 300.834 255.395 299.078 256.58 297.444C256.794 297.152 257.108 296.949 257.462 296.873Z" fill="#263238"/>
<path d="M213.295 298.291H219.937C220.058 298.292 220.174 298.333 220.269 298.409C220.363 298.484 220.429 298.589 220.456 298.706L221.658 304.112C221.693 304.242 221.697 304.379 221.67 304.512C221.643 304.644 221.585 304.769 221.501 304.875C221.416 304.981 221.309 305.065 221.186 305.122C221.063 305.179 220.928 305.206 220.793 305.201C218.398 305.158 214.938 305.02 211.929 305.02C208.4 305.02 205.365 305.21 201.231 305.21C198.731 305.21 198.039 302.685 199.086 302.451C203.842 301.413 207.734 301.301 211.842 298.767C212.274 298.478 212.776 298.313 213.295 298.291Z" fill="#263238"/>
<path d="M237.882 91.3874C243.582 92.6933 248.26 107.249 248.26 107.249L236.871 115.957C233.914 112.797 231.828 108.923 230.817 104.715C228.802 97.0867 232.053 90.0383 237.882 91.3874Z" fill="#236CD9"/>
<path opacity="0.4" d="M237.882 91.3874C243.582 92.6933 248.26 107.249 248.26 107.249L236.871 115.957C233.914 112.797 231.828 108.923 230.817 104.715C228.802 97.0867 232.053 90.0383 237.882 91.3874Z" fill="black"/>
<path d="M207.898 108.745C206.48 110.275 205.062 111.642 203.574 113.069C202.839 113.761 202.095 114.453 201.334 115.119L200.184 116.13L199.899 116.381L199.406 116.779C198.898 117.184 198.336 117.516 197.737 117.765C197.069 118.048 196.352 118.195 195.626 118.197C195.007 118.2 194.392 118.092 193.81 117.877C193.165 117.632 192.577 117.258 192.081 116.779C191.447 116.16 190.983 115.389 190.731 114.539C190.6 114.12 190.516 113.688 190.481 113.251C190.435 112.738 190.435 112.223 190.481 111.711C190.524 111.296 190.576 110.933 190.645 110.595C190.882 109.416 191.217 108.259 191.648 107.136C192.037 106.069 192.485 105.024 192.989 104.005C193.542 102.907 194.07 102.103 194.597 101.186C196.74 97.6758 199.185 94.3595 201.905 91.275C204.598 88.2086 207.565 85.3948 210.77 82.8688L213.952 86.1465C211.721 89.1388 209.524 92.3474 207.492 95.504C205.469 98.6428 203.621 101.891 201.957 105.233C201.585 106.046 201.092 106.963 200.859 107.62C200.549 108.384 200.281 109.163 200.054 109.955C199.836 110.669 199.672 111.397 199.561 112.135C199.556 112.25 199.556 112.366 199.561 112.481C199.561 112.55 199.561 112.585 199.561 112.403C199.547 112.209 199.509 112.017 199.449 111.832C199.262 111.219 198.919 110.665 198.454 110.224C198.041 109.844 197.556 109.55 197.027 109.359C196.563 109.183 196.071 109.092 195.575 109.091C195.097 109.085 194.623 109.176 194.182 109.359C194.033 109.42 193.888 109.492 193.75 109.575L194.078 109.272L195.125 108.321L197.192 106.384C198.558 105.095 199.933 103.72 201.231 102.44L207.898 108.745Z" fill="#FF8B7B"/>
<path opacity="0.2" d="M232.996 102.077C236.092 105.138 237.104 110.725 237.32 115.568L236.819 115.957C233.862 112.797 231.776 108.923 230.765 104.715C230.652 104.265 230.549 103.85 230.471 103.357L232.996 102.077Z" fill="black"/>
<path d="M201.853 97.4413C200.608 104.014 199.83 117.514 203.436 144.238H236.006C236.231 139.248 233.091 114.876 237.908 91.3442C234.309 90.6531 230.669 90.1938 227.011 89.9691C222.403 89.7048 217.783 89.7048 213.174 89.9691C211.652 90.1075 210.147 90.3323 208.85 90.5658C207.125 90.8685 205.532 91.6879 204.282 92.9157C203.033 94.1434 202.186 95.7216 201.853 97.4413Z" fill="#236CD9"/>
<path opacity="0.4" d="M201.853 97.4413C200.608 104.014 199.83 117.514 203.436 144.238H236.006C236.231 139.248 233.091 114.876 237.908 91.3442C234.309 90.6531 230.669 90.1938 227.011 89.9691C222.403 89.7048 217.783 89.7048 213.174 89.9691C211.652 90.1075 210.147 90.3323 208.85 90.5658C207.125 90.8685 205.532 91.6879 204.282 92.9157C203.033 94.1434 202.186 95.7216 201.853 97.4413Z" fill="black"/>
<path opacity="0.2" d="M206.835 107.188L200.954 105.778C200.772 109.341 200.755 113.752 201.014 119.209C203.721 116.13 207.181 111.322 206.835 107.188Z" fill="black"/>
<path opacity="0.2" d="M212.646 284.912L212.958 292.177H219.046L218.735 284.912H212.646Z" fill="black"/>
<path opacity="0.2" d="M258.016 283.062L252.066 284.35L255.145 291.113L261.095 289.825L258.016 283.062Z" fill="black"/>
<path d="M228.162 69.9049C226.605 75.7339 225.982 79.2278 222.385 81.6494C216.979 85.3336 210.234 81.1132 210.061 74.9555C209.87 69.3946 212.456 60.7895 218.709 59.6133C220.083 59.3554 221.5 59.4517 222.827 59.893C224.153 60.3343 225.346 61.1062 226.291 62.1358C227.237 63.1655 227.905 64.419 228.232 65.7782C228.559 67.1374 228.535 68.5576 228.162 69.9049Z" fill="#FF8B7B"/>
<path d="M214.514 70.1211C214.22 69.3427 212.88 63.3148 214.143 61.7494C215.405 60.1841 229.805 61.317 231.932 63.4099C235.469 66.8693 233.013 69.9827 229.148 73.9869C226.242 76.9965 226.129 80.3867 224.659 80.9056C222.064 81.7704 218.104 80.9575 217.308 78.216C216.512 75.4744 214.514 70.1211 214.514 70.1211Z" fill="#263238"/>
<path d="M230.185 56.5518C225.1 54.3897 215.561 56.7853 210.406 55.5399C210.341 57.4565 210.971 59.3321 212.181 60.8201C213.391 62.3081 215.098 63.3079 216.988 63.6348C221.264 64.4496 225.608 64.8522 229.96 64.8369C235.616 64.5775 234.509 58.3939 230.185 56.5518Z" fill="#263238"/>
<path d="M230.981 63.5916C232.839 63.7743 234.71 63.417 236.369 62.5624C237.32 64.8629 232.088 65.4942 230.981 63.5916Z" fill="#263238"/>
<path d="M217.282 70.3632C217.165 71.8631 216.557 73.2826 215.552 74.402C214.22 75.8636 212.837 74.9469 212.603 73.174C212.396 71.5654 212.828 68.8498 214.454 68.0714C216.08 67.2931 217.394 68.5557 217.282 70.3632Z" fill="#FF8B7B"/>
<path d="M214.982 144.264C214.982 144.264 221.9 190.749 225.68 208.167C229.822 227.236 252.083 290.326 252.083 290.326L262.971 287.965C262.971 287.965 247.404 236.542 243.945 209.879C241.264 189.4 235.997 144.246 235.997 144.246L214.982 144.264Z" fill="#5EC401"/>
<path d="M249.471 286.702C249.428 286.702 251.504 290.646 251.504 290.646L263.75 287.991L262.72 284.307L249.471 286.702Z" fill="#263238"/>
<path opacity="0.3" d="M219.349 160.825C227.331 162.391 226.484 192.158 225.524 207.475C223.223 196.647 219.851 175.822 217.55 161.041C218.107 160.766 218.742 160.69 219.349 160.825Z" fill="black"/>
<path d="M203.436 144.264C203.436 144.264 202.571 189.745 203.263 208.262C203.955 227.556 210.692 290.733 210.692 290.733H221.001C221.001 290.733 221.373 228.68 221.866 209.732C222.367 189.08 224.858 144.229 224.858 144.229L203.436 144.264Z" fill="#5EC401"/>
<path d="M208.711 286.668C208.659 286.668 209.291 290.94 209.291 290.94H221.822L222.168 287.126L208.711 286.668Z" fill="#263238"/>
<path d="M214.601 99.465C217.515 107.326 200.383 116.589 200.383 116.589L192.963 107.076C192.963 107.076 197.953 97.1991 204.007 92.7539C211.488 87.2708 212.378 93.4803 214.601 99.465Z" fill="#236CD9"/>
<path opacity="0.4" d="M214.601 99.465C217.515 107.326 200.383 116.589 200.383 116.589L192.963 107.076C192.963 107.076 197.953 97.1991 204.007 92.7539C211.488 87.2708 212.378 93.4803 214.601 99.465Z" fill="black"/>
<path d="M281.73 39.7826C298.968 39.7826 312.942 30.8769 312.942 19.8913C312.942 8.90563 298.968 0 281.73 0C264.492 0 250.518 8.90563 250.518 19.8913C250.518 30.8769 264.492 39.7826 281.73 39.7826Z" fill="#F37A20"/>
<path d="M270.469 29.9061C268.413 29.8995 266.425 29.1684 264.855 27.8414C263.284 26.5144 262.231 24.6763 261.882 22.6501C261.538 20.4554 262.033 18.2116 263.268 16.3654C264.504 14.5192 266.389 13.206 268.549 12.6872C270.322 12.2787 272.178 12.4361 273.857 13.1373C275.535 13.8385 276.952 15.0482 277.907 16.5962L297.945 12.4623C298.715 12.2937 299.521 12.4217 300.2 12.8209C300.88 13.2201 301.384 13.8611 301.612 14.6158C301.717 15.0125 301.74 15.4265 301.679 15.8324C301.619 16.2383 301.476 16.6276 301.26 16.9765C301.044 17.3254 300.759 17.6265 300.422 17.8615C300.086 18.0965 299.705 18.2604 299.303 18.3432L298.784 18.447C298.707 18.4608 298.634 18.4922 298.571 18.5387C298.508 18.5852 298.457 18.6455 298.421 18.7151C298.389 18.7857 298.372 18.8624 298.372 18.94C298.372 19.0175 298.389 19.0942 298.421 19.1648L298.776 20.0815C298.894 20.3787 298.906 20.708 298.808 21.0126C298.71 21.3173 298.509 21.5783 298.239 21.7507C298.027 21.882 297.847 22.0601 297.714 22.2714C297.58 22.4827 297.497 22.7217 297.47 22.9701C297.444 23.2552 297.329 23.525 297.141 23.7408C296.953 23.9567 296.702 24.1077 296.423 24.1722L296.017 24.2587C295.735 24.3108 295.444 24.2718 295.186 24.1474C294.928 24.023 294.716 23.8197 294.581 23.5668C294.402 23.2652 294.132 23.0271 293.811 22.8857C293.49 22.7443 293.132 22.7067 292.789 22.7781C292.445 22.8495 292.132 23.0263 291.894 23.284C291.656 23.5417 291.503 23.8673 291.459 24.2155C291.435 24.4987 291.321 24.767 291.135 24.9816C290.948 25.1961 290.698 25.3458 290.421 25.4089L290.015 25.4954C289.733 25.5461 289.443 25.5065 289.185 25.3823C288.927 25.258 288.715 25.0555 288.579 24.8036C288.45 24.5891 288.275 24.4053 288.067 24.2649C287.86 24.1245 287.624 24.0309 287.377 23.9906C287.044 23.9506 286.738 23.7905 286.515 23.5405C286.292 23.2905 286.168 22.9678 286.166 22.6328V21.6469C286.163 21.5698 286.143 21.4943 286.107 21.4257C286.072 21.357 286.022 21.2968 285.961 21.2492C285.901 21.2016 285.83 21.1676 285.755 21.1497C285.68 21.1318 285.602 21.1303 285.526 21.1453L279.135 22.4598C278.874 24.2305 278.074 25.8778 276.844 27.1776C275.614 28.4775 274.013 29.3668 272.26 29.7245C271.67 29.8449 271.071 29.9058 270.469 29.9061ZM268.74 13.4742C266.778 13.9324 265.063 15.1168 263.94 16.7889C262.816 18.461 262.368 20.4966 262.686 22.4858C263.026 24.3364 264.017 26.0042 265.48 27.1875C266.943 28.3708 268.781 28.9914 270.662 28.9371C272.543 28.8827 274.342 28.157 275.735 26.8913C277.127 25.6255 278.02 23.9033 278.253 22.0361V21.7247L285.301 20.2977C285.504 20.2488 285.714 20.2456 285.918 20.2882C286.121 20.3308 286.313 20.4182 286.479 20.544C286.644 20.6699 286.78 20.8311 286.875 21.0159C286.971 21.2007 287.024 21.4044 287.031 21.6123V22.5982C287.033 22.7156 287.075 22.8287 287.151 22.9185C287.227 23.0083 287.331 23.0693 287.446 23.0912C287.824 23.1453 288.185 23.2848 288.501 23.4991C288.817 23.7134 289.081 23.9968 289.271 24.3279C289.317 24.4212 289.391 24.498 289.482 24.5476C289.573 24.5972 289.678 24.6171 289.781 24.6046L290.179 24.5182C290.28 24.4922 290.37 24.4344 290.435 24.3534C290.501 24.2724 290.538 24.1725 290.542 24.0684C290.597 23.5301 290.821 23.023 291.183 22.6204C291.544 22.2179 292.025 21.9407 292.554 21.8291C293.084 21.7174 293.635 21.777 294.128 21.9992C294.622 22.2214 295.032 22.5947 295.299 23.0652C295.343 23.1579 295.415 23.2343 295.505 23.2839C295.595 23.3336 295.698 23.3538 295.801 23.342L296.216 23.2555C296.315 23.228 296.403 23.1695 296.466 23.0887C296.53 23.0078 296.567 22.9087 296.57 22.8058C296.613 22.4261 296.742 22.0612 296.947 21.7389C297.153 21.4166 297.429 21.1456 297.755 20.9464C297.85 20.8776 297.92 20.779 297.953 20.6662C297.986 20.5534 297.98 20.4329 297.937 20.3237L297.582 19.407C297.509 19.218 297.478 19.0152 297.491 18.813C297.504 18.6107 297.561 18.4137 297.658 18.2358C297.755 18.0579 297.89 17.9034 298.053 17.783C298.216 17.6626 298.404 17.5793 298.603 17.5389L299.13 17.4265C299.416 17.3656 299.686 17.2478 299.925 17.08C300.164 16.9123 300.366 16.698 300.521 16.4502C300.675 16.2023 300.777 15.9259 300.822 15.6374C300.867 15.349 300.854 15.0545 300.782 14.7714C300.613 14.2272 300.245 13.7669 299.751 13.483C299.257 13.199 298.673 13.1125 298.118 13.2407L277.518 17.5216L277.362 17.2535C276.534 15.7801 275.25 14.616 273.702 13.9373C272.154 13.2586 270.428 13.1021 268.783 13.4915L268.74 13.4742ZM270.469 26.6889C269.395 26.7009 268.34 26.4004 267.434 25.8241C266.361 25.12 265.566 24.0658 265.184 22.8411C264.802 21.6164 264.857 20.2971 265.338 19.1081C265.82 17.9191 266.699 16.934 267.826 16.3207C268.953 15.7075 270.258 15.504 271.518 15.745C272.778 15.986 273.915 16.6566 274.736 17.6424C275.557 18.6282 276.011 19.8683 276.02 21.1511C276.029 22.434 275.592 23.6803 274.785 24.6775C273.978 25.6747 272.85 26.3611 271.594 26.6197C271.226 26.6863 270.852 26.7153 270.478 26.7062L270.469 26.6889ZM270.469 16.4752C270.147 16.477 269.826 16.5088 269.509 16.5703C268.907 16.6986 268.336 16.9444 267.828 17.2935C267.321 17.6426 266.887 18.0883 266.551 18.6051C266.216 19.1219 265.986 19.6996 265.874 20.3054C265.762 20.9111 265.77 21.533 265.899 22.1355C266.027 22.738 266.273 23.3093 266.622 23.8169C266.971 24.3244 267.417 24.7582 267.934 25.0935C268.45 25.4288 269.028 25.659 269.634 25.771C270.24 25.883 270.861 25.8746 271.464 25.7462C272.368 25.5579 273.197 25.1061 273.845 24.4476C274.493 23.7892 274.932 22.9536 275.106 22.0463C275.279 21.1389 275.181 20.2004 274.822 19.349C274.463 18.4976 273.861 17.7715 273.09 17.2622C272.324 16.753 271.423 16.4849 270.504 16.4925L270.469 16.4752Z" fill="white"/>
<path opacity="0.6" d="M256.329 51.4492C261.994 51.4492 266.586 48.522 266.586 44.911C266.586 41.3001 261.994 38.3728 256.329 38.3728C250.664 38.3728 246.072 41.3001 246.072 44.911C246.072 48.522 250.664 51.4492 256.329 51.4492Z" fill="#F37A20"/>
<path opacity="0.3" d="M240.01 54.1302C242.336 54.1302 244.222 52.9299 244.222 51.4492C244.222 49.9686 242.336 48.7682 240.01 48.7682C237.684 48.7682 235.798 49.9686 235.798 51.4492C235.798 52.9299 237.684 54.1302 240.01 54.1302Z" fill="#F37A20"/>
</svg>
