<svg width="120" height="244" viewBox="0 0 120 244" fill="none" xmlns="http://www.w3.org/2000/svg">
<path d="M100.736 244L17.9443 243.619C13.1632 243.592 8.58792 241.669 5.22343 238.272C1.85893 234.875 -0.0196831 230.282 0.000155543 225.5L0.878714 17.9527C0.888486 15.584 1.365 13.2403 2.28102 11.0559C3.19705 8.87136 4.53463 6.88883 6.21729 5.22157C7.89994 3.5543 9.89469 2.235 12.0875 1.3391C14.2803 0.443186 16.6282 -0.0117688 18.997 0.000231347L101.781 0.381493C106.562 0.405619 111.138 2.32639 114.504 5.72196C117.87 9.11753 119.751 13.7103 119.733 18.4915L118.855 226.031C118.845 228.4 118.368 230.745 117.453 232.93C116.537 235.116 115.199 237.099 113.517 238.768C111.835 240.436 109.84 241.757 107.647 242.655C105.454 243.553 103.106 244.01 100.736 244Z" fill="#455A64"/>
</svg>
