<svg width="24" height="24" viewBox="0 0 24 24" fill="none" xmlns="http://www.w3.org/2000/svg">
<path fill-rule="evenodd" clip-rule="evenodd" d="M20.4022 6.11711C20.3171 5.28155 19.6226 4.64999 18.7956 4.64999H4.26354L4.11702 4.657C3.28145 4.74207 2.6499 5.43654 2.6499 6.26363V16.3729L2.65706 16.5209C2.71666 17.1007 3.06985 17.5888 3.56928 17.8285C3.66688 18.5425 4.24716 19.118 4.99008 19.1855L19.5778 20.8275L19.7433 20.8297L19.886 20.8231C20.6513 20.7476 21.2789 20.1658 21.355 19.4423L22.3032 9.29739L22.3102 9.14265C22.3053 8.75532 22.1734 8.39204 21.9338 8.11818C21.6665 7.77363 21.294 7.56666 20.8491 7.52623L20.4092 7.47282V6.26363L20.4022 6.11711ZM20.1535 17.2407L20.2261 17.1163L20.0266 19.2467L20.0144 19.3136L19.9926 19.3649C19.9429 19.4472 19.8311 19.5102 19.7118 19.4993L6.30066 17.9865H18.7955L18.9421 17.9795L19.1105 17.9536C19.5514 17.8627 19.9224 17.599 20.1535 17.2407ZM19.0774 10.0887H3.98174V16.3728C3.98174 16.4884 4.05414 16.5908 4.14214 16.6319L4.19636 16.6487L4.26358 16.6547H18.7956C18.9112 16.6547 19.0136 16.5823 19.0546 16.4943L19.0715 16.44L19.0774 16.3728V10.0887ZM18.8204 12.4706C18.7509 12.1214 18.488 11.916 18.1637 11.916H13.1091L12.9979 11.9252C12.6486 11.9947 12.4432 12.2576 12.4432 12.5819V15.4251L12.4524 15.5364C12.5219 15.8856 12.7848 16.091 13.1091 16.091H18.1637L18.275 16.0818C18.6243 16.0123 18.8296 15.7494 18.8296 15.4251V12.5819L18.8204 12.4706ZM20.4092 8.762V15.1617L20.9796 9.06974C20.9883 9.02641 20.9624 8.93584 20.9165 8.87457L20.8923 8.8471L20.84 8.802L20.7555 8.79212L20.4092 8.762ZM13.775 13.2478H17.4978V14.7592H13.775V13.2478ZM19.0774 7.56137H3.98174V8.75685H19.0774V7.56137ZM4.26354 5.9818H18.7955L18.8646 5.99053C18.9532 6.01333 19.0257 6.07875 19.0585 6.1631L19.0753 6.22953H3.98475L3.98767 6.19641L4.00453 6.14219C4.04555 6.0542 4.14796 5.9818 4.26354 5.9818Z" fill="#37474F"/>
</svg>
