<svg width="24" height="24" viewBox="0 0 24 24" fill="none" xmlns="http://www.w3.org/2000/svg">
<path fill-rule="evenodd" clip-rule="evenodd" d="M20.71 7.04249C21.1 6.65249 21.1 6.02249 20.71 5.63249L18.37 3.29249C18.1832 3.10523 17.9295 3 17.665 3C17.4005 3 17.1468 3.10523 16.96 3.29249L15.13 5.12249L18.88 8.87249L20.71 7.04249ZM3 17.4625V20.5025C3 20.7825 3.22 21.0025 3.5 21.0025H6.54C6.67 21.0025 6.8 20.9525 6.89 20.8525L17.81 9.94249L14.06 6.19249L3.15 17.1025C3.05 17.2025 3 17.3225 3 17.4625ZM14.98 9.94L14.06 9.02L5 18.08V19H5.92L14.98 9.94Z" fill="#236CD9"/>
</svg>
