<svg width="69" height="83" viewBox="0 0 69 83" fill="none" xmlns="http://www.w3.org/2000/svg">
<path d="M48.5553 17.3625L44.2894 18.8866L42.4587 13.3119C39.0956 3.03217 28.3769 -2.42661 18.5279 1.04415C8.67894 4.5149 3.43553 15.7886 6.7986 26.0684L8.62923 31.6431L4.34671 33.1755C2.71371 33.8089 1.38759 35.0473 0.644022 36.6331C-0.0995496 38.219 -0.203389 40.0304 0.354097 41.6909L12.2242 77.964C12.4706 78.786 12.8797 79.55 13.4273 80.2108C13.9748 80.8716 14.6495 81.4155 15.4114 81.8104C16.1733 82.2052 17.0068 82.4429 17.8623 82.5093C18.7179 82.5757 19.578 82.4694 20.3917 82.1968L64.6003 66.3838C66.2549 65.7515 67.5998 64.5022 68.3521 62.8986C69.1045 61.295 69.2056 59.4622 68.6343 57.7856L56.7559 21.5125C56.5031 20.6928 56.0878 19.9324 55.5347 19.2768C54.9816 18.6211 54.3021 18.0836 53.5368 17.6963C52.7714 17.309 51.9359 17.0798 51.08 17.0224C50.2242 16.9651 49.3655 17.0807 48.5553 17.3625ZM14.8583 23.1609C13.9516 20.488 14.1143 17.5679 15.3126 15.0124C16.5108 12.4568 18.6516 10.4642 21.2863 9.45182C22.5873 9.0067 23.9646 8.82819 25.3361 8.92697C26.7076 9.02575 28.0451 9.39978 29.2689 10.0267C30.4927 10.6537 31.5777 11.5208 32.4591 12.5762C33.3404 13.6316 34.0002 14.8537 34.399 16.1697L36.2213 21.7444L16.6807 28.7356L14.8583 23.1609ZM39.7086 55.3503L42.7403 64.6111C42.796 64.7968 42.7781 64.9968 42.6901 65.1696C42.6022 65.3423 42.4511 65.4746 42.2682 65.5389L38.0188 67.0547C37.8497 67.1016 37.669 67.0812 37.5146 66.9978C37.3602 66.9145 37.244 66.7745 37.1905 66.6074L34.1339 57.388C32.4485 57.2961 30.8314 56.6916 29.499 55.6554C28.1667 54.6191 27.1827 53.2005 26.6788 51.5896C25.9584 49.4599 26.0898 47.134 27.0455 45.099C28.0013 43.064 29.7072 41.4776 31.8062 40.672C32.8426 40.3179 33.9397 40.1761 35.032 40.255C36.1243 40.3339 37.1896 40.6319 38.1643 41.1313C39.1391 41.6306 40.0033 42.3211 40.7055 43.1615C41.4077 44.0019 41.9335 44.9751 42.2516 46.0231C42.7846 47.6595 42.8287 49.4159 42.3785 51.077C41.9282 52.7381 41.0033 54.2318 39.7169 55.3751L39.7086 55.3503Z" fill="#F37A20"/>
<path d="M44.0989 18.7872C44.0989 18.9032 36.1882 21.8769 26.3475 25.4139C16.5068 28.951 8.48015 31.7922 8.43874 31.7093C8.39732 31.6265 16.3494 28.6279 26.1984 25.0826C36.0474 21.5373 44.0575 18.6795 44.0989 18.7872Z" fill="#263238"/>
<path d="M53.4923 20.3113C53.5288 20.3832 53.5593 20.458 53.5834 20.535C53.6496 20.7006 53.7242 20.916 53.8236 21.1811C54.039 21.7858 54.3372 22.6224 54.7099 23.6661L57.8908 32.927C59.2161 36.8533 60.7982 41.5086 62.5543 46.6774C63.3827 49.2701 64.3601 51.9705 65.2713 54.8118C65.759 56.2759 65.9697 57.8181 65.8926 59.3593C65.8223 60.1609 65.5943 60.9407 65.2216 61.6539C64.8235 62.3646 64.2919 62.9918 63.656 63.5011C62.3763 64.4352 60.9558 65.1595 59.4481 65.6465L55.1821 67.1789L47.1058 70.0698L33.4298 74.9405L24.1938 78.1876L21.7088 79.0159L21.0461 79.2313C20.9752 79.2628 20.8997 79.2824 20.8225 79.2893C20.8225 79.2893 20.8887 79.2893 21.0295 79.1899L21.6756 78.9331L24.1607 77.997L33.347 74.6174L46.9981 69.6474L55.0578 66.7316L59.3238 65.1909C60.7887 64.7237 62.1679 64.0215 63.4075 63.1117C63.9992 62.6392 64.4942 62.057 64.8654 61.3971C65.2162 60.7375 65.4277 60.0129 65.4867 59.2682C65.5629 57.7832 65.3607 56.297 64.8903 54.8863C63.9957 52.0699 63.0513 49.3447 62.1982 46.752C60.4752 41.5748 58.8848 36.903 57.6257 32.9767C56.3666 29.0503 55.3063 25.8943 54.5774 23.6744C54.2295 22.5892 53.9644 21.7443 53.7491 21.1314L53.5503 20.4687C53.5253 20.4185 53.5058 20.3657 53.4923 20.3113Z" fill="#263238"/>
<path d="M30.1661 8.88847C30.1661 8.88847 29.7271 8.67311 28.9153 8.34177C27.7582 7.89717 26.5345 7.65074 25.2955 7.61283C23.459 7.54985 21.6314 7.895 19.9444 8.62341C17.8929 9.53041 16.1388 10.9975 14.8832 12.8562C13.6193 14.7097 12.9412 16.9 12.9366 19.1434C12.9539 20.982 13.2328 22.8089 13.765 24.569C14.1957 26.0766 14.643 27.2777 14.9412 28.1143C15.1171 28.5392 15.2611 28.9767 15.372 29.4231C15.1367 29.0258 14.9397 28.6069 14.7838 28.1723C14.4442 27.3439 13.9555 26.1677 13.4751 24.6518C12.8853 22.8733 12.5642 21.0167 12.5225 19.1434C12.5004 16.8152 13.1944 14.5366 14.5105 12.616C15.8098 10.6894 17.6356 9.17694 19.7705 8.25893C21.5101 7.52654 23.3947 7.20347 25.2789 7.31462C26.5448 7.37913 27.7883 7.67387 28.9485 8.18438C29.2587 8.32748 29.5577 8.49362 29.8431 8.68139C29.9609 8.73315 30.0699 8.80303 30.1661 8.88847Z" fill="#263238"/>
<path d="M30.5472 41.3016C30.6794 41.2215 30.8179 41.1522 30.9614 41.0945C31.376 40.9074 31.8055 40.755 32.2453 40.6389C32.9435 40.4328 33.6637 40.3105 34.3907 40.2744C35.3797 40.2213 36.3691 40.3707 37.2982 40.7135C39.4188 41.459 41.3654 43.6209 42.3262 46.5118C42.787 48.0633 42.787 49.7151 42.3262 51.2665C41.8153 52.9504 40.8995 54.4833 39.659 55.7313L39.7087 55.5076C40.8104 58.5311 42.0115 61.8113 43.254 65.2324L43.3285 65.4395L43.1215 65.514L41.2245 66.1436L37.0828 67.5269L36.8757 67.5932L36.8095 67.3861C35.6746 63.9567 34.4321 60.7593 33.4961 57.6199L33.6783 57.7607C32.059 57.6262 30.5149 57.0184 29.2384 56.0129C28.0835 55.1234 27.1365 53.9927 26.4635 52.6996C25.8562 51.5528 25.5539 50.2692 25.5854 48.972C25.6238 47.6462 25.9548 46.3453 26.5548 45.1624C27.1549 43.9795 28.009 42.944 29.0562 42.1299C29.4872 41.78 29.9709 41.5005 30.4892 41.3016C30.0213 41.5792 29.5679 41.8805 29.1307 42.2045C27.9805 43.1777 27.0992 44.4297 26.5712 45.8409C26.118 46.905 25.906 48.0563 25.9504 49.212C25.9948 50.3678 26.2945 51.4994 26.828 52.5256C27.4897 53.7696 28.4139 54.8549 29.5366 55.7064C30.7544 56.6622 32.2265 57.2383 33.7695 57.3631H33.9103L33.9517 57.4874C34.8629 60.5688 36.1137 63.7911 37.2651 67.237L36.9917 67.1044L41.1334 65.7211L43.022 65.0833L42.8895 65.3649C41.6553 61.9439 40.4625 58.6553 39.3691 55.6319V55.5076L39.4685 55.4082C40.6727 54.212 41.5706 52.743 42.086 51.1257C42.5254 49.6417 42.5254 48.0621 42.086 46.5781C41.1831 43.7949 39.3194 41.6826 37.2982 40.9371C36.4036 40.5921 35.4484 40.4315 34.4901 40.4649C33.7746 40.4813 33.0632 40.5786 32.3696 40.7549C31.1353 41.0614 30.5555 41.343 30.5472 41.3016Z" fill="#263238"/>
</svg>
