<svg width="23" height="23" viewBox="0 0 23 23" fill="none" xmlns="http://www.w3.org/2000/svg">
<path fill-rule="evenodd" clip-rule="evenodd" d="M11.5 1.91675C7.79121 1.91675 4.79163 4.91633 4.79163 8.62508C4.79163 12.6213 9.02746 18.1317 10.7716 20.2305C11.155 20.6905 11.8545 20.6905 12.2379 20.2305C13.9725 18.1317 18.2083 12.6213 18.2083 8.62508C18.2083 4.91633 15.2087 1.91675 11.5 1.91675ZM6.70829 8.62508C6.70829 5.98008 8.85496 3.83341 11.5 3.83341C14.145 3.83341 16.2916 5.98008 16.2916 8.62508C16.2916 11.3851 13.5316 15.5155 11.5 18.0934C9.50663 15.5347 6.70829 11.3563 6.70829 8.62508ZM9.10413 8.62508C9.10413 9.94758 10.1775 11.0209 11.5 11.0209C12.8225 11.0209 13.8958 9.94758 13.8958 8.62508C13.8958 7.30258 12.8225 6.22925 11.5 6.22925C10.1775 6.22925 9.10413 7.30258 9.10413 8.62508Z" fill="#37474F"/>
<mask id="mask0_12_136" style="mask-type:alpha" maskUnits="userSpaceOnUse" x="4" y="1" width="15" height="20">
<path fill-rule="evenodd" clip-rule="evenodd" d="M11.5 1.91675C7.79121 1.91675 4.79163 4.91633 4.79163 8.62508C4.79163 12.6213 9.02746 18.1317 10.7716 20.2305C11.155 20.6905 11.8545 20.6905 12.2379 20.2305C13.9725 18.1317 18.2083 12.6213 18.2083 8.62508C18.2083 4.91633 15.2087 1.91675 11.5 1.91675ZM6.70829 8.62508C6.70829 5.98008 8.85496 3.83341 11.5 3.83341C14.145 3.83341 16.2916 5.98008 16.2916 8.62508C16.2916 11.3851 13.5316 15.5155 11.5 18.0934C9.50663 15.5347 6.70829 11.3563 6.70829 8.62508ZM9.10413 8.62508C9.10413 9.94758 10.1775 11.0209 11.5 11.0209C12.8225 11.0209 13.8958 9.94758 13.8958 8.62508C13.8958 7.30258 12.8225 6.22925 11.5 6.22925C10.1775 6.22925 9.10413 7.30258 9.10413 8.62508Z" fill="white"/>
</mask>
<g mask="url(#mask0_12_136)">
</g>
</svg>
