<svg width="17" height="17" viewBox="0 0 17 17" fill="none" xmlns="http://www.w3.org/2000/svg">
<path d="M15.0759 5.86192L10.8608 5.24932L8.97647 1.4293C8.92501 1.32471 8.84034 1.24005 8.73575 1.18858C8.47345 1.05909 8.1547 1.167 8.02354 1.4293L6.13927 5.24932L1.92413 5.86192C1.80792 5.87852 1.70167 5.93331 1.62032 6.01631C1.52198 6.1174 1.46778 6.25339 1.46965 6.3944C1.47152 6.53542 1.52929 6.66992 1.63028 6.76837L4.67999 9.7417L3.95948 13.9402C3.94258 14.0379 3.95339 14.1384 3.99068 14.2302C4.02796 14.322 4.09024 14.4016 4.17043 14.4598C4.25063 14.5181 4.34555 14.5527 4.44441 14.5597C4.54328 14.5668 4.64214 14.546 4.72979 14.4997L8.50001 12.5175L12.2702 14.4997C12.3732 14.5545 12.4927 14.5728 12.6072 14.5528C12.8961 14.503 13.0903 14.2291 13.0405 13.9402L12.32 9.7417L15.3697 6.76837C15.4527 6.68702 15.5075 6.58077 15.5241 6.46456C15.569 6.17403 15.3664 5.90508 15.0759 5.86192Z" fill="#E8E8E8"/>
</svg>
