<svg width="17" height="17" viewBox="0 0 17 17" fill="none" xmlns="http://www.w3.org/2000/svg">
<path fill-rule="evenodd" clip-rule="evenodd" d="M13.6026 10.8021L11.8034 10.5967C11.3714 10.5471 10.9464 10.6958 10.6418 11.0004L9.33844 12.3038C7.33385 11.2837 5.69052 9.6475 4.67052 7.63583L5.98094 6.32542C6.28552 6.02083 6.43427 5.59583 6.38469 5.16375L6.17927 3.37875C6.09427 2.66333 5.49219 2.125 4.76969 2.125H3.54427C2.74385 2.125 2.07802 2.79083 2.1276 3.59125C2.50302 9.64042 7.34094 14.4712 13.383 14.8467C14.1834 14.8962 14.8493 14.2304 14.8493 13.43V12.2046C14.8564 11.4892 14.318 10.8871 13.6026 10.8021ZM4.6325 3.54167C4.675 4.17208 4.78125 4.78833 4.95125 5.37625L4.10125 6.22625C3.81083 5.37625 3.62667 4.47667 3.56292 3.54167H4.6325ZM13.4583 12.3746C12.835 12.3321 12.2188 12.2258 11.6167 12.0558L10.7667 12.8988C11.6237 13.1821 12.5233 13.3663 13.4583 13.43V12.3746Z" fill="white"/>
</svg>
