<svg width="24" height="24" viewBox="0 0 24 24" fill="none" xmlns="http://www.w3.org/2000/svg">
<path d="M15.4 4C15.9523 4 16.4 4.44772 16.4 5V6.2C16.4 6.75228 15.9523 7.2 15.4 7.2H14C13.448 7.2 13.2 7.848 13.2 8.4V10.4H14.6C15.1523 10.4 15.6 10.8477 15.6 11.4V12.6C15.6 13.1523 15.1523 13.6 14.6 13.6H13.2V19C13.2 19.5523 12.7523 20 12.2 20H11C10.4477 20 9.99998 19.5523 9.99998 19V13.6H8.59997C8.04769 13.6 7.59998 13.1523 7.59998 12.6V11.4C7.59998 10.8477 8.04769 10.4 8.59998 10.4H9.99998V7.2C9.99998 5.43269 11.4327 4 13.2 4H15.4Z" fill="white"/>
</svg>
