<svg width="24" height="24" viewBox="0 0 24 24" fill="none" xmlns="http://www.w3.org/2000/svg">
<path fill-rule="evenodd" clip-rule="evenodd" d="M11.1979 14.655V19.655C11.1979 20.205 10.7479 20.655 10.1979 20.655H6.19785C5.64785 20.655 5.19785 20.205 5.19785 19.655V12.655H3.49785C3.03785 12.655 2.82785 12.085 3.16785 11.785L11.5279 4.255C11.9079 3.915 12.4879 3.915 12.8679 4.255L21.2279 11.785C21.5779 12.085 21.3579 12.655 20.8979 12.655H19.1979V19.655C19.1979 20.205 18.7479 20.655 18.1979 20.655H14.1979C13.6479 20.655 13.1979 20.205 13.1979 19.655V14.655H11.1979ZM17.1979 11.0677C17.1979 10.9259 17.1377 10.7909 17.0323 10.696L12.5323 6.64603C12.3422 6.4749 12.0535 6.4749 11.8634 6.64603L7.36337 10.696C7.25801 10.7909 7.19785 10.9259 7.19785 11.0677V18.155C7.19785 18.4311 7.42171 18.655 7.69785 18.655H8.69785C8.97399 18.655 9.19785 18.4311 9.19785 18.155V12.655H15.1979V18.155C15.1979 18.4311 15.4217 18.655 15.6979 18.655H16.6979C16.974 18.655 17.1979 18.4311 17.1979 18.155V11.0677Z" fill="white"/>
</svg>
