<svg width="29" height="29" viewBox="0 0 29 29" fill="none" xmlns="http://www.w3.org/2000/svg">
<path d="M25.7178 9.99972L18.5273 8.9547L15.3129 2.43819C15.2251 2.25978 15.0807 2.11534 14.9023 2.02755C14.4548 1.80665 13.9111 1.99073 13.6873 2.43819L10.473 8.9547L3.28245 9.99972C3.0842 10.028 2.90295 10.1215 2.76418 10.2631C2.59642 10.4355 2.50397 10.6675 2.50716 10.9081C2.51035 11.1486 2.6089 11.3781 2.78118 11.546L7.98362 16.6182L6.75452 23.7804C6.72569 23.947 6.74413 24.1183 6.80774 24.275C6.87134 24.4317 6.97757 24.5674 7.11438 24.6667C7.25119 24.7661 7.4131 24.8251 7.58175 24.8372C7.75041 24.8492 7.91906 24.8137 8.06858 24.7348L14.5001 21.3533L20.9317 24.7348C21.1072 24.8282 21.3112 24.8594 21.5066 24.8254C21.9993 24.7404 22.3307 24.2732 22.2457 23.7804L21.0166 16.6182L26.2191 11.546C26.3607 11.4072 26.4541 11.226 26.4824 11.0277C26.5589 10.5321 26.2134 10.0734 25.7178 9.99972Z" fill="#FADB14"/>
</svg>
