<svg width="24" height="24" viewBox="0 0 24 24" fill="none" xmlns="http://www.w3.org/2000/svg">
<path d="M15.4001 4C15.9524 4 16.4001 4.44772 16.4001 5V6.2C16.4001 6.75228 15.9524 7.2 15.4001 7.2H14.0001C13.4481 7.2 13.2001 7.848 13.2001 8.4V10.4H14.6001C15.1524 10.4 15.6001 10.8477 15.6001 11.4V12.6C15.6001 13.1523 15.1524 13.6 14.6001 13.6H13.2001V19C13.2001 19.5523 12.7524 20 12.2001 20H11.0001C10.4478 20 10.0001 19.5523 10.0001 19V13.6H8.6001C8.04781 13.6 7.6001 13.1523 7.6001 12.6V11.4C7.6001 10.8477 8.04781 10.4 8.6001 10.4H10.0001V7.2C10.0001 5.43269 11.4328 4 13.2001 4H15.4001Z" fill="#236CD9"/>
</svg>
