<svg width="24" height="24" viewBox="0 0 24 24" fill="none" xmlns="http://www.w3.org/2000/svg">
<path fill-rule="evenodd" clip-rule="evenodd" d="M6.8825 6.23139C6.4525 5.88139 5.8225 5.93139 5.4725 6.36139L1.2325 11.4714C0.9225 11.8414 0.9225 12.3814 1.2325 12.7514L5.4725 17.8614C5.8225 18.2914 6.4525 18.3414 6.8825 17.9914C7.3125 17.6414 7.3625 17.0114 7.0125 16.5814L3.3025 12.1114L7.0125 7.64139C7.3625 7.21139 7.3125 6.58139 6.8825 6.23139ZM6.8825 13.1114H8.8825V11.1114H6.8825V13.1114ZM14.8825 11.1114H16.8825V13.1114H14.8825V11.1114ZM10.8825 13.1114H12.8825V11.1114H10.8825V13.1114ZM16.7525 7.64139C16.4025 7.21139 16.4525 6.58139 16.8825 6.23139C17.3025 5.88139 17.9425 5.94139 18.2925 6.36139L22.5325 11.4714C22.8425 11.8414 22.8425 12.3814 22.5325 12.7514L18.2925 17.8614C17.9425 18.2914 17.3125 18.3414 16.8825 17.9914C16.4625 17.6414 16.4025 17.0114 16.7525 16.5814L20.4625 12.1114L16.7525 7.64139Z" fill="#37474F"/>
</svg>
