<svg width="20" height="20" viewBox="0 0 20 20" fill="none" xmlns="http://www.w3.org/2000/svg">
<path fill-rule="evenodd" clip-rule="evenodd" d="M10.5 20C15.7467 20 20 15.7467 20 10.5C20 5.25329 15.7467 1 10.5 1C5.25329 1 1 5.25329 1 10.5C1 15.7467 5.25329 20 10.5 20ZM6.99071 10.8945L9.00996 12.9137L14.7593 7.1702C14.868 7.06124 15.0156 7 15.1695 7C15.3235 7 15.4711 7.06124 15.5798 7.1702C15.8067 7.39715 15.8067 7.76376 15.5798 7.9907L9.42312 14.1474C9.19617 14.3743 8.82957 14.3743 8.60262 14.1474L6.17021 11.715C5.94326 11.488 5.94326 11.1214 6.17021 10.8945C6.27893 10.7855 6.42653 10.7243 6.58046 10.7243C6.73439 10.7243 6.88199 10.7855 6.99071 10.8945Z" fill="#5EC401"/>
</svg>
