<svg width="353" height="294" viewBox="0 0 353 294" fill="none" xmlns="http://www.w3.org/2000/svg">
<path opacity="0.1" d="M205.096 38.9716C182.466 38.1844 160.913 30.8765 140.332 22.8795C119.75 14.8824 99.3652 6.02123 77.2769 1.78481C63.0701 -0.94035 46.8213 -1.32516 35.3768 6.2941C24.359 13.6405 20.7994 26.2868 18.8867 38.034C17.4461 46.8707 16.5999 56.1726 20.5441 64.4426C23.2855 70.1867 28.1458 75.0144 31.5096 80.5172C43.2128 99.6598 34.9398 123.266 22.261 141.958C16.3167 150.728 9.41087 159.099 4.81979 168.426C0.228718 177.752 -1.89374 188.453 2.12389 197.975C6.10306 207.421 15.5894 214.501 25.866 219.486C46.7374 229.614 71.3222 232.511 95.3126 234.151C148.402 237.786 201.771 236.212 255 234.638C274.7 234.053 294.484 233.462 313.862 230.415C324.625 228.722 335.734 226.039 343.549 219.553C353.465 211.321 355.923 197.384 349.276 187.061C338.129 169.748 307.317 165.448 299.516 146.869C295.229 136.64 299.631 125.25 305.866 115.762C319.237 95.4163 341.647 77.5646 342.825 54.308C343.636 38.3349 332.863 22.3372 316.205 14.7774C298.746 6.85732 274.532 7.85083 261.658 20.9659C248.388 34.4693 225.079 39.6642 205.096 38.9716Z" fill="#F37A20" fill-opacity="0.54"/>
<path opacity="0.1" d="M169.059 287.597C227.759 287.597 275.346 281.157 275.346 273.212C275.346 265.268 227.759 258.827 169.059 258.827C110.358 258.827 62.7715 265.268 62.7715 273.212C62.7715 281.157 110.358 287.597 169.059 287.597Z" fill="#F37A20" fill-opacity="0.54"/>
<path d="M116.441 230.386C116.441 230.386 123.784 229.211 128.19 234.402C128.19 234.402 124.959 236.949 118.008 233.423L116.441 230.386Z" fill="#5EC401"/>
<path d="M115.658 230.271C115.658 230.271 110.972 236.071 113.27 242.463C113.27 242.463 117.088 240.934 117.504 233.147L115.658 230.271Z" fill="#5EC401"/>
<path d="M111.462 220.787C111.462 220.787 114.399 215.4 126.148 222.942C126.148 222.942 124.581 226.566 119.392 226.272C114.203 225.979 112.815 223.628 111.462 220.787Z" fill="#5EC401"/>
<path d="M110.689 220.399C110.689 220.399 104.595 219.699 104.004 233.657C104.004 233.657 107.868 234.462 110.612 230.044C113.357 225.625 112.221 223.155 110.689 220.399Z" fill="#5EC401"/>
<path d="M107.137 209.267C107.137 209.267 110.563 199.762 123.001 206.521C123.001 206.521 120.162 215.242 108.409 212.5L107.137 209.267Z" fill="#5EC401"/>
<path d="M103.318 195.061C103.318 195.061 109.78 185.461 121.239 194.361C121.239 194.361 117.224 203.373 104.297 198.475L103.318 195.061Z" fill="#5EC401"/>
<path d="M101.948 181.543C101.948 181.543 109.486 172.728 120.83 181.543C120.83 181.543 113.679 189.282 101.948 183.796V181.543Z" fill="#5EC401"/>
<path d="M100.773 168.418C100.773 168.418 108.409 159.207 119.28 167.928C119.28 167.928 110.661 176.058 100.773 170.573V168.418Z" fill="#5EC401"/>
<path d="M101.458 156.758C101.458 156.758 109.5 144.906 119.672 152.938C119.672 152.938 111.053 163.128 101.458 159.011V156.758Z" fill="#5EC401"/>
<path d="M103.318 143.143C103.318 143.143 111.836 131.388 121.728 140.4C121.728 140.4 111.64 150.587 103.318 145.298V143.143Z" fill="#5EC401"/>
<path d="M106.161 130.972C106.161 130.972 116.242 119.928 125.043 124.325C125.043 124.325 114.532 136.055 105.721 133.9L106.161 130.972Z" fill="#5EC401"/>
<path d="M109.682 119.438C109.682 119.438 121.337 105.917 128.092 110.423C128.092 110.423 119.518 120.918 108.861 121.985L109.682 119.438Z" fill="#5EC401"/>
<path d="M114.77 106.054C114.77 106.054 124.959 95.0063 132.4 97.749C132.4 97.749 123.686 109.213 113.403 109.507L114.77 106.054Z" fill="#5EC401"/>
<path d="M119.378 93.5371C119.378 93.5371 130.638 82.9583 135.533 84.8194C135.533 84.8194 127.407 96.5736 118.889 95.8879L119.378 93.5371Z" fill="#5EC401"/>
<path d="M123.882 81.9787C123.882 81.9787 133.575 69.3429 138.862 70.3225C138.862 70.3225 132.987 81.5869 123.882 83.2661V81.9787Z" fill="#5EC401"/>
<path d="M128.767 66.4044C128.767 66.4044 137.337 56.7141 141.963 56.7386C141.963 56.7386 135.201 69.6823 128.417 69.5633L128.767 66.4044Z" fill="#5EC401"/>
<path d="M131.666 56.018L139.939 35.8399C139.939 35.8399 140.355 54.0799 130.61 59.7611L131.666 56.018Z" fill="#5EC401"/>
<path d="M135.022 33.7654C135.022 33.7654 136.393 16.9177 135.512 15.5464C135.512 15.5464 141.432 29.5395 134.966 41.2098L135.022 33.7654Z" fill="#5EC401"/>
<path d="M106.819 209.04C106.819 209.04 98.2343 203.719 92.6816 216.736C92.6816 216.736 100.318 221.809 107.826 212.36L106.819 209.04Z" fill="#5EC401"/>
<path d="M103.046 194.518C103.046 194.518 92.5208 189.715 87.4122 203.306C87.4122 203.306 95.5454 208.903 104.004 197.954L103.046 194.518Z" fill="#5EC401"/>
<path d="M101.458 182.351C101.458 182.351 93.9195 173.536 82.5764 182.351C82.5764 182.351 89.7235 190.09 101.458 184.604V182.351Z" fill="#5EC401"/>
<path d="M100.518 168.418C100.518 168.418 92.8774 159.207 82.0099 167.928C82.0099 167.928 90.6256 176.058 100.518 170.573V168.418Z" fill="#5EC401"/>
<path d="M101.458 157.094C101.458 157.094 96.1013 143.818 84.4575 149.527C84.4575 149.527 90.7515 161.302 100.986 159.298L101.458 157.094Z" fill="#5EC401"/>
<path d="M103.993 143.076C103.993 143.076 98.6714 129.569 86.8597 135.831C86.8597 135.831 94.0908 148.212 103.469 145.165L103.993 143.076Z" fill="#5EC401"/>
<path d="M107.294 131.042C107.294 131.042 105.196 116.23 95.423 114.905C95.423 114.905 97.4965 130.521 105.99 133.708L107.294 131.042Z" fill="#5EC401"/>
<path d="M109.934 119.463C109.934 119.463 109.112 101.622 101.018 101.002C101.018 101.002 101.29 114.541 109.021 121.992L109.934 119.463Z" fill="#5EC401"/>
<path d="M115.613 105.543C115.613 105.543 113.196 90.7105 105.472 88.8949C105.472 88.8949 106.43 103.262 114.847 109.185L115.613 105.543Z" fill="#5EC401"/>
<path d="M120.295 93.6455C120.295 93.6455 120.211 78.1901 115.49 75.9197C115.49 75.9197 112.563 89.9129 118.927 95.6186L120.295 93.6455Z" fill="#5EC401"/>
<path d="M124.242 81.7968C124.242 81.7968 123.578 65.8797 118.693 63.6373C118.693 63.6373 117.018 76.2311 123.508 82.8358L124.242 81.7968Z" fill="#5EC401"/>
<path d="M129.452 67.6638C129.452 67.6638 129.421 54.7201 125.931 51.6836C125.931 51.6836 122.462 65.8657 127.63 70.2665L129.452 67.6638Z" fill="#5EC401"/>
<path d="M131.253 55.3813L127.861 33.8354C127.861 33.8354 123.246 51.4912 131.414 59.2679L131.253 55.3813Z" fill="#5EC401"/>
<path d="M131.917 33.9683C131.917 33.9683 123.2 19.4889 123.382 17.8762C123.382 17.8762 124.305 33.0587 135.271 40.615L131.917 33.9683Z" fill="#5EC401"/>
<path d="M132.938 29.6934C132.938 29.6934 124.714 9.12002 120.994 7.45483C120.994 7.45483 132.743 13.4299 133.624 29.1057L132.938 29.6934Z" fill="#5EC401"/>
<path d="M128.372 69.6753L127.809 69.5039C134.75 46.8595 136.484 32.4221 132.687 28.8049L133.092 28.3781C137.113 32.1947 135.484 46.4642 128.372 69.6753Z" fill="#444053"/>
<path d="M109.259 122.681L108.43 122.387C109.165 120.313 109.958 118.207 110.791 116.129C118.036 98.0638 124.204 81.2616 128.158 68.3599L128.882 68.0101C124.921 80.9362 118.864 98.3857 111.609 116.472C110.78 118.529 109.99 120.628 109.259 122.681Z" fill="#444053"/>
<path d="M126.774 247.336C126.662 247.21 115.41 234.539 107.57 212.899C102.973 200.233 100.412 186.919 99.9826 173.452C99.4441 156.615 102.976 137.815 109.025 120.74L109.682 121.509C96.1048 159.837 101.5 192.682 108.654 212.465C116.417 233.906 127.536 246.444 127.648 246.566L126.774 247.336Z" fill="#444053"/>
<path d="M227.061 101.387H225.564C225.122 101.387 224.763 101.746 224.763 102.188V126.131C224.763 126.573 225.122 126.932 225.564 126.932H227.061C227.503 126.932 227.861 126.573 227.861 126.131V102.188C227.861 101.746 227.503 101.387 227.061 101.387Z" fill="#3A3768"/>
<path d="M122.749 81.3735H122.613C122.171 81.3735 121.812 81.7322 121.812 82.1746V88.9823C121.812 89.4247 122.171 89.7834 122.613 89.7834H122.749C123.191 89.7834 123.55 89.4247 123.55 88.9823V82.1746C123.55 81.7322 123.191 81.3735 122.749 81.3735Z" fill="#3A3768"/>
<path d="M122.907 96.7729H122.55C122.108 96.7729 121.749 97.1316 121.749 97.5741V110.609C121.749 111.051 122.108 111.41 122.55 111.41H122.907C123.349 111.41 123.707 111.051 123.707 110.609V97.5741C123.707 97.1316 123.349 96.7729 122.907 96.7729Z" fill="#3A3768"/>
<path d="M122.844 116.531H122.581C122.139 116.531 121.781 116.89 121.781 117.332V130.493C121.781 130.935 122.139 131.294 122.581 131.294H122.844C123.286 131.294 123.644 130.935 123.644 130.493V117.332C123.644 116.89 123.286 116.531 122.844 116.531Z" fill="#3A3768"/>
<path d="M212.801 53.5832H136.428C128.899 53.5832 122.795 59.6899 122.795 67.223V250.676C122.795 258.209 128.899 264.316 136.428 264.316H212.801C220.331 264.316 226.435 258.209 226.435 250.676V67.223C226.435 59.6899 220.331 53.5832 212.801 53.5832Z" fill="#3A3768"/>
<path d="M211.815 59.058H199.927V60.4888C199.927 61.3794 199.751 62.2613 199.411 63.0841C199.07 63.9068 198.57 64.6544 197.941 65.284C197.311 65.9136 196.564 66.4129 195.741 66.7534C194.919 67.0939 194.037 67.2689 193.147 67.2685H155.338C154.448 67.2689 153.566 67.0939 152.743 66.7534C151.921 66.4129 151.173 65.9136 150.544 65.284C149.914 64.6544 149.415 63.9068 149.074 63.0841C148.733 62.2613 148.558 61.3794 148.558 60.4888V59.058H137.428C135.245 59.058 133.151 59.9256 131.608 61.4699C130.064 63.0143 129.197 65.1089 129.197 67.2929V250.592C129.197 252.776 130.064 254.871 131.608 256.415C133.151 257.96 135.245 258.827 137.428 258.827H211.815C213.998 258.827 216.092 257.96 217.635 256.415C219.179 254.871 220.046 252.776 220.046 250.592V67.3069C220.048 66.2243 219.837 65.152 219.424 64.1513C219.011 63.1505 218.405 62.2411 217.64 61.4749C216.876 60.7087 215.968 60.1009 214.968 59.6862C213.969 59.2714 212.897 59.058 211.815 59.058Z" fill="#F37A20"/>
<path d="M177.737 59.8766H165.971C165.224 59.8766 164.618 60.4827 164.618 61.2304V61.4613C164.618 62.209 165.224 62.8151 165.971 62.8151H177.737C178.484 62.8151 179.09 62.209 179.09 61.4613V61.2304C179.09 60.4827 178.484 59.8766 177.737 59.8766Z" fill="#E6E8EC"/>
<path d="M182.947 63.0146C183.868 63.0146 184.615 62.2675 184.615 61.3459C184.615 60.4243 183.868 59.6772 182.947 59.6772C182.026 59.6772 181.279 60.4243 181.279 61.3459C181.279 62.2675 182.026 63.0146 182.947 63.0146Z" fill="#E6E8EC"/>
<path d="M262.317 44.3407C262.317 44.3407 232.875 42.5636 236.344 63.2035C236.344 63.2035 235.645 66.8522 238.96 68.5068C238.96 68.5068 239.012 66.9781 241.981 67.4993C243.038 67.6746 244.111 67.7263 245.18 67.6533C246.622 67.5584 247.994 66.9973 249.089 66.0546C249.089 66.0546 257.366 62.6332 260.583 49.1019C260.583 49.1019 262.964 46.1493 262.87 45.3902L257.901 47.5137C257.901 47.5137 259.6 51.0994 258.251 54.0799C258.251 54.0799 258.09 47.6431 257.135 47.783C256.943 47.811 254.555 49.0249 254.555 49.0249C254.555 49.0249 257.474 55.2693 255.271 59.8101C255.271 59.8101 256.107 52.1139 253.642 49.4762L250.145 51.5192C250.145 51.5192 253.558 57.97 251.243 63.2349C251.243 63.2349 251.838 55.1609 249.408 52.0159L246.24 54.4892C246.24 54.4892 249.446 60.8456 247.491 65.2115C247.491 65.2115 247.236 55.8151 245.554 55.1049C245.554 55.1049 242.781 57.5537 242.358 58.5542C242.358 58.5542 244.554 63.172 243.191 65.6068C243.191 65.6068 242.355 59.3448 241.669 59.3099C241.669 59.3099 238.907 63.4588 238.62 66.3064C238.62 66.3064 238.739 62.077 241.002 58.9181C241.002 58.9181 238.33 59.3763 236.771 61.108C236.771 61.108 237.201 58.1764 241.683 57.9176C241.683 57.9176 243.967 54.7691 244.575 54.5802C244.575 54.5802 240.12 54.2059 237.418 55.4058C237.418 55.4058 239.795 52.6386 245.393 53.898L248.523 51.3408C248.523 51.3408 242.656 50.5397 240.166 51.4247C240.166 51.4247 243.03 48.9759 249.366 50.7601L252.771 48.7241C252.771 48.7241 247.768 47.6466 244.788 48.0244C244.788 48.0244 247.935 46.3277 253.771 48.1678L256.219 47.0729C256.219 47.0729 252.555 46.3522 251.481 46.2368C250.408 46.1214 250.352 45.8275 250.352 45.8275C252.673 45.4402 255.057 45.7054 257.236 46.5936C257.236 46.5936 262.405 44.6661 262.317 44.3407Z" fill="#5EC401"/>
<path d="M232.117 35.1612C232.117 35.1612 218.83 34.3601 220.382 43.6865C220.382 43.6865 220.071 45.3342 221.564 46.0828C221.564 46.0828 221.588 45.3832 222.931 45.6246C223.408 45.7049 223.893 45.7283 224.375 45.6945C225.027 45.6514 225.648 45.3958 226.141 44.9669C226.141 44.9669 229.882 43.4206 231.337 37.3056C231.337 37.3056 232.41 35.9728 232.369 35.63L230.124 36.5885C230.124 36.5885 230.889 38.2082 230.288 39.555C230.288 39.555 230.215 36.648 229.785 36.7144C229.697 36.7144 228.617 37.2777 228.617 37.2777C228.617 37.2777 229.938 40.1008 228.942 42.1508C228.942 42.1508 229.319 38.6735 228.204 37.4806L226.624 38.4181C226.624 38.4181 228.166 41.3322 227.12 43.711C227.12 43.711 227.389 40.0623 226.291 38.642L224.861 39.7614C224.861 39.7614 226.309 42.6335 225.428 44.6066C225.428 44.6066 225.309 40.3596 224.55 40.0378C224.55 40.0378 223.298 41.1433 223.106 41.598C223.106 41.598 224.099 43.697 223.484 44.785C223.484 44.785 223.106 41.9549 222.784 41.9409C222.784 41.9409 221.536 43.816 221.407 45.0893C221.469 43.902 221.84 42.7516 222.484 41.752C221.763 41.8885 221.098 42.2326 220.571 42.742C220.571 42.742 220.767 41.4161 222.791 41.3007C222.791 41.3007 223.84 39.8769 224.099 39.7894C224.099 39.7894 222.085 39.6215 220.865 40.1637C220.865 40.1637 221.938 38.9149 224.466 39.4816L225.865 38.3271C225.865 38.3271 223.211 37.9773 222.088 38.3656C222.088 38.3656 223.382 37.2602 226.246 38.0648L227.784 37.1447C227.784 37.1447 225.522 36.6585 224.176 36.8334C224.176 36.8334 225.599 36.0673 228.235 36.8963L229.337 36.4031C229.337 36.4031 227.68 36.0778 227.193 36.0253C226.707 35.9728 226.683 35.8399 226.683 35.8399C227.733 35.6652 228.81 35.7863 229.795 36.1897C229.795 36.1897 232.159 35.3081 232.117 35.1612Z" fill="#5EC401"/>
<path opacity="0.1" d="M196.283 210.184C196.283 210.184 199.546 210.299 200.304 210.709L196.283 210.184Z" fill="black"/>
<path opacity="0.1" d="M196.923 211.356C196.923 211.356 199.895 211.24 200.304 211.706L196.923 211.356Z" fill="black"/>
<path opacity="0.1" d="M194.448 229.277C194.448 229.277 192.524 230.862 192.577 232.171L194.448 229.277Z" fill="black"/>
<path opacity="0.1" d="M150.04 260.507C150.04 260.507 150.04 261.993 152.792 264.18L150.04 260.507Z" fill="black"/>
<path opacity="0.1" d="M198.612 257.008C198.612 257.008 198.318 260.101 195.64 261.703L198.612 257.008Z" fill="black"/>
<g opacity="0.1">
<path opacity="0.1" d="M165.6 152.046C165.6 151.804 165.558 151.556 165.537 151.311C165.493 151.845 165.509 152.383 165.586 152.913C165.61 152.625 165.615 152.335 165.6 152.046Z" fill="black"/>
<path opacity="0.1" d="M165.044 161.82C165.097 160.805 164.216 159.99 163.96 159.021C163.947 158.974 163.938 158.926 163.932 158.878C163.853 159.273 163.862 159.68 163.96 160.071C164.167 160.872 164.789 161.558 164.985 162.334C165.002 162.152 165.037 161.988 165.044 161.82Z" fill="black"/>
<path opacity="0.1" d="M189.5 157.451C189.198 158.046 188.773 158.57 188.252 158.986C187.437 159.739 186.426 160.547 185.346 160.302C183.741 159.952 183.188 157.503 181.552 157.335C179.916 157.167 178.828 159.434 177.174 159.389C176.475 159.371 175.845 158.913 175.202 158.595C174.076 158.038 172.226 157.699 171.006 158.119C169.177 158.745 168.558 160.438 167.384 161.785C166.945 162.286 166.425 162.71 165.845 163.037C165.728 163.115 165.591 163.157 165.45 163.16C165.362 163.148 165.279 163.112 165.21 163.057C165.141 163.002 165.089 162.928 165.058 162.845V162.87C165.017 163.129 164.995 163.391 164.992 163.653C164.994 163.784 165.04 163.91 165.124 164.012C165.207 164.113 165.322 164.182 165.45 164.209C165.591 164.207 165.728 164.164 165.845 164.087C166.425 163.759 166.945 163.336 167.384 162.835C168.565 161.488 169.177 159.795 171.006 159.168C172.24 158.749 174.09 159.088 175.202 159.644C175.845 159.962 176.461 160.421 177.174 160.438C178.828 160.48 179.909 158.203 181.552 158.385C183.195 158.567 183.741 160.987 185.346 161.351C186.426 161.596 187.444 160.788 188.252 160.036C188.773 159.619 189.198 159.096 189.5 158.5C189.695 157.995 189.747 157.445 189.65 156.912C189.621 157.097 189.57 157.277 189.5 157.451Z" fill="black"/>
</g>
<path opacity="0.1" d="M302.168 272.128C307.369 272.128 311.585 271.415 311.585 270.536C311.585 269.657 307.369 268.944 302.168 268.944C296.968 268.944 292.752 269.657 292.752 270.536C292.752 271.415 296.968 272.128 302.168 272.128Z" fill="#5EC401"/>
<path opacity="0.1" d="M31.8507 285.19C37.0513 285.19 41.2672 284.478 41.2672 283.599C41.2672 282.72 37.0513 282.007 31.8507 282.007C26.6502 282.007 22.4343 282.72 22.4343 283.599C22.4343 284.478 26.6502 285.19 31.8507 285.19Z" fill="#5EC401"/>
<path opacity="0.1" d="M68.2752 293.73C73.4757 293.73 77.6916 293.017 77.6916 292.138C77.6916 291.259 73.4757 290.546 68.2752 290.546C63.0746 290.546 58.8588 291.259 58.8588 292.138C58.8588 293.017 63.0746 293.73 68.2752 293.73Z" fill="#5EC401"/>
<path d="M281.556 289.973C289.321 289.973 295.616 288.908 295.616 287.594C295.616 286.28 289.321 285.215 281.556 285.215C273.79 285.215 267.496 286.28 267.496 287.594C267.496 288.908 273.79 289.973 281.556 289.973Z" fill="#5EC401"/>
<path d="M287.371 283.704C288.011 283.179 288.478 282.473 288.71 281.678C288.885 280.877 288.542 279.929 287.773 279.618C286.912 279.289 285.993 279.887 285.297 280.489C284.601 281.091 283.8 281.78 282.888 281.65C283.358 281.225 283.709 280.686 283.908 280.084C284.107 279.483 284.147 278.84 284.024 278.218C283.983 277.961 283.873 277.719 283.706 277.519C283.23 277.008 282.363 277.225 281.793 277.631C279.975 278.908 279.468 281.381 279.458 283.602C279.272 282.801 279.43 281.965 279.423 281.153C279.416 280.342 279.195 279.404 278.5 278.974C278.07 278.744 277.588 278.63 277.101 278.645C276.283 278.614 275.374 278.698 274.814 279.296C274.115 280.038 274.304 281.283 274.905 282.095C275.506 282.906 276.426 283.427 277.272 283.991C277.949 284.394 278.526 284.946 278.961 285.603C279.014 285.695 279.056 285.793 279.087 285.894H284.196C285.347 285.31 286.415 284.573 287.371 283.704Z" fill="#5EC401"/>
<path d="M68.7611 253.02C68.7611 253.02 70.6843 255.536 67.8765 259.317C65.0687 263.099 62.7539 266.314 63.6805 268.682C63.6805 268.682 67.9185 261.633 71.3731 261.535C74.8278 261.437 72.555 257.26 68.7611 253.02Z" fill="#5EC401"/>
<path opacity="0.1" d="M68.7612 253.02C68.9289 253.264 69.0608 253.53 69.1528 253.811C72.5166 257.764 74.3104 261.455 71.076 261.546C68.0654 261.633 64.4533 267.02 63.5862 268.381C63.6142 268.486 63.6491 268.588 63.6876 268.693C63.6876 268.693 67.9255 261.644 71.3802 261.546C74.8349 261.448 72.5551 257.26 68.7612 253.02Z" fill="black"/>
<path d="M72.3313 256.225C72.3313 257.11 72.2334 257.827 72.111 257.827C71.9887 257.827 71.8907 257.11 71.8907 256.225C71.8907 255.34 72.0131 255.756 72.1355 255.756C72.2579 255.756 72.3313 255.34 72.3313 256.225Z" fill="#FFD037"/>
<path d="M73.5586 257.281C72.7824 257.704 72.104 257.96 72.0481 257.851C71.9921 257.743 72.5691 257.313 73.3453 256.889C74.1216 256.466 73.8173 256.774 73.8733 256.889C73.9292 257.005 74.3348 256.858 73.5586 257.281Z" fill="#FFD037"/>
<path d="M58.6176 253.02C58.6176 253.02 56.6944 255.536 59.5022 259.317C62.31 263.099 64.6248 266.314 63.6982 268.682C63.6982 268.682 59.4637 261.633 56.0056 261.535C52.5474 261.437 54.8167 257.26 58.6176 253.02Z" fill="#5EC401"/>
<path opacity="0.1" d="M58.6175 253.02C58.4492 253.264 58.3162 253.53 58.2223 253.811C54.8586 257.764 53.0683 261.455 56.2992 261.546C59.3133 261.633 62.9253 267.02 63.7925 268.381C63.7638 268.487 63.7288 268.591 63.6876 268.693C63.6876 268.693 59.4531 261.644 55.995 261.546C52.5368 261.448 54.8166 257.26 58.6175 253.02Z" fill="black"/>
<path d="M55.0439 256.225C55.0439 257.11 55.1453 257.827 55.2677 257.827C55.3901 257.827 55.488 257.11 55.488 256.225C55.488 255.34 55.3656 255.756 55.2433 255.756C55.1209 255.756 55.0439 255.34 55.0439 256.225Z" fill="#FFD037"/>
<path d="M53.8201 257.281C54.5964 257.704 55.2712 257.96 55.3307 257.851C55.3901 257.743 54.8062 257.313 54.0299 256.889C53.2537 256.466 53.5614 256.774 53.5019 256.889C53.4425 257.005 53.0439 256.858 53.8201 257.281Z" fill="#FFD037"/>
<path d="M55.6559 268.364C55.6559 268.364 61.0267 268.196 62.6491 267.045C64.2716 265.894 70.9117 264.512 71.3103 266.363C71.7089 268.213 79.384 275.56 73.3209 275.609C67.2577 275.658 59.2294 274.664 57.614 273.681C55.9986 272.698 55.6559 268.364 55.6559 268.364Z" fill="#A8A8A8"/>
<path opacity="0.2" d="M73.4258 274.965C67.3626 275.014 59.3343 274.02 57.7189 273.037C56.4916 272.285 55.9986 269.595 55.8342 268.357H55.6559C55.6559 268.357 56.0055 272.688 57.6105 273.674C59.2155 274.661 67.2542 275.651 73.3174 275.602C75.0657 275.602 75.6706 274.965 75.6391 274.041C75.3944 274.608 74.7265 274.954 73.4258 274.965Z" fill="black"/>
</svg>
