<svg width="16" height="26" viewBox="0 0 16 26" fill="none" xmlns="http://www.w3.org/2000/svg">
<mask id="mask0_0_637" style="mask-type:alpha" maskUnits="userSpaceOnUse" x="-16" y="-2" width="32" height="32">
<path d="M12.0688 9.45818L4.33275 8.33388L0.874536 1.323C0.780083 1.13104 0.624691 0.975653 0.432737 0.8812C-0.0486701 0.643543 -0.633672 0.84159 -0.874376 1.323L-4.33259 8.33388L-12.0686 9.45818C-12.2819 9.48865 -12.4769 9.5892 -12.6262 9.74154C-12.8067 9.92705 -12.9062 10.1766 -12.9027 10.4354C-12.8993 10.6943 -12.7933 10.9411 -12.6079 11.1218L-7.0108 16.5787L-8.33315 24.2843C-8.36416 24.4636 -8.34432 24.6479 -8.27589 24.8165C-8.20746 24.985 -8.09317 25.131 -7.94599 25.2379C-7.7988 25.3448 -7.62461 25.4083 -7.44316 25.4213C-7.26171 25.4342 -7.08026 25.3961 -6.91939 25.3111L7.96659e-05 21.6731L6.91956 25.3111C7.10846 25.4117 7.32784 25.4452 7.53807 25.4086C8.06823 25.3172 8.42472 24.8145 8.33331 24.2843L7.01096 16.5787L12.6081 11.1218C12.7604 10.9725 12.861 10.7775 12.8914 10.5642C12.9737 10.031 12.602 9.5374 12.0688 9.45818Z" fill="#FADB14"/>
</mask>
<g mask="url(#mask0_0_637)">
<rect width="16.7917" height="25.8333" transform="matrix(-1.00645 0 0 1.00645 16.9 0)" fill="#E8E8E8"/>
</g>
</svg>
