<svg width="76" height="249" viewBox="0 0 76 249" fill="none" xmlns="http://www.w3.org/2000/svg">
<path d="M45.0949 243.175C45.6687 243.46 46.3313 243.509 46.9407 243.311C47.0292 243.241 47.0941 243.145 47.1266 243.037C47.1591 242.929 47.1575 242.813 47.1223 242.706C47.0792 242.513 46.9625 242.345 46.797 242.237C45.9195 241.655 43.5214 242.124 43.4231 242.146C43.3939 242.152 43.3674 242.167 43.3471 242.189C43.3268 242.21 43.3137 242.238 43.3096 242.267C43.3065 242.295 43.3112 242.323 43.3232 242.349C43.3352 242.374 43.3541 242.396 43.3777 242.411C43.926 242.717 44.5007 242.972 45.0949 243.175ZM46.3809 242.358C46.4713 242.388 46.5577 242.428 46.6381 242.479C46.6894 242.509 46.7339 242.55 46.769 242.598C46.8042 242.646 46.8291 242.701 46.8424 242.759C46.8802 242.963 46.8424 243.039 46.7667 243.077C46.3733 243.357 44.9133 242.872 43.8921 242.32C44.7165 242.174 45.5613 242.187 46.3809 242.358Z" fill="#F37A20"/>
<path d="M43.4078 242.426H43.4683C44.2626 242.343 46.0555 241.556 46.169 240.868C46.169 240.709 46.169 240.482 45.7832 240.315C45.6516 240.259 45.5101 240.23 45.3671 240.23C45.2241 240.23 45.0826 240.259 44.951 240.315C44.013 240.679 43.3473 242.184 43.317 242.245C43.3057 242.267 43.2998 242.291 43.2998 242.316C43.2998 242.341 43.3057 242.366 43.317 242.388C43.343 242.409 43.3745 242.422 43.4078 242.426ZM45.5865 240.558H45.6697C45.9042 240.663 45.8891 240.769 45.8815 240.8C45.8134 241.216 44.5577 241.881 43.7028 242.071C43.9857 241.44 44.4559 240.912 45.0494 240.558C45.2224 240.492 45.4135 240.492 45.5865 240.558Z" fill="#F37A20"/>
<path d="M42.7573 242.071H36.1077C35.991 242.066 35.8772 242.107 35.7898 242.185C35.7025 242.262 35.6484 242.37 35.6387 242.487L35.1092 247.903C35.1009 248.042 35.121 248.18 35.1682 248.311C35.2153 248.441 35.2886 248.561 35.3834 248.662C35.4783 248.763 35.5928 248.844 35.7199 248.9C35.847 248.955 35.9841 248.984 36.1229 248.985C38.5209 248.947 41.9705 248.803 44.9813 248.803C48.5066 248.803 48.7638 249 52.9017 249C55.3982 249 55.7764 246.473 54.7022 246.239C49.8077 245.195 48.7184 245.089 44.2854 242.547C43.8246 242.261 43.2988 242.097 42.7573 242.071Z" fill="#263238"/>
<path d="M12.5809 243.523C13.2342 243.599 13.8928 243.435 14.4343 243.062C14.51 242.978 14.5584 242.873 14.5733 242.761C14.5881 242.648 14.5687 242.534 14.5176 242.434C14.4799 242.35 14.4235 242.275 14.3527 242.216C14.2819 242.157 14.1986 242.115 14.109 242.093C13.1332 241.821 10.8335 243.031 10.7351 243.084C10.7075 243.097 10.6839 243.118 10.6667 243.143C10.6494 243.168 10.6391 243.197 10.6368 243.228C10.6376 243.256 10.6477 243.283 10.6655 243.305C10.6833 243.327 10.7077 243.342 10.7351 243.349C11.344 243.462 11.9617 243.52 12.5809 243.523ZM13.7157 242.343C13.8086 242.331 13.9027 242.331 13.9956 242.343C14.0511 242.353 14.1031 242.377 14.1468 242.413C14.1905 242.448 14.2243 242.495 14.2452 242.547C14.3209 242.721 14.2452 242.812 14.2452 242.865C13.9048 243.258 12.3616 243.266 11.2193 243.107C12.0014 242.714 12.8462 242.46 13.7157 242.358V242.343Z" fill="#F37A20"/>
<path d="M10.7653 243.364H10.8258C11.5823 243.031 13.2617 241.715 13.2466 241.027C13.2466 240.868 13.1634 240.664 12.77 240.626C12.4721 240.599 12.1752 240.686 11.9378 240.868C11.2928 241.514 10.8442 242.33 10.6442 243.22C10.6322 243.24 10.6258 243.262 10.6258 243.285C10.6258 243.307 10.6322 243.33 10.6442 243.349C10.6623 243.36 10.6823 243.367 10.7032 243.369C10.724 243.372 10.7452 243.37 10.7653 243.364ZM12.6111 240.898H12.7019C12.9515 240.898 12.9591 241.027 12.9591 241.057C12.9591 241.473 11.8244 242.509 11.0074 242.956C11.1854 242.243 11.5572 241.594 12.0816 241.08C12.2333 240.962 12.4194 240.899 12.6111 240.898Z" fill="#F37A20"/>
<path d="M8.79097 242.071H2.14145C2.01966 242.072 1.9017 242.113 1.80592 242.189C1.71015 242.264 1.64194 242.369 1.61191 242.487L0.250234 247.903C0.214714 248.032 0.209879 248.167 0.236117 248.298C0.262355 248.429 0.318934 248.552 0.401316 248.657C0.483698 248.763 0.589589 248.847 0.710491 248.904C0.831394 248.961 0.963945 248.989 1.0975 248.985C3.49557 248.947 6.96784 248.803 9.98622 248.803C13.5115 248.803 12.1195 249 16.2575 249C18.7539 249 19.5255 246.473 18.4816 246.239C13.746 245.195 14.2906 245.089 10.251 242.547C9.81792 242.256 9.31242 242.091 8.79097 242.071Z" fill="#263238"/>
<path d="M38.2562 87.8379C38.2562 87.8379 31.1906 134.627 28.4218 151.996C25.8876 168.079 15.5086 220.632 12.1271 236.873C11.9001 237.985 11.8396 239.014 11.242 239.899C12.0439 240.928 11.4084 243.092 11.4084 243.092L0.817604 244.166C0.483617 243.744 0.243383 243.256 0.112934 242.735C-0.0175153 242.213 -0.0351804 241.669 0.0611172 241.14C0.167025 240.384 1.16559 238.954 1.36984 236.472C2.72395 220.087 8.74559 175.197 10.2737 153.403C11.711 132.94 17.2485 87.8455 17.2485 87.8455L38.2562 87.8379Z" fill="#F37A20"/>
<path opacity="0.3" d="M32.2345 111.138C25.1765 116.184 27.0375 137.562 28.2251 153.418C28.3008 152.919 28.384 152.442 28.4521 151.988C29.9651 142.509 32.7262 124.233 34.9503 109.625C34.5948 109.489 32.5976 110.881 32.2345 111.138Z" fill="black"/>
<path d="M49.8152 87.8379C49.8152 87.8379 49.3613 133.378 48.8393 151.958C48.3703 168.381 48.3249 222.024 44.9737 237.297C44.6332 238.855 45.4276 239.166 45.2763 239.786C45.2247 240.001 45.1843 240.218 45.1552 240.437C45.0977 240.852 44.9136 241.24 44.628 241.547C44.3425 241.854 43.9692 242.066 43.559 242.154L35.7975 243.909C35.4679 243.983 35.1224 243.928 34.8323 243.755C34.5422 243.582 34.3298 243.304 34.2391 242.978C34.0003 241.965 33.9036 240.924 33.9516 239.884C33.9516 239.037 34.3526 237.259 34.2996 236.238C33.2784 217.053 30.729 168.532 30.2524 153.425C29.6018 132.743 28.399 87.8379 28.399 87.8379H49.8152Z" fill="#F37A20"/>
<path d="M20.577 44.1432C19.4725 46.1857 18.3075 48.3493 17.2333 50.4675C16.1591 52.5856 15.0546 54.7492 14.0182 56.8976C13.5038 57.9718 12.997 59.046 12.5052 60.1278C12.0135 61.2096 11.5369 62.2838 11.083 63.358C10.2007 65.4608 9.42559 67.6069 8.76063 69.7882L5.25053 64.6743C5.91775 64.8374 6.59502 64.9561 7.27791 65.0298C7.97491 65.0945 8.67639 65.0945 9.37339 65.0298C10.1068 64.9862 10.8341 64.8696 11.5445 64.6819C11.9076 64.5911 12.301 64.4852 12.6414 64.3641C12.8154 64.3036 13.0045 64.2431 13.1709 64.175L13.4357 64.0842L13.5492 64.0389C13.5492 64.0389 13.6324 64.0389 13.6248 64.0389C14.0452 63.6015 14.622 63.349 15.2285 63.3369C15.835 63.3249 16.4214 63.5542 16.8588 63.9745C17.2962 64.3949 17.5487 64.9717 17.5608 65.5782C17.5728 66.1847 17.3435 66.7711 16.9231 67.2085L16.5978 67.6473C16.4995 67.7759 16.4087 67.9045 16.3104 68.018C16.1137 68.2525 15.917 68.4643 15.7127 68.6912C14.4646 69.9835 12.9701 71.0124 11.3176 71.7172C10.1968 72.1995 9.02016 72.5401 7.81502 72.7309C6.60791 72.9298 5.38237 72.9932 4.16118 72.92C3.65402 72.8967 3.15642 72.7737 2.69679 72.5581C2.23717 72.3425 1.82452 72.0384 1.48241 71.6633C1.1403 71.2882 0.875439 70.8493 0.702946 70.3718C0.530453 69.8943 0.453708 69.3875 0.477094 68.8804C0.488926 68.6743 0.516748 68.4694 0.560308 68.2676L0.65865 67.8137C1.22771 65.2297 1.96304 62.6851 2.86003 60.1959C3.7073 57.7524 4.6756 55.3998 5.68929 53.0698C6.70298 50.7398 7.79232 48.4703 8.91949 46.2614C10.0467 44.0525 11.189 41.8208 12.5431 39.574C12.8411 39.0455 13.2403 38.5809 13.7179 38.2067C14.1955 37.8325 14.7421 37.556 15.3266 37.393C15.911 37.23 16.5218 37.1838 17.1242 37.2569C17.7265 37.33 18.3085 37.521 18.837 37.819C19.3655 38.117 19.8302 38.5162 20.2044 38.9938C20.5786 39.4714 20.8551 40.018 21.0181 40.6025C21.1811 41.1869 21.2273 41.7978 21.1542 42.4001C21.0811 43.0024 20.8901 43.5845 20.5921 44.113L20.577 44.1432Z" fill="#FFC3BD"/>
<path d="M12.7171 64.629L16.2877 61.8678L19.3137 68.2071C19.3137 68.2071 16.3709 70.0151 13.6249 68.9636L12.7171 64.629Z" fill="#FFC3BD"/>
<path d="M21.515 58.3349L23.0431 64.3793L19.2909 68.2071L16.2877 61.8677L21.515 58.3349Z" fill="#FFC3BD"/>
<path d="M43.5137 14.3831C43.5137 14.8748 43.7028 15.2984 44.0205 15.3287C44.3383 15.359 44.6333 14.9807 44.6711 14.489C44.7089 13.9973 44.4895 13.5812 44.1643 13.5509C43.839 13.5207 43.5515 13.8989 43.5137 14.3831Z" fill="#263238"/>
<path d="M43.6727 15.2908C44.1313 16.8401 44.8007 18.3191 45.6622 19.686C45.3071 19.8955 44.9102 20.0245 44.4998 20.0637C44.0893 20.1029 43.6752 20.0515 43.2869 19.9129L43.6727 15.2908Z" fill="#ED847E"/>
<path d="M74.6886 42.8951L74.4012 35.9959L67.1238 38.0611C67.2597 39.2367 67.6536 40.3677 68.2774 41.3734C68.9012 42.379 69.7394 43.2345 70.7322 43.8785L74.6886 42.8951Z" fill="#FFC3BD"/>
<path d="M71.9199 30.9955L65.7016 34.4451L67.1465 38.0611L74.4088 35.9959L71.9199 30.9955Z" fill="#FFC3BD"/>
<path d="M71.8064 27.4249H65.1418C64.975 27.4277 64.8151 27.4917 64.6924 27.6047C64.5697 27.7176 64.4927 27.8717 64.4761 28.0376L63.243 40.8525C63.2344 40.9299 63.2424 41.0083 63.2663 41.0825C63.2902 41.1566 63.3295 41.2249 63.3817 41.2827C63.4338 41.3406 63.4976 41.3868 63.5689 41.4183C63.6402 41.4497 63.7173 41.4657 63.7952 41.4653H70.4523C70.6194 41.461 70.7794 41.3967 70.903 41.2842C71.0267 41.1717 71.1056 41.0185 71.1256 40.8525L72.3511 28.0376C72.3621 27.9604 72.3562 27.8816 72.3337 27.8069C72.3112 27.7322 72.2726 27.6633 72.2208 27.605C72.169 27.5467 72.105 27.5003 72.0335 27.4692C71.9619 27.4381 71.8844 27.423 71.8064 27.4249Z" fill="#F37A20"/>
<path d="M71.345 27.4249H64.6879C64.5211 27.4278 64.3612 27.4917 64.2385 27.6047C64.1158 27.7176 64.0388 27.8717 64.0222 28.0376L62.7891 40.8525C62.7806 40.93 62.7885 41.0083 62.8124 41.0825C62.8363 41.1566 62.8756 41.2249 62.9278 41.2828C62.9799 41.3406 63.0438 41.3868 63.115 41.4183C63.1863 41.4497 63.2634 41.4658 63.3413 41.4653H69.9984C70.1647 41.4608 70.3237 41.3963 70.4461 41.2836C70.5684 41.171 70.6459 41.0179 70.6641 40.8525L71.8972 28.0376C71.907 27.96 71.9 27.8811 71.8765 27.8064C71.8531 27.7317 71.8138 27.6629 71.7614 27.6048C71.709 27.5466 71.6447 27.5005 71.5728 27.4694C71.5009 27.4384 71.4232 27.4232 71.345 27.4249Z" fill="#F37A20"/>
<path d="M63.3413 41.2005C63.3015 41.2018 63.2619 41.1943 63.2254 41.1787C63.1888 41.163 63.156 41.1395 63.1295 41.1098C63.1027 41.0789 63.0827 41.0428 63.071 41.0036C63.0593 40.9645 63.056 40.9233 63.0614 40.8828L64.2945 28.0679C64.3054 27.9662 64.3528 27.8718 64.4279 27.8023C64.503 27.7327 64.6007 27.6927 64.703 27.6897H71.3601C71.3991 27.6888 71.438 27.6958 71.4743 27.71C71.5107 27.7243 71.5439 27.7457 71.5719 27.7729C71.5979 27.8042 71.6174 27.8404 71.6291 27.8794C71.6408 27.9184 71.6445 27.9594 71.64 27.9998L70.4069 40.8601C70.396 40.9619 70.3486 41.0562 70.2735 41.1258C70.1984 41.1953 70.1007 41.2353 69.9984 41.2384L63.3413 41.2005Z" fill="white"/>
<path d="M69.6276 34.3922C69.5681 35.0323 69.2827 35.6305 68.8225 36.0795C68.3624 36.5286 67.7575 36.7993 67.1161 36.8432C66.8191 36.8487 66.5245 36.7893 66.2528 36.6693C65.9812 36.5492 65.7389 36.3714 65.5431 36.1481C65.3472 35.9249 65.2023 35.6616 65.1186 35.3766C65.0349 35.0916 65.0144 34.7918 65.0584 34.4981C65.118 33.8579 65.4034 33.2598 65.8635 32.8107C66.3236 32.3617 66.9285 32.091 67.57 32.0471C67.8673 32.0403 68.1625 32.0987 68.4349 32.2183C68.7072 32.3379 68.95 32.5158 69.1461 32.7394C69.3423 32.9629 69.4871 33.2268 69.5703 33.5123C69.6535 33.7979 69.673 34.0982 69.6276 34.3922Z" fill="#F37A20"/>
<path d="M73.2816 37.9174C71.9514 36.3219 70.8021 34.584 69.8547 32.7354C69.465 32.9132 69.1542 33.2279 68.9813 33.6198C68.8083 34.0117 68.7853 34.4535 68.9167 34.8612C69.1966 35.7009 70.2632 37.8871 70.2632 37.8871C70.2632 37.8871 69.7488 40.5121 70.7171 42.3428C71.6854 44.1735 73.2816 37.9174 73.2816 37.9174Z" fill="#FFC3BD"/>
<path d="M41.9478 11.5084C41.879 11.4862 41.8201 11.4407 41.7813 11.3798C41.761 11.3478 41.7474 11.312 41.7414 11.2745C41.7353 11.2371 41.737 11.1988 41.7462 11.162C41.7554 11.1252 41.7719 11.0907 41.7949 11.0605C41.8178 11.0303 41.8467 11.0051 41.8797 10.9864C42.2673 10.7409 42.7087 10.5934 43.166 10.5565C43.6233 10.5196 44.0828 10.5944 44.5047 10.7746C44.5392 10.7907 44.5701 10.8136 44.5954 10.842C44.6207 10.8704 44.64 10.9037 44.652 10.9398C44.6641 10.9759 44.6686 11.0141 44.6654 11.0521C44.6622 11.09 44.6513 11.1269 44.6333 11.1604C44.5992 11.2267 44.5407 11.2772 44.4702 11.3012C44.3996 11.3252 44.3225 11.3208 44.255 11.289C43.9185 11.1516 43.5539 11.0971 43.1918 11.13C42.8298 11.1629 42.481 11.2823 42.1747 11.4782C42.1416 11.4999 42.1039 11.5138 42.0647 11.5191C42.0254 11.5243 41.9854 11.5207 41.9478 11.5084Z" fill="#263238"/>
<path d="M27.4536 19.8903C28.3614 24.346 28.9287 30.5189 25.8347 33.5071C25.8347 33.5071 27.0905 38.046 35.3664 38.046C44.4443 38.046 39.7162 34.082 39.7162 34.082C35.9338 32.9019 35.9338 28.5899 36.7659 25.1327L27.4536 19.8903Z" fill="#FFC3BD"/>
<path d="M24.1553 36.4725C23.3307 35.3302 23.3383 31.699 24.2006 31.056C25.5926 30.0272 31.5688 29.7851 39.633 31.6385C38.7933 35.1562 40.6467 37.002 40.6467 37.002L24.1553 36.4725Z" fill="#F37A20"/>
<path d="M14.9262 34.8763C9.22227 36.185 5.39444 51.4131 5.39444 51.4131L16.1517 59.4924C19.1018 56.3298 21.1704 52.4483 22.1506 48.2359C24.0721 40.5953 20.7663 33.5373 14.9262 34.8763Z" fill="#263238"/>
<path opacity="0.1" d="M14.9262 34.8763C9.22227 36.185 5.39444 51.4131 5.39444 51.4131L16.1517 59.4924C19.1018 56.3298 21.1704 52.4483 22.1506 48.2359C24.0721 40.5953 20.7663 33.5373 14.9262 34.8763Z" fill="white"/>
<path d="M48.5367 39.2715C51.6685 42.7589 54.6491 46.2917 57.6145 49.7262C59.1275 51.4434 60.6405 53.1379 62.1535 54.7417C63.5471 56.2794 65.0515 57.713 66.6546 59.0309C66.9592 59.2757 67.2774 59.503 67.6077 59.7118C67.8574 59.8782 68.0843 59.9387 67.8422 59.9085C67.5541 59.884 67.264 59.9148 66.9874 59.9992C66.7497 60.0709 66.5231 60.1753 66.3141 60.3094C66.1643 60.3995 66.027 60.5089 65.9056 60.6347C65.8376 60.7557 66.004 60.6347 66.1553 60.3472C66.5804 59.6011 66.9132 58.806 67.1463 57.9794C67.4337 57.0263 67.6985 56.005 67.9028 54.9535C68.803 50.7172 69.4157 46.1253 69.9453 41.6317L74.522 41.5258C75.2255 46.308 75.4283 51.1505 75.1272 55.9747C75.0377 57.2433 74.8786 58.506 74.6506 59.7572C74.4036 61.203 73.9872 62.6148 73.41 63.9632C72.9882 64.9098 72.4074 65.7772 71.6928 66.5277C71.3723 66.8643 71.0085 67.1569 70.611 67.3977C70.1554 67.6836 69.6612 67.9027 69.1434 68.0483C68.3036 68.279 67.4248 68.3306 66.5638 68.1996C65.5068 68.0365 64.4843 67.6991 63.5378 67.201C62.8565 66.8451 62.1971 66.4485 61.5634 66.0133C59.4852 64.5064 57.5298 62.8368 55.7158 61.0205C53.9758 59.3184 52.3418 57.5861 50.7381 55.8537C47.5533 52.3663 44.5273 48.8259 41.5468 45.331L48.5367 39.2715Z" fill="#FFC3BD"/>
<path opacity="0.4" d="M19.9113 45.5882C16.8324 48.6595 15.8641 54.25 15.6599 59.1066L16.1667 59.4924C19.1146 56.3281 21.1828 52.4473 22.1657 48.2359C22.2792 47.782 22.3775 47.3205 22.4607 46.8742L19.9113 45.5882Z" fill="#263238"/>
<path d="M4.99332 50.6188L4.77393 51.2013C4.72119 51.37 4.72355 51.5511 4.78067 51.7184C4.8378 51.8857 4.94672 52.0305 5.09166 52.1317L15.3799 59.916C15.55 60.0443 15.7631 60.1018 15.9747 60.0764C16.1862 60.051 16.3797 59.9447 16.5146 59.7798V59.7269C16.5822 59.6434 16.6327 59.5475 16.6633 59.4446C16.6938 59.3416 16.7037 59.2336 16.6925 59.1268C16.6812 59.02 16.649 58.9165 16.5978 58.8222C16.5465 58.7278 16.4771 58.6445 16.3936 58.577L6.28691 50.2557C6.18517 50.1714 6.06453 50.1131 5.93531 50.0857C5.80609 50.0582 5.67215 50.0626 5.54497 50.0983C5.41779 50.134 5.30116 50.2 5.20508 50.2906C5.10901 50.3813 5.03634 50.4939 4.99332 50.6188Z" fill="#F37A20"/>
<path d="M51.0635 40.9812C52.3571 47.5626 53.4918 70.7641 50.0725 97.5286H15.3951C15.1379 92.5282 19.934 58.4409 14.9412 34.8763C18.5383 34.1782 22.1772 33.7158 25.8346 33.492C30.4478 33.2231 35.0727 33.2231 39.6859 33.492C41.1989 33.6281 42.7119 33.8475 44.0508 34.082C45.7786 34.392 47.3724 35.2165 48.6237 36.4475C49.875 37.6785 50.7254 39.2587 51.0635 40.9812Z" fill="#263238"/>
<path opacity="0.1" d="M51.0635 40.9812C52.3571 47.5626 53.4918 70.7641 50.0725 97.5286H15.3951C15.1379 92.5282 19.934 58.4409 14.9412 34.8763C18.5383 34.1782 22.1772 33.7158 25.8346 33.492C30.4478 33.2231 35.0727 33.2231 39.6859 33.492C41.1989 33.6281 42.7119 33.8475 44.0508 34.082C45.7786 34.392 47.3724 35.2165 48.6237 36.4475C49.875 37.6785 50.7254 39.2587 51.0635 40.9812Z" fill="white"/>
<path opacity="0.4" d="M51.994 49.8623L46.6531 51.1408C46.3354 55.1653 49.6337 59.8328 52.3268 62.9193C52.3495 57.9038 52.2209 53.4783 51.994 49.8623Z" fill="#263238"/>
<path d="M27.272 11.8791C27.1434 17.931 26.7576 21.4486 29.5415 24.8074C33.7249 29.8607 41.3729 27.7728 43.302 21.9025C45.0419 16.6071 44.9663 7.62759 39.2775 4.70755C38.0351 4.05187 36.645 3.72695 35.2407 3.76406C33.8364 3.80118 32.4653 4.19907 31.2594 4.91946C30.0534 5.63985 29.0531 6.6585 28.3548 7.87738C27.6565 9.09625 27.2836 10.4743 27.272 11.8791Z" fill="#FFC3BD"/>
<path d="M40.3289 16.3953C40.3289 16.3953 42.727 18.3244 42.7724 15.2909C42.8501 13.8355 42.7408 12.3762 42.4471 10.9486C42.4471 10.9486 43.9979 10.8503 43.8617 8.27066C43.7255 5.69104 39.7842 1.81026 33.634 2.76344C27.4838 3.71661 27.8998 6.78795 27.8998 6.78795C27.8998 6.78795 22.2035 7.15106 25.411 16.3953C27.741 23.1205 28.0965 24.346 28.0965 24.346C28.0965 24.346 33.7777 25.5488 35.0411 24.2401C36.3044 22.9314 37.9308 15.5556 40.3289 16.3953Z" fill="#263238"/>
<path d="M26.1449 10.525C20.2368 13.5509 15.4104 18.3093 27.5671 18.2941C39.7239 18.279 42.8179 9.21628 42.8179 9.21628L26.1449 10.525Z" fill="#F37A20"/>
<path opacity="0.2" d="M26.1449 10.525C20.2368 13.5509 15.4104 18.3093 27.5671 18.2941C39.7239 18.279 42.8179 9.21628 42.8179 9.21628L26.1449 10.525Z" fill="white"/>
<path d="M44.0963 8.09665C43.3398 9.51128 40.1398 12.1665 37.999 13.3921C35.8581 14.6176 31.4705 15.0412 29.7987 14.9807C28.1268 14.9202 24.594 14.5268 24.1477 13.3921C23.7014 12.2573 23.7468 8.85313 23.8905 6.65932C24.0342 4.46551 30.0559 0.607426 32.4539 0.10058C34.852 -0.406267 40.0188 1.09914 41.5318 2.45325C43.0447 3.80737 44.0963 8.09665 44.0963 8.09665Z" fill="#F37A20"/>
<path d="M36.9703 15.0639C36.9636 16.5673 37.4499 18.0314 38.3546 19.2322C39.565 20.7981 41.025 19.9886 41.3806 18.2639C41.721 16.6828 41.5016 13.967 39.9432 13.0214C38.3849 12.0758 37.0005 13.2635 36.9703 15.0639Z" fill="#FFC3BD"/>
<path d="M38.3092 42.9782C35.4421 50.8533 53.2196 60.3774 53.2196 60.3774L60.0279 50.5431C60.0279 50.5431 55.02 40.7088 48.8849 36.2455C41.3351 30.7686 40.4879 37.002 38.3092 42.9782Z" fill="#263238"/>
<path opacity="0.1" d="M38.3092 42.9782C35.4421 50.8533 53.2196 60.3774 53.2196 60.3774L60.0279 50.5431C60.0279 50.5431 55.02 40.7088 48.8849 36.2455C41.3351 30.7686 40.4879 37.002 38.3092 42.9782Z" fill="white"/>
<path d="M60.1565 49.6959L60.5423 50.2028C60.6468 50.3454 60.7031 50.5177 60.7031 50.6945C60.7031 50.8713 60.6468 51.0435 60.5423 51.1862L53.681 60.4986C53.564 60.6585 53.3928 60.7706 53.1994 60.8137C53.0059 60.8568 52.8034 60.8282 52.6295 60.7331L52.5236 60.6725C52.4221 60.6189 52.3331 60.5445 52.2623 60.4542C52.1915 60.3639 52.1405 60.2597 52.1126 60.1483C52.0848 60.037 52.0807 59.9211 52.1007 59.808C52.1207 59.695 52.1642 59.5875 52.2285 59.4924L58.81 49.7337C58.8831 49.6238 58.9815 49.5331 59.0969 49.4691C59.2124 49.4051 59.3415 49.3698 59.4734 49.3661C59.6054 49.3624 59.7363 49.3904 59.8552 49.4478C59.974 49.5052 60.0774 49.5903 60.1565 49.6959Z" fill="#F37A20"/>
</svg>
