<svg width="28" height="28" viewBox="0 0 28 28" fill="none" xmlns="http://www.w3.org/2000/svg">
<path fill-rule="evenodd" clip-rule="evenodd" d="M18.6667 4.66659V3.49992C18.6667 2.85825 19.1917 2.33325 19.8333 2.33325C20.475 2.33325 21 2.85825 21 3.49992V4.66659H22.1667C23.45 4.66659 24.5 5.71659 24.5 6.99992V23.3333C24.5 24.6166 23.45 25.6666 22.1667 25.6666H5.83333C4.53833 25.6666 3.5 24.6166 3.5 23.3333L3.51167 6.99992C3.51167 5.71659 4.53833 4.66659 5.83333 4.66659H7V3.49992C7 2.85825 7.525 2.33325 8.16667 2.33325C8.80833 2.33325 9.33333 2.85825 9.33333 3.49992V4.66659H18.6667ZM15.1667 15.1666H18.6667C19.3083 15.1666 19.8333 15.6916 19.8333 16.3333V19.8333C19.8333 20.4749 19.3083 20.9999 18.6667 20.9999H15.1667C14.525 20.9999 14 20.4749 14 19.8333V16.3333C14 15.6916 14.525 15.1666 15.1667 15.1666ZM22.1667 9.33325H5.83333V6.99992H22.1667V9.33325ZM7 23.3333H21C21.6417 23.3333 22.1667 22.856 22.1667 22.2726V11.6666H5.83333V22.2726C5.83333 22.856 6.35833 23.3333 7 23.3333Z" fill="#37474F"/>
</svg>
