<svg width="46" height="4" viewBox="0 0 46 4" fill="none" xmlns="http://www.w3.org/2000/svg">
<g opacity="0.2">
<path opacity="0.2" d="M3.43522 1.84577C3.41058 2.18161 3.2879 2.50282 3.08239 2.76958C2.87688 3.03634 2.59758 3.2369 2.27914 3.34639C1.96069 3.45587 1.61711 3.46947 1.29101 3.3855C0.964904 3.30152 0.670622 3.12368 0.444668 2.874C0.218714 2.62432 0.0710327 2.31378 0.0199259 1.98094C-0.0311809 1.6481 0.016535 1.30758 0.157171 1.00161C0.297807 0.695645 0.525177 0.437698 0.811063 0.259753C1.09695 0.0818084 1.42877 -0.00830376 1.7654 0.00060173C2.23054 0.0265202 2.66672 0.23479 2.97931 0.580208C3.29191 0.925627 3.45572 1.38036 3.43522 1.84577Z" fill="white"/>
<path opacity="0.2" d="M8.75362 1.87077C8.77005 2.10615 8.73786 2.34237 8.65907 2.56478C8.58029 2.78719 8.45659 2.99102 8.29566 3.16357C8.13473 3.33613 7.94002 3.47373 7.72363 3.56781C7.50725 3.66188 7.27382 3.71044 7.03787 3.71044C6.80192 3.71044 6.56849 3.66188 6.3521 3.56781C6.13572 3.47373 5.941 3.33613 5.78007 3.16357C5.61914 2.99102 5.49544 2.78719 5.41666 2.56478C5.33788 2.34237 5.3057 2.10615 5.32213 1.87077C5.3057 1.63539 5.33788 1.39915 5.41666 1.17674C5.49544 0.954327 5.61914 0.750499 5.78007 0.577945C5.941 0.405391 6.13572 0.267793 6.3521 0.173714C6.56849 0.0796349 6.80192 0.0310797 7.03787 0.0310797C7.27382 0.0310797 7.50725 0.0796349 7.72363 0.173714C7.94002 0.267793 8.13473 0.405391 8.29566 0.577945C8.45659 0.750499 8.58029 0.954327 8.65907 1.17674C8.73786 1.39915 8.77005 1.63539 8.75362 1.87077Z" fill="white"/>
<path opacity="0.2" d="M14.0803 1.89581C14.0557 2.23165 13.933 2.55286 13.7275 2.81962C13.522 3.08638 13.2427 3.28693 12.9242 3.39642C12.6058 3.50591 12.2622 3.51951 11.9361 3.43553C11.61 3.35156 11.3157 3.17371 11.0898 2.92403C10.8638 2.67435 10.7161 2.36382 10.665 2.03098C10.6139 1.69814 10.6616 1.35762 10.8023 1.05165C10.9429 0.74568 11.1703 0.487733 11.4561 0.309789C11.742 0.131844 12.0739 0.0417315 12.4105 0.050637C12.8748 0.0786694 13.3097 0.287552 13.6219 0.632486C13.9341 0.97742 14.0986 1.43096 14.0803 1.89581Z" fill="white"/>
<path opacity="0.2" d="M19.3987 1.92086C19.3741 2.2567 19.2514 2.57791 19.0459 2.84467C18.8403 3.11142 18.5611 3.31198 18.2426 3.42147C17.9242 3.53096 17.5806 3.54456 17.2545 3.46058C16.9284 3.3766 16.6341 3.19876 16.4082 2.94908C16.1822 2.6994 16.0345 2.38889 15.9834 2.05605C15.9323 1.72321 15.98 1.38266 16.1207 1.0767C16.2613 0.770729 16.4886 0.512782 16.7745 0.334837C17.0604 0.156892 17.3923 0.0667799 17.7289 0.0756854C18.1932 0.103718 18.6281 0.3126 18.9403 0.657534C19.2524 1.00247 19.417 1.45601 19.3987 1.92086Z" fill="white"/>
<path opacity="0.2" d="M24.717 1.93738C24.694 2.27371 24.5726 2.59586 24.368 2.86379C24.1634 3.13171 23.8845 3.33359 23.5661 3.44434C23.2477 3.55508 22.9038 3.5698 22.5771 3.48668C22.2504 3.40356 21.9553 3.22626 21.7285 2.97681C21.5017 2.72736 21.3533 2.41677 21.3016 2.08363C21.2499 1.7505 21.2972 1.40953 21.4377 1.10308C21.5782 0.796631 21.8057 0.53823 22.0918 0.359997C22.378 0.181763 22.7102 0.0915335 23.0472 0.100565C23.5101 0.128588 23.9437 0.336311 24.2556 0.679433C24.5676 1.02255 24.7331 1.47394 24.717 1.93738Z" fill="white"/>
<path opacity="0.2" d="M30.0438 1.96249C30.021 2.29709 29.9009 2.61771 29.6983 2.88492C29.4956 3.15214 29.2192 3.35429 28.9032 3.46647C28.5871 3.57864 28.2452 3.59596 27.9194 3.51631C27.5936 3.43665 27.2982 3.26347 27.0696 3.01811C26.841 2.77274 26.689 2.4659 26.6325 2.13532C26.5761 1.80474 26.6175 1.46486 26.7516 1.15749C26.8858 0.850132 27.1069 0.588688 27.3878 0.405366C27.6686 0.222045 27.9969 0.124826 28.3323 0.125678C28.8025 0.143088 29.2467 0.346196 29.5675 0.690481C29.8883 1.03477 30.0596 1.49217 30.0438 1.96249Z" fill="white"/>
<path opacity="0.2" d="M35.3622 1.98756C35.3786 2.22294 35.3464 2.45918 35.2677 2.68159C35.1889 2.904 35.0652 3.10783 34.9042 3.28039C34.7433 3.45294 34.5486 3.59054 34.3322 3.68462C34.1158 3.7787 33.8824 3.82723 33.6465 3.82723C33.4105 3.82723 33.1771 3.7787 32.9607 3.68462C32.7443 3.59054 32.5496 3.45294 32.3887 3.28039C32.2277 3.10783 32.104 2.904 32.0252 2.68159C31.9465 2.45918 31.9143 2.22294 31.9307 1.98756C31.9143 1.75218 31.9465 1.51593 32.0252 1.29352C32.104 1.07111 32.2277 0.867285 32.3887 0.69473C32.5496 0.522176 32.7443 0.384603 32.9607 0.290524C33.1771 0.196445 33.4105 0.14789 33.6465 0.14789C33.8824 0.14789 34.1158 0.196445 34.3322 0.290524C34.5486 0.384603 34.7433 0.522176 34.9042 0.69473C35.0652 0.867285 35.1889 1.07111 35.2677 1.29352C35.3464 1.51593 35.3786 1.75218 35.3622 1.98756Z" fill="white"/>
<path opacity="0.2" d="M40.6806 2.01256C40.6578 2.34716 40.5376 2.66781 40.335 2.93502C40.1323 3.20223 39.856 3.40436 39.5399 3.51654C39.2238 3.62871 38.8819 3.64604 38.5561 3.56638C38.2303 3.48672 37.935 3.31354 37.7063 3.06818C37.4777 2.82282 37.3258 2.51597 37.2693 2.18539C37.2128 1.85481 37.2542 1.51493 37.3884 1.20757C37.5225 0.900203 37.7436 0.638759 38.0245 0.455438C38.3053 0.272116 38.6336 0.174923 38.969 0.175775C39.4393 0.193185 39.8835 0.396267 40.2043 0.740553C40.5251 1.08484 40.6963 1.54224 40.6806 2.01256Z" fill="white"/>
<path opacity="0.2" d="M45.9989 2.03767C45.9759 2.374 45.8545 2.69615 45.6499 2.96408C45.4453 3.232 45.1664 3.43388 44.848 3.54463C44.5296 3.65537 44.1857 3.67012 43.859 3.587C43.5323 3.50388 43.2372 3.32655 43.0104 3.0771C42.7836 2.82765 42.6351 2.51706 42.5834 2.18392C42.5317 1.85079 42.5791 1.50982 42.7196 1.20337C42.8601 0.896922 43.0876 0.638522 43.3737 0.460288C43.6599 0.282054 43.9921 0.19185 44.3291 0.200882C44.792 0.228905 45.2256 0.436602 45.5375 0.779724C45.8494 1.12285 46.015 1.57423 45.9989 2.03767Z" fill="white"/>
</g>
</svg>
