<svg width="24" height="24" viewBox="0 0 24 24" fill="none" xmlns="http://www.w3.org/2000/svg">
<path fill-rule="evenodd" clip-rule="evenodd" d="M19.477 17.1692L18.154 15.8462V10.7179C18.154 7.56923 16.4719 4.93333 13.5386 4.2359V3.53846C13.5386 2.68718 12.8514 2 12.0001 2C11.1488 2 10.4617 2.68718 10.4617 3.53846V4.2359C7.51807 4.93333 5.84627 7.55897 5.84627 10.7179V15.8462L4.5232 17.1692C3.87704 17.8154 4.32832 18.9231 5.24114 18.9231H18.7488C19.6719 18.9231 20.1232 17.8154 19.477 17.1692ZM7.89755 16.8718V10.7179C7.89755 8.17436 9.44627 6.10256 12.0001 6.10256C14.554 6.10256 16.1027 8.17436 16.1027 10.7179V16.8718H7.89755ZM14.0514 19.9487C14.0514 21.0769 13.1283 22 12.0001 22C10.8617 22 9.94884 21.0769 9.94884 19.9487H14.0514Z" fill="#37474F"/>
</svg>
