<svg width="43" height="49" viewBox="0 0 43 49" fill="none" xmlns="http://www.w3.org/2000/svg">
<path d="M21.4506 5.72542e-05H21.0587L19.9247 0.0834464C19.311 0.120317 18.7007 0.201136 18.0986 0.325267C17.7086 0.380031 17.3217 0.455171 16.9396 0.550395L15.6471 0.908953C13.4473 1.58385 11.3718 2.61175 9.50171 3.95247C7.03093 5.74587 4.96781 8.04202 3.44802 10.6899C2.55475 12.2163 1.8439 13.8423 1.33007 15.5345C0.790146 17.3737 0.479282 19.2726 0.404508 21.188C0.354813 22.1941 0.371524 23.2025 0.454537 24.2065C0.454537 24.7151 0.59629 25.2237 0.662997 25.7407C0.719104 26.2619 0.816694 26.7777 0.95484 27.2833C1.70465 30.6293 3.22603 33.7538 5.39763 36.4075C7.56922 39.0612 10.3309 41.1706 13.4625 42.5676C15.7289 43.5456 18.1582 44.0914 20.6251 44.1769C23.1731 44.3171 25.7237 43.9515 28.1297 43.1013L28.8635 42.8261H28.9635L29.0469 42.8762L39.5617 48.2127L39.2531 48.4796C38.1275 44.9941 37.0435 41.617 35.9928 38.3734V38.2483L36.0845 38.1566C38.6353 35.5875 40.5288 32.4411 41.6046 28.9844C42.5789 25.8241 42.8633 22.4914 42.4384 19.2118C42.0605 16.2971 41.1233 13.4828 39.6784 10.9234C38.4329 8.72481 36.8261 6.75161 34.9255 5.08649C33.3574 3.76853 31.6219 2.66384 29.764 1.80116C28.3583 1.19485 26.8942 0.733851 25.3947 0.425324L23.727 0.150155L22.518 0.0584322L21.7842 0.0084038H21.534C21.6172 -0.000821109 21.7011 -0.000821109 21.7842 0.0084038H22.5263L23.7354 0.0584322L25.403 0.30024C26.9212 0.586181 28.4053 1.03056 29.8307 1.62606C31.7205 2.47848 33.4874 3.58064 35.0839 4.90304C37.0195 6.56077 38.6603 8.5343 39.9369 10.7399C41.4228 13.3268 42.3888 16.1792 42.7803 19.1367C43.2404 22.467 42.9759 25.8574 42.0048 29.0761C40.922 32.6048 38.9992 35.818 36.4014 38.4401L36.4514 38.2233C37.5021 41.467 38.5944 44.844 39.7284 48.3211L39.8869 48.8298L39.4116 48.588L28.8968 43.2597H29.0803L28.3298 43.5349C25.8775 44.3978 23.2797 44.7718 20.6835 44.6356C18.1634 44.5396 15.6833 43.974 13.3707 42.9679C8.95947 41.0786 5.28933 37.7951 2.9227 33.6205C1.83364 31.6925 1.03829 29.6128 0.562934 27.4501C0.432761 26.9314 0.335289 26.4051 0.271091 25.8741C0.204383 25.3488 0.0959859 24.8318 0.0709707 24.3149C-0.154702 21.3479 0.158881 18.3647 0.996534 15.5095C1.52316 13.794 2.25383 12.1479 3.17286 10.6065C4.7289 7.93457 6.83501 5.62383 9.35162 3.8274C11.2525 2.48325 13.3629 1.46326 15.5971 0.808884L16.9062 0.475353C17.2915 0.385978 17.6812 0.3164 18.0736 0.266892C18.682 0.154238 19.298 0.0873385 19.9164 0.066766L21.0587 0.0250842C21.1886 0.0075895 21.3196 -0.000781143 21.4506 5.72542e-05Z" fill="#F37A20"/>
<path d="M26.2035 19.4453H24.6609L21.3256 14.7591V11.6822C21.3256 11.6822 18.9408 11.5321 19.2243 15.5596C19.5078 19.587 19.2243 18.5614 19.2243 18.5614C19.2243 18.5614 14.1629 18.5614 13.746 19.02C13.329 19.4786 13.304 24.3649 13.2457 27.0916C13.2137 27.7489 13.4023 28.398 13.7815 28.9359C14.1607 29.4737 14.7088 29.8694 15.3386 30.0601C15.5151 30.109 15.6974 30.1342 15.8806 30.1351C17.148 30.1351 23.5936 29.1095 23.5936 29.1095H26.2536L26.2035 19.4453Z" fill="#F37A20"/>
<path d="M30.6146 18.6198L29.664 29.1595H27.0291V18.8366L30.6146 18.6198Z" fill="#F37A20"/>
</svg>
