<svg width="4" height="4" viewBox="0 0 4 4" fill="none" xmlns="http://www.w3.org/2000/svg">
<path d="M3.73507 2.00002C3.75293 2.25591 3.71794 2.51272 3.63229 2.75451C3.54664 2.99631 3.41216 3.2179 3.23721 3.40549C3.06225 3.59308 2.85057 3.74267 2.61533 3.84495C2.38009 3.94723 2.12631 4.00001 1.8698 4.00001C1.61328 4.00001 1.35951 3.94723 1.12427 3.84495C0.889025 3.74267 0.677345 3.59308 0.50239 3.40549C0.327436 3.2179 0.192955 2.99631 0.107306 2.75451C0.0216564 2.51272 -0.0133227 2.25591 0.00453873 2.00002C-0.0133227 1.74413 0.0216564 1.48729 0.107306 1.2455C0.192955 1.00371 0.327436 0.782117 0.50239 0.594524C0.677345 0.406932 0.889025 0.257342 1.12427 0.155064C1.35951 0.0527867 1.61328 0 1.8698 0C2.12631 0 2.38009 0.0527867 2.61533 0.155064C2.85057 0.257342 3.06225 0.406932 3.23721 0.594524C3.41216 0.782117 3.54664 1.00371 3.63229 1.2455C3.71794 1.48729 3.75293 1.74413 3.73507 2.00002Z" fill="#F37A20"/>
</svg>
