<svg width="139" height="226" viewBox="0 0 139 226" fill="none" xmlns="http://www.w3.org/2000/svg">
<path d="M129.149 2.64011H23.1911C20.5805 2.67788 18.0797 3.69671 16.186 5.49403C14.2922 7.29134 13.1442 9.73551 12.9702 12.3406L1.98736 216.299C1.90863 217.55 2.08818 218.803 2.51482 219.981C2.94145 221.159 3.60606 222.236 4.46723 223.146C5.3284 224.056 6.36769 224.779 7.52039 225.27C8.67309 225.761 9.91451 226.009 11.1673 226H117.126C119.737 225.964 122.239 224.945 124.133 223.148C126.027 221.35 127.174 218.905 127.347 216.299L138.329 12.3557C138.41 11.104 138.232 9.84918 137.807 8.66939C137.381 7.4896 136.717 6.41021 135.855 5.49856C134.994 4.58691 133.954 3.86259 132.8 3.37078C131.646 2.87898 130.404 2.63024 129.149 2.64011Z" fill="#263238"/>
<path d="M38.0659 0H32.8386V0.754311H38.0659V0Z" fill="#F37A20"/>
<path d="M10.7222 6.89442L10.0659 6.51726C11.1952 4.55359 12.818 2.91915 14.7736 1.77597C16.7292 0.632785 18.9496 0.0205659 21.2147 0H29.4518V0.754312H21.2147C19.0823 0.774642 16.9923 1.35194 15.1519 2.42896C13.3114 3.50599 11.7844 5.04534 10.7222 6.89442Z" fill="#F37A20"/>
<path d="M127.173 2.64011H21.2147C18.6041 2.67788 16.1033 3.69671 14.2096 5.49403C12.3158 7.29134 11.1678 9.73551 10.9938 12.3406L0.0185331 216.299C-0.0612797 217.549 0.117267 218.802 0.543039 219.98C0.968811 221.158 1.63269 222.236 2.49326 223.146C3.35384 224.056 4.39268 224.779 5.54501 225.27C6.69734 225.761 7.93845 226.009 9.19098 226H115.157C117.767 225.962 120.267 224.943 122.159 223.145C124.052 221.348 125.198 218.904 125.37 216.299L136.353 12.3557C136.434 11.104 136.256 9.84918 135.83 8.66939C135.405 7.4896 134.74 6.41021 133.879 5.49856C133.018 4.58691 131.978 3.86259 130.824 3.37078C129.67 2.87898 128.427 2.63024 127.173 2.64011Z" fill="#F37A20"/>
<path d="M9.2815 224.37C8.23796 224.381 7.20349 224.176 6.24274 223.768C5.28198 223.361 4.41561 222.76 3.69777 222.002C2.97992 221.245 2.42604 220.347 2.07073 219.366C1.71542 218.385 1.56632 217.341 1.63277 216.299L12.608 12.3405C12.7502 10.1693 13.7061 8.13158 15.2847 6.63408C16.8632 5.13658 18.9485 4.28948 21.1242 4.26186H127.113C128.157 4.25137 129.192 4.45651 130.153 4.86446C131.115 5.27241 131.981 5.87438 132.699 6.6327C133.417 7.39102 133.971 8.28935 134.326 9.2715C134.681 10.2536 134.829 11.2985 134.761 12.3405L123.756 216.299C123.616 218.472 122.661 220.511 121.082 222.01C119.503 223.509 117.417 224.358 115.24 224.385L9.2815 224.37Z" fill="white"/>
<path opacity="0.2" d="M13.7848 83.9173L17.0209 23.874C17.0927 22.7155 17.5984 21.6266 18.4372 20.8242C19.2759 20.0218 20.3862 19.5648 21.5467 19.5443H124.963C125.523 19.5378 126.078 19.6472 126.593 19.8656C127.109 20.084 127.573 20.4067 127.958 20.8133C128.343 21.22 128.639 21.7018 128.828 22.2285C129.018 22.7553 129.096 23.3155 129.059 23.874L125.823 83.9173C125.751 85.0758 125.245 86.1648 124.407 86.9672C123.568 87.7696 122.458 88.2265 121.297 88.2471H17.8808C17.321 88.2535 16.766 88.1441 16.2506 87.9257C15.7352 87.7073 15.2705 87.3847 14.8859 86.978C14.5012 86.5714 14.2048 86.0895 14.0153 85.5628C13.8258 85.0361 13.7474 84.4758 13.7848 83.9173Z" fill="#F37A20"/>
<path d="M76.8905 11.7597H70.856C70.0545 11.7683 69.2744 11.5008 68.6467 11.0022C68.019 10.5036 67.5819 9.80429 67.4088 9.02159L66.1717 3.47739H82.0651L80.6772 8.75758C80.4612 9.60326 79.9739 10.3548 79.29 10.8971C78.606 11.4393 77.7632 11.7423 76.8905 11.7597Z" fill="#F37A20"/>
<path opacity="0.5" d="M75.9024 7.61855C75.8682 8.14967 75.6348 8.64832 75.2488 9.01474C74.8628 9.38116 74.3527 9.58834 73.8205 9.59485C73.565 9.59747 73.3118 9.54731 73.0767 9.44753C72.8415 9.34774 72.6294 9.20048 72.4538 9.01495C72.2782 8.82942 72.1428 8.60964 72.0561 8.36935C71.9694 8.12907 71.9332 7.87346 71.9498 7.61855C71.984 7.08742 72.2174 6.58878 72.6034 6.22236C72.9894 5.85594 73.4995 5.64875 74.0317 5.64225C74.2875 5.6385 74.5412 5.68788 74.7769 5.78728C75.0126 5.88668 75.2251 6.03391 75.4009 6.21968C75.5768 6.40545 75.7121 6.6257 75.7984 6.86649C75.8848 7.10728 75.9201 7.36337 75.9024 7.61855Z" fill="white"/>
<path d="M91.7807 156.791H40.6684C40.5642 156.792 40.4639 156.752 40.3881 156.68C40.3124 156.609 40.2669 156.511 40.2611 156.407L38.6318 120.313C38.6308 120.258 38.6405 120.204 38.6605 120.154C38.6804 120.103 38.7102 120.057 38.748 120.017C38.7858 119.978 38.831 119.947 38.8809 119.925C38.9309 119.903 38.9846 119.891 39.0391 119.891H97.2947C97.3537 119.89 97.4119 119.903 97.4654 119.928C97.5189 119.952 97.5662 119.989 97.604 120.034C97.6427 120.077 97.671 120.129 97.6866 120.186C97.7023 120.242 97.705 120.301 97.6945 120.358L92.1805 156.452C92.1645 156.547 92.1156 156.633 92.0425 156.695C91.9693 156.757 91.8766 156.791 91.7807 156.791ZM41.0532 155.954H91.4337L96.8271 120.667H39.4615L41.0532 155.954Z" fill="#F37A20"/>
<path d="M89.2387 164.086H44.6059C44.5483 164.094 44.4897 164.089 44.4339 164.072C44.3782 164.056 44.3267 164.027 44.2829 163.989C44.2391 163.951 44.2039 163.904 44.1798 163.851C44.1558 163.798 44.1433 163.74 44.1433 163.682C44.1433 163.624 44.1558 163.566 44.1798 163.514C44.2039 163.461 44.2391 163.413 44.2829 163.375C44.3267 163.337 44.3782 163.309 44.4339 163.292C44.4897 163.275 44.5483 163.271 44.6059 163.279H89.2387C89.5603 163.272 89.8691 163.151 90.1106 162.939C90.3521 162.726 90.5108 162.435 90.5587 162.117L97.3098 117.318C97.3256 117.223 97.3742 117.136 97.4472 117.073C97.5201 117.009 97.613 116.974 97.7096 116.971H100.614C100.722 116.971 100.825 117.014 100.902 117.091C100.978 117.167 101.021 117.271 101.021 117.379C101.021 117.487 100.978 117.59 100.902 117.667C100.825 117.743 100.722 117.786 100.614 117.786H98.0566L91.3583 162.238C91.2843 162.748 91.0298 163.215 90.641 163.555C90.2521 163.894 89.7546 164.082 89.2387 164.086Z" fill="#F37A20"/>
<path d="M48.0005 171.689C47.4536 171.694 46.9115 171.587 46.4081 171.373C45.9047 171.159 45.4509 170.844 45.0749 170.447C44.699 170.05 44.4091 169.579 44.2232 169.065C44.0374 168.55 43.9597 168.003 43.995 167.457C44.0691 166.333 44.5647 165.278 45.3828 164.504C46.2008 163.729 47.2812 163.291 48.4078 163.279C48.9537 163.273 49.4948 163.381 49.9972 163.594C50.4997 163.807 50.9527 164.122 51.328 164.519C51.7032 164.915 51.9926 165.385 52.178 165.898C52.3635 166.412 52.441 166.958 52.4056 167.503C52.3335 168.627 51.8398 169.683 51.0232 170.459C50.2065 171.235 49.127 171.674 48.0005 171.689ZM48.4078 164.086C47.4871 164.097 46.6044 164.455 45.9361 165.088C45.2678 165.722 44.8629 166.584 44.8022 167.503C44.7718 167.939 44.8324 168.376 44.98 168.787C45.1277 169.199 45.3592 169.575 45.66 169.892C45.9607 170.209 46.324 170.46 46.7269 170.629C47.1299 170.798 47.5635 170.882 48.0005 170.874C48.9204 170.863 49.8021 170.505 50.4692 169.871C51.1364 169.238 51.5397 168.376 51.5985 167.457C51.6289 167.022 51.5685 166.585 51.4213 166.175C51.2741 165.764 51.0432 165.388 50.7433 165.071C50.4434 164.754 50.081 164.503 49.6789 164.333C49.2769 164.164 48.8441 164.079 48.4078 164.086Z" fill="#F37A20"/>
<path d="M86.9004 171.689C86.3542 171.693 85.8129 171.585 85.3104 171.371C84.8079 171.157 84.355 170.841 83.9798 170.444C83.6047 170.047 83.3154 169.577 83.1301 169.063C82.9447 168.549 82.8673 168.003 82.9025 167.457C82.973 166.333 83.4665 165.277 84.2837 164.502C85.1009 163.727 86.1813 163.29 87.3077 163.279C87.8539 163.273 88.3953 163.381 88.8982 163.594C89.401 163.807 89.8545 164.122 90.2303 164.518C90.6062 164.915 90.8963 165.384 91.0826 165.898C91.2689 166.411 91.3474 166.958 91.3131 167.503C91.2392 168.628 90.7439 169.683 89.926 170.459C89.1081 171.235 88.0277 171.674 86.9004 171.689ZM87.3077 164.086C86.3873 164.095 85.5045 164.453 84.8371 165.087C84.1696 165.721 83.7668 166.584 83.7096 167.503C83.6793 167.938 83.7397 168.375 83.8869 168.786C84.0341 169.196 84.265 169.572 84.5649 169.889C84.8648 170.206 85.2272 170.457 85.6292 170.627C86.0313 170.796 86.4641 170.881 86.9004 170.874C87.8211 170.863 88.7037 170.505 89.3721 169.872C90.0404 169.238 90.4453 168.376 90.506 167.457C90.5364 167.022 90.4758 166.584 90.3282 166.173C90.1805 165.761 89.949 165.385 89.6482 165.068C89.3475 164.751 88.9841 164.5 88.5812 164.331C88.1783 164.162 87.7447 164.078 87.3077 164.086Z" fill="#F37A20"/>
<path d="M53.8388 90.9702C46.1297 90.9702 38.1641 90.8118 30.357 90.3969C30.3075 90.3949 30.2588 90.3833 30.2138 90.3625C30.1688 90.3417 30.1283 90.3123 30.0946 90.2758C30.061 90.2394 30.0349 90.1967 30.0178 90.1502C30.0007 90.1036 29.9929 90.0542 29.9949 90.0046C30.0008 89.9039 30.046 89.8095 30.1207 89.7418C30.1955 89.6741 30.2939 89.6384 30.3947 89.6426C62.8302 91.3549 98.1999 88.7374 104.959 88.1943C105.059 88.1863 105.158 88.2183 105.234 88.2834C105.31 88.3485 105.358 88.4412 105.366 88.5413C105.374 88.6413 105.342 88.7404 105.277 88.8168C105.212 88.8932 105.119 88.9406 105.019 88.9486C99.8745 89.3635 78.2031 90.9702 53.8388 90.9702Z" fill="white"/>
<path d="M60.3258 104.744L68.6233 111.842L77.675 104.744H60.3258Z" fill="#F37A20"/>
<path d="M74.6655 209.65C81.0864 203.399 81.4907 193.4 75.5684 187.316C69.6462 181.233 59.64 181.368 53.2191 187.619C46.7981 193.869 46.3939 203.868 52.3161 209.952C58.2384 216.036 68.2446 215.9 74.6655 209.65Z" fill="#FF5552"/>
</svg>
