<svg width="24" height="24" viewBox="0 0 24 24" fill="none" xmlns="http://www.w3.org/2000/svg">
<path fill-rule="evenodd" clip-rule="evenodd" d="M17.21 9.98H22C22.55 9.98 23 10.43 23 10.98L22.97 11.25L20.43 20.52C20.19 21.36 19.42 21.98 18.5 21.98H5.5C4.58 21.98 3.81 21.36 3.58 20.52L1.04 11.25C1.01 11.16 1 11.07 1 10.98C1 10.43 1.45 9.98 2 9.98H6.79L11.17 3.43C11.36 3.14 11.68 3 12 3C12.32 3 12.64 3.14 12.83 3.42L17.21 9.98ZM14.8 9.98L12 5.78L9.2 9.98H14.8ZM18.5 19.98L5.51 19.99L3.31 11.98H20.7L18.5 19.98ZM10 15.98C10 14.88 10.9 13.98 12 13.98C13.1 13.98 14 14.88 14 15.98C14 17.08 13.1 17.98 12 17.98C10.9 17.98 10 17.08 10 15.98Z" fill="white"/>
</svg>
