<svg width="86" height="15" viewBox="0 0 86 15" fill="none" xmlns="http://www.w3.org/2000/svg">
<path d="M84.0828 14.6918C84.2511 14.6719 84.4181 14.6413 84.5825 14.6002C84.8141 14.5266 85.0274 14.4046 85.2083 14.2423C85.3893 14.0801 85.5336 13.8813 85.6319 13.659C85.7625 13.3226 85.8138 12.9607 85.7819 12.6013C85.7819 12.1932 85.7819 11.7684 85.7819 11.277C85.7819 10.3192 85.7819 9.21152 85.7819 7.94557V2.65685C85.8216 2.27395 85.7369 1.88843 85.5403 1.55746C85.33 1.22421 85.0083 0.976331 84.6325 0.857853C84.218 0.78087 83.7956 0.755694 83.3749 0.782898H71.3899L1.97039 0.524711C1.59699 0.525592 1.2366 0.662043 0.956257 0.908687C0.67591 1.15533 0.494677 1.49537 0.446237 1.86562C0.446237 2.69848 0.446237 3.53135 0.446237 4.36422C0.446237 6.02995 0.446237 7.69569 0.446237 9.36143C0.446237 10.1943 0.446237 11.0272 0.446237 11.86C0.415222 12.2465 0.432004 12.6354 0.496207 13.0177C0.59595 13.3576 0.810922 13.652 1.1042 13.8506C1.40993 14.0502 1.7728 14.1438 2.13696 14.1171H5.75992L24.1913 14.2171L55.3988 14.4086L76.4371 14.5752L82.1589 14.6418H83.6497C83.9829 14.6418 84.1494 14.6418 84.1494 14.6418C84.1494 14.6418 83.9829 14.6418 83.6497 14.6418H82.1589H76.4371H55.3988L24.1913 14.5502L5.75992 14.4752H2.13696C1.6861 14.5057 1.23791 14.3855 0.862671 14.1338C0.483694 13.8712 0.20711 13.4858 0.0797735 13.0427C0.00512485 12.6195 -0.0172541 12.1887 0.0131425 11.7601C0.0131425 10.9272 0.0131425 10.0944 0.0131425 9.26148C0.0131425 7.59575 0.0131425 5.93001 0.0131425 4.26428C0.0131425 3.43141 0.0131425 2.59855 0.0131425 1.72404C0.0720232 1.24851 0.302586 0.810856 0.661482 0.493371C1.02038 0.175887 1.48288 0.000429332 1.96205 0L71.3816 0.383112L83.3665 0.474741C83.8128 0.447363 84.2608 0.478147 84.6991 0.566344C85.1319 0.707732 85.4968 1.00446 85.7235 1.39921C85.939 1.76605 86.0323 2.19186 85.9901 2.61519C85.9901 3.00664 85.9901 3.3981 85.9901 3.77289C85.9901 5.28038 85.9901 6.66294 85.9901 7.93723C85.9901 9.21152 85.9901 10.2859 85.9901 11.2687C85.9901 11.7434 85.9901 12.1849 85.9901 12.593C86.022 12.9655 85.962 13.3401 85.8152 13.684C85.7071 13.9138 85.5507 14.1176 85.3566 14.2815C85.1626 14.4453 84.9355 14.5654 84.6908 14.6335C84.4955 14.7003 84.2872 14.7203 84.0828 14.6918Z" fill="#E0E0E0"/>
</svg>
