<svg width="24" height="24" viewBox="0 0 24 24" fill="none" xmlns="http://www.w3.org/2000/svg">
<path fill-rule="evenodd" clip-rule="evenodd" d="M20 4H4C2.9 4 2.01 4.9 2.01 6L2 18C2 19.1 2.9 20 4 20H20C21.1 20 22 19.1 22 18V6C22 4.9 21.1 4 20 4ZM4 6.5C4 6.22386 4.22386 6 4.5 6H19.5C19.7761 6 20 6.22386 20 6.5V17.5C20 17.7761 19.7761 18 19.5 18H4.5C4.22386 18 4 17.7761 4 17.5V6.5ZM12.466 12.3172L18.6817 8.43127C18.9015 8.29061 19.0334 8.05323 19.0334 7.79827C19.0334 7.20922 18.3916 6.85755 17.8905 7.16526L12 10.849L6.10953 7.16526C5.6084 6.85755 4.96661 7.20922 4.96661 7.79827C4.96661 8.05323 5.09848 8.29061 5.31828 8.43127L11.534 12.3172C11.8154 12.4931 12.1846 12.4931 12.466 12.3172Z" fill="#37474F"/>
</svg>
