<svg width="24" height="24" viewBox="0 0 24 24" fill="none" xmlns="http://www.w3.org/2000/svg">
<path fill-rule="evenodd" clip-rule="evenodd" d="M11.0019 4.00269C11.0019 3.45269 11.4519 3.00269 12.0019 3.00269C12.5519 3.00269 13.0019 3.45269 13.0019 4.00269V12.0027C13.0019 12.5527 12.5519 13.0027 12.0019 13.0027C11.4519 13.0027 11.0019 12.5527 11.0019 12.0027V4.00269ZM17.1319 7.25269C16.7619 6.86269 16.7519 6.25269 17.1419 5.86269C17.5419 5.46269 18.2019 5.47269 18.5819 5.88269C20.0819 7.48269 21.0019 9.62269 21.0019 11.9927C21.0019 17.0627 16.8119 21.1527 11.7119 20.9927C6.83188 20.8427 2.86188 16.6227 3.00188 11.7427C3.07188 9.47269 3.98188 7.42269 5.43188 5.88269C5.81188 5.47269 6.46188 5.46269 6.86188 5.86269C7.24188 6.24269 7.24188 6.85269 6.87188 7.24269C5.71188 8.49269 5.00188 10.1627 5.00188 12.0027C5.00188 15.9027 8.18188 19.0527 12.0919 18.9927C15.9219 18.9527 19.0919 15.6527 19.0019 11.8227C18.9619 10.0527 18.2619 8.45269 17.1319 7.25269Z" fill="#FF5552"/>
</svg>
