<svg width="259" height="200" viewBox="0 0 259 200" fill="none" xmlns="http://www.w3.org/2000/svg">
<path d="M139.378 59.3482C146.054 59.3482 152.231 58.0327 158.498 57.4203C169.127 56.5108 179.831 57.0961 190.297 59.1592C204.481 61.8432 220.849 68.0351 234.322 81.3415C245.337 92.2134 252.043 105.671 255.491 118.055C259.043 130.654 259.771 143.882 257.623 156.794C255.997 166.298 252.814 175.008 247.552 181.744C223.941 209.339 131.318 199.957 107.541 190.355C31.8612 166.555 -10.8174 63.9147 2.37551 22.3475C7.04029 7.65004 19.9535 -1.95925 38.2043 0.339115C52.7657 2.16874 69.9581 11.4529 83.9751 24.2074C98.287 37.2415 110.104 52.6724 127.138 57.6471C131.114 58.8041 135.237 59.3772 139.378 59.3482Z" fill="#F37A20"/>
<path opacity="0.9" d="M139.378 59.3482C146.054 59.3482 152.231 58.0327 158.498 57.4203C169.127 56.5108 179.831 57.0961 190.297 59.1592C204.481 61.8432 220.849 68.0351 234.322 81.3415C245.337 92.2134 252.043 105.671 255.491 118.055C259.043 130.654 259.771 143.882 257.623 156.794C255.997 166.298 252.814 175.008 247.552 181.744C223.941 209.339 131.318 199.957 107.541 190.355C31.8612 166.555 -10.8174 63.9147 2.37551 22.3475C7.04029 7.65004 19.9535 -1.95925 38.2043 0.339115C52.7657 2.16874 69.9581 11.4529 83.9751 24.2074C98.287 37.2415 110.104 52.6724 127.138 57.6471C131.114 58.8041 135.237 59.3772 139.378 59.3482Z" fill="white"/>
</svg>
