<svg width="29" height="29" viewBox="0 0 29 29" fill="none" xmlns="http://www.w3.org/2000/svg">
<path fill-rule="evenodd" clip-rule="evenodd" d="M20.5417 8.45833C20.5417 7.79375 19.9979 7.25 19.3333 7.25H4.83333C4.16875 7.25 3.625 7.79375 3.625 8.45833V20.5417C3.625 21.2063 4.16875 21.75 4.83333 21.75H19.3333C19.9979 21.75 20.5417 21.2063 20.5417 20.5417V16.3125L23.3122 19.0831C23.7841 19.555 24.5492 19.555 25.0211 19.0831C25.2477 18.8565 25.375 18.5491 25.375 18.2287V10.7713C25.375 10.104 24.834 9.56301 24.1667 9.56301C23.8462 9.56301 23.5389 9.69031 23.3122 9.91692L20.5417 12.6875V8.45833ZM18.125 9.66667V19.3333H6.04167V9.66667H18.125Z" fill="#37474F"/>
</svg>
