<svg width="24" height="24" viewBox="0 0 24 24" fill="none" xmlns="http://www.w3.org/2000/svg">
<path d="M18.7915 11C19.3415 11 19.7915 11.45 19.7915 12C19.7915 12.55 19.3415 13 18.7915 13H7.62148L12.4915 17.89C12.8815 18.28 12.8815 18.91 12.4915 19.3C12.3047 19.4873 12.051 19.5925 11.7865 19.5925C11.522 19.5925 11.2683 19.4873 11.0815 19.3L4.50148 12.7C4.11148 12.31 4.11148 11.68 4.50148 11.29L11.0915 4.7C11.4815 4.31 12.1115 4.31 12.5015 4.7C12.8915 5.09 12.8915 5.73 12.5015 6.12L7.62148 11H18.7915Z" fill="white"/>
</svg>
