<svg width="69" height="119" viewBox="0 0 69 119" fill="none" xmlns="http://www.w3.org/2000/svg">
<path d="M15.2846 88.4742C2.45401 79.5135 -0.452605 62.8794 0.0539769 47.9228C0.137023 45.4314 -0.137019 42.7905 1.05054 40.6064C2.2381 38.4223 5.01183 36.9192 7.24578 37.9656C9.0977 38.8375 9.90326 40.9967 10.9413 42.7822C12.3264 45.1604 14.3562 47.098 16.7961 48.3712C18.3823 49.2017 20.3505 49.7 21.92 48.8363C24.0792 47.6487 24.3284 44.684 24.3117 42.1926C24.3117 37.5586 24.2841 32.9302 24.2287 28.3073C24.0795 25.8249 24.3319 23.3347 24.9761 20.9328C25.7485 18.5743 27.4675 16.3902 29.8177 15.7258C32.1679 15.0614 35.0994 16.4317 35.6309 18.8566C35.7224 19.8837 35.7474 20.9156 35.7057 21.946C35.7721 22.984 36.2538 24.1218 37.2254 24.4373C38.1971 24.7529 39.2102 24.0304 39.9577 23.2996C42.5155 20.8082 44.2594 17.5611 45.8788 14.3555C47.4982 11.15 49.0844 7.85302 51.4097 5.1208C53.735 2.38858 56.9489 0.221084 60.5448 0.0134688C64.1407 -0.194146 67.8861 2.01488 68.783 5.50282C69.6799 8.99076 67.6452 12.5534 65.4611 15.3853C62.1653 19.5889 58.2802 23.2949 53.926 26.3889C53.0761 26.853 52.3977 27.5779 51.991 28.4568C51.4512 30.1177 53.0208 31.7786 54.6568 32.3018C56.5087 32.9164 58.5185 32.7253 60.47 32.9579C62.4216 33.1904 64.4978 34.0375 65.2369 35.8645C66.25 38.4057 64.1241 41.0632 62.0396 42.8071C57.8541 46.2951 53.1014 49.0394 47.9882 50.9207C46.1612 51.5851 44.2428 52.1748 42.7646 53.4537C41.2864 54.7326 40.4061 56.9665 41.2947 58.7188C42.1833 60.4711 44.4671 61.0275 46.3854 60.6704C48.3038 60.3133 50.0062 59.2835 51.8332 58.5942C55.2464 57.307 59.6479 57.5395 61.7988 60.4877C62.4651 61.5032 62.8869 62.6594 63.031 63.8655C63.1751 65.0716 63.0376 66.2947 62.6292 67.4386C61.7981 69.7152 60.5189 71.802 58.8673 73.5757C53.4281 80.0743 46.3609 85.0122 38.3881 87.8846C30.4738 90.6251 23.1408 91.3725 15.2763 88.4908" fill="#F37A20"/>
<path d="M65.1288 2.06469C65.1288 2.06469 65.0541 2.14774 64.888 2.29722L64.1489 2.95328C63.5011 3.5346 62.5461 4.38168 61.3419 5.5028C57.9278 8.6728 54.7575 12.0957 51.8581 15.7424C50.0061 18.0428 48.0878 20.6504 46.0448 23.4823C44.0019 26.3142 41.8925 29.3703 39.7998 32.6174C37.5686 36.0415 35.5254 39.5845 33.6793 43.2307C32.7159 45.1324 31.8689 47.1172 30.9969 49.1436L28.4224 55.3305C25.029 63.1236 22.0735 71.1001 19.5697 79.2229C17.553 85.8688 16.1628 92.689 15.4174 99.5941C14.9344 104.254 14.8566 108.947 15.1849 113.621C15.3178 115.281 15.4423 116.552 15.5586 117.416C15.6084 117.831 15.6416 118.163 15.6749 118.404V118.745C15.6391 118.637 15.6141 118.525 15.6001 118.412C15.5586 118.172 15.5088 117.848 15.4423 117.432C15.2928 116.602 15.1351 115.29 14.9856 113.629C14.5849 108.947 14.6127 104.238 15.0686 99.5609C15.7678 92.6263 17.1276 85.7743 19.1296 79.0983C21.6123 70.9527 24.5597 62.9561 27.9574 55.1478L30.5982 48.9858C31.4702 46.9677 32.3256 44.9663 33.2972 43.0563C35.1562 39.3991 37.2162 35.8476 39.4676 32.418C41.5935 29.0962 43.7361 26.0899 45.7542 23.283C47.7722 20.476 49.7238 17.8518 51.5674 15.5597C54.4963 11.9226 57.7092 8.52368 61.1758 5.39484C62.4049 4.29033 63.3849 3.45987 64.0492 2.90346L64.8215 2.28061C64.9162 2.19818 65.0192 2.12582 65.1288 2.06469Z" fill="#263238"/>
<path d="M33.4052 43.0396C33.2881 42.6975 33.2073 42.344 33.1644 41.9849C33.0315 41.2956 32.882 40.324 32.7076 39.0617C32.3505 36.5703 31.9851 33.1571 31.5948 29.3785C31.2045 25.5999 30.7644 22.1784 30.399 19.7119C30.2079 18.4829 30.0418 17.4946 29.9256 16.8053C29.8349 16.4525 29.7875 16.09 29.7844 15.7257C29.9274 16.0584 30.0306 16.4069 30.0917 16.7638C30.2744 17.4448 30.482 18.4247 30.7145 19.6621C31.1879 22.1535 31.6529 25.5418 32.0433 29.3287C32.4336 33.1156 32.7658 36.4374 33.0232 39.0202C33.1478 40.1828 33.2557 41.1711 33.3388 41.96C33.4033 42.316 33.4256 42.6784 33.4052 43.0396Z" fill="#263238"/>
<path d="M65.3614 37.077C64.9572 37.1649 64.5458 37.215 64.1323 37.2264C63.3018 37.3012 62.1226 37.4008 60.661 37.5669C57.7378 37.8825 53.7183 38.4638 49.3086 39.2943C44.8988 40.1247 40.9375 41.0632 38.089 41.7857C36.669 42.1511 35.5229 42.4833 34.7672 42.7075C34.3637 42.8509 33.9461 42.9511 33.5215 43.0064C33.9053 42.8135 34.3055 42.6551 34.7173 42.5331C35.498 42.259 36.6274 41.877 38.0392 41.4701C40.8711 40.6396 44.8324 39.6514 49.2587 38.8043C53.0083 38.0873 56.7917 37.5607 60.5945 37.2264C62.0644 37.1019 63.252 37.052 64.0825 37.0354C64.5091 37.0064 64.9376 37.0203 65.3614 37.077Z" fill="#263238"/>
<path d="M19.5366 78.5169C19.448 78.3967 19.3755 78.2655 19.3207 78.1266L18.7726 76.9723C18.2992 75.9674 17.6597 74.4809 16.8957 72.6622C15.351 69.0082 13.3828 63.8925 11.2901 58.2122C9.19732 52.5318 7.27065 47.4162 5.80904 43.7206C5.09484 41.9268 4.50523 40.4569 4.06509 39.3607L3.60001 38.1731C3.53555 38.0362 3.49083 37.8908 3.46715 37.7413C3.55569 37.8615 3.62826 37.9927 3.68306 38.1316L4.23116 39.286C4.69622 40.2908 5.34399 41.7773 6.10802 43.5961C7.65267 47.2501 9.62087 52.3657 11.7136 58.0461C13.8064 63.7264 15.7331 68.8421 17.1947 72.5376C17.9089 74.3314 18.4985 75.8013 18.9303 76.8975C19.1213 77.3709 19.2791 77.728 19.4037 78.0851C19.4682 78.2221 19.5129 78.3674 19.5366 78.5169Z" fill="#263238"/>
<path d="M61.9565 64.8391C61.8235 64.9154 61.6811 64.9741 61.533 65.0135L60.3039 65.4287L55.7613 66.8987C51.9246 68.1444 46.6262 69.9215 40.813 71.8814C34.9998 73.8413 29.6765 75.5853 25.8148 76.7479C23.8882 77.3376 22.3186 77.786 21.2307 78.085L19.9767 78.4089C19.8309 78.4552 19.6806 78.4858 19.5283 78.5002C19.6612 78.4239 19.8036 78.3652 19.9518 78.3258L21.1809 77.9106L25.7235 76.4407C29.5602 75.195 34.8586 73.4178 40.6718 71.4579C46.485 69.498 51.8 67.754 55.6616 66.5914C57.5966 66.0017 59.1578 65.5533 60.2541 65.2543L61.5081 64.9305C61.6539 64.8841 61.8042 64.8535 61.9565 64.8391Z" fill="#263238"/>
</svg>
