<svg width="17" height="17" viewBox="0 0 17 17" fill="none" xmlns="http://www.w3.org/2000/svg">
<path fill-rule="evenodd" clip-rule="evenodd" d="M3.54171 4.95829C3.15212 4.95829 2.83337 4.63954 2.83337 4.24996C2.83337 3.86038 3.15212 3.54163 3.54171 3.54163H13.4584C13.848 3.54163 14.1667 3.86038 14.1667 4.24996C14.1667 4.63954 13.848 4.95829 13.4584 4.95829H3.54171ZM3.54171 6.37496H13.4584C13.848 6.37496 14.1667 6.69371 14.1667 7.08329C14.1667 7.47288 13.848 7.79163 13.4584 7.79163H3.54171C3.15212 7.79163 2.83337 7.47288 2.83337 7.08329C2.83337 6.69371 3.15212 6.37496 3.54171 6.37496ZM3.54171 12.0416H9.20837C9.59796 12.0416 9.91671 12.3604 9.91671 12.75C9.91671 13.1395 9.59796 13.4583 9.20837 13.4583H3.54171C3.15212 13.4583 2.83337 13.1395 2.83337 12.75C2.83337 12.3604 3.15212 12.0416 3.54171 12.0416ZM3.54171 10.625H13.4584C13.848 10.625 14.1667 10.3062 14.1667 9.91663C14.1667 9.52704 13.848 9.20829 13.4584 9.20829H3.54171C3.15212 9.20829 2.83337 9.52704 2.83337 9.91663C2.83337 10.3062 3.15212 10.625 3.54171 10.625Z" fill="white"/>
</svg>
