<svg width="24" height="24" viewBox="0 0 24 24" fill="none" xmlns="http://www.w3.org/2000/svg">
<path d="M19.9796 20.5656C20.124 20.4055 20.1933 20.1919 20.1709 19.9779L20.1709 19.9779L18.678 5.76163L18.678 5.76159C18.6373 5.37497 18.3114 5.08132 17.9225 5.08132H15.2917V4.61659C15.2917 2.52582 13.5908 0.825 11.5001 0.825C9.40916 0.825 7.70833 2.52582 7.70833 4.61659V5.08132H5.07746C4.68858 5.08132 4.36267 5.37497 4.32199 5.76159L4.32198 5.76163L2.82913 19.9779L2.82912 19.9779C2.80673 20.192 2.87625 20.4055 3.02004 20.5654L3.02019 20.5656C3.16426 20.7254 3.36944 20.8167 3.58461 20.8167H19.4152C19.6305 20.8167 19.8357 20.7255 19.9796 20.5656ZM19.9796 20.5656L19.8497 20.4484M19.9796 20.5656C19.9797 20.5656 19.9797 20.5655 19.9797 20.5655L19.8497 20.4484M19.8497 20.4484C19.7389 20.5714 19.581 20.6417 19.4152 20.6417H3.58461C3.41902 20.6417 3.26107 20.5714 3.15018 20.4484L19.9968 19.9961C20.0141 20.1608 19.9607 20.3252 19.8497 20.4484ZM9.2275 4.61659C9.2275 3.3638 10.2471 2.34416 11.5001 2.34416C12.7529 2.34416 13.7725 3.3638 13.7725 4.61659V5.08132H9.2275V4.61659ZM17.2385 6.60048L18.5719 19.2976H4.42812L5.76148 6.60048H7.70833V7.71378C7.70833 8.13322 8.04848 8.47336 8.46792 8.47336C8.88735 8.47336 9.2275 8.13322 9.2275 7.71378V6.60048H13.7725V7.71378C13.7725 8.13322 14.1126 8.47336 14.5321 8.47336C14.9515 8.47336 15.2917 8.13322 15.2917 7.71378V6.60048H17.2385Z" fill="#37474F" stroke="#37474F" stroke-width="0.35" stroke-linejoin="round"/>
</svg>
