<svg width="24" height="24" viewBox="0 0 24 24" fill="none" xmlns="http://www.w3.org/2000/svg">
<path fill-rule="evenodd" clip-rule="evenodd" d="M2.8693 10.1158C2.37196 10.0495 2.00075 9.62491 2.00147 9.12317L2.00805 4.51442C2.00908 3.79704 2.7428 3.31406 3.40213 3.59677L20.8567 11.0809C21.6646 11.4273 21.6646 12.5726 20.8567 12.919L3.40213 20.4031C2.7428 20.6858 2.00908 20.2029 2.00805 19.4855L2.00147 14.8767C2.00075 14.375 2.37196 13.9504 2.8693 13.8841L17.0002 11.9999L2.8693 10.1158ZM11.5202 9.24995L4.00021 8.24995L4.01021 6.02995L11.5202 9.24995ZM4.00021 17.9699V15.7499L11.5102 14.7499L4.00021 17.9699Z" fill="#37474F"/>
</svg>
