<svg width="86" height="15" viewBox="0 0 86 15" fill="none" xmlns="http://www.w3.org/2000/svg">
<path d="M84.1496 14.5821C84.3178 14.5614 84.4847 14.5308 84.6493 14.4905C84.8819 14.4165 85.0959 14.2934 85.2769 14.1296C85.4579 13.9659 85.6017 13.7652 85.6986 13.5411C85.8297 13.2049 85.8811 12.8429 85.8485 12.4835C85.8485 12.0837 85.8485 11.6507 85.8485 11.1677C85.8485 10.2016 85.8485 9.10235 85.8485 7.83652V2.54833C85.8883 2.16547 85.8036 1.77998 85.607 1.44904C85.4016 1.10964 85.0785 0.857684 84.6993 0.74118C84.2844 0.66716 83.8621 0.644781 83.4417 0.674555H71.4579L2.04514 0.416393C1.67178 0.417275 1.31144 0.5537 1.03112 0.80032C0.750805 1.04694 0.569577 1.38697 0.521142 1.75718C0.521142 2.54833 0.521142 3.42276 0.521142 4.25554C0.521142 5.92112 0.521142 7.58669 0.521142 9.25226C0.521142 10.0851 0.521142 10.9178 0.521142 11.7506C0.490119 12.1398 0.506898 12.5314 0.571107 12.9165C0.675086 13.2542 0.889095 13.5474 1.17904 13.7493C1.48666 13.9445 1.84802 14.0378 2.2117 14.0158H3.36927H5.77603L24.2056 14.1074L55.4101 14.299L76.4463 14.4655L82.1676 14.5321H83.6583H84.1579H83.6583H82.1676H76.4463H55.4101L24.1889 14.4988L5.75937 14.4322H2.13675C1.68631 14.4589 1.23932 14.3391 0.862588 14.0908C0.483647 13.8283 0.20709 13.4428 0.0797658 12.9998C0.00512436 12.5766 -0.0172524 12.1459 0.0131413 11.7173C0.0131413 10.8845 0.0131413 10.0517 0.0131413 9.21895C0.0131413 7.55337 0.0131413 5.8878 0.0131413 4.22222C0.0131413 3.38944 0.0131413 2.55665 0.0131413 1.72386C0.0739076 1.24767 0.306142 0.809948 0.666374 0.492637C1.02661 0.175327 1.49014 0.000189593 1.9702 0L71.383 0.383075L83.3668 0.474682C83.813 0.447307 84.261 0.478101 84.6993 0.566289C85.1319 0.707663 85.4969 1.00436 85.7236 1.39908C85.939 1.76588 86.0323 2.19166 85.9901 2.61495C85.9901 3.00636 85.9901 3.38944 85.9901 3.77252C85.9901 5.27987 85.9901 6.66229 85.9901 7.93646C85.9901 9.21062 85.9901 10.2849 85.9901 11.2676C85.9901 11.7423 85.9901 12.1837 85.9901 12.5917C86.0203 12.9642 85.9604 13.3384 85.8152 13.6827C85.7071 13.9125 85.5507 14.1162 85.3567 14.2801C85.1627 14.4439 84.9356 14.564 84.6909 14.6321C84.509 14.6471 84.3258 14.6302 84.1496 14.5821Z" fill="#E0E0E0"/>
</svg>
