<svg width="41" height="20" viewBox="0 0 41 20" fill="none" xmlns="http://www.w3.org/2000/svg">
<g filter="url(#filter0_f_9_41)">
<path fill-rule="evenodd" clip-rule="evenodd" d="M17.7923 16.6853C16.8914 17.011 16.0363 17.0431 15.1476 16.6379C14.3652 16.281 13.5662 15.9508 12.7254 15.7432C12.5311 15.675 12.3367 15.6069 12.1423 15.5388C12.3367 15.6069 12.5311 15.675 12.7254 15.7433C12.9409 16.0237 12.766 16.1966 12.5564 16.3616C12.3304 16.5395 12.1874 16.3947 12.0452 16.2348C11.9209 16.0951 11.7934 15.9582 11.6675 15.8201C11.2344 15.8908 11.0128 15.5782 10.7617 15.321C10.8101 15.5423 10.8763 15.7673 10.6559 16.0557C10.6178 15.6378 10.5595 15.3355 10.3964 15.0641C10.0474 15.1117 9.76332 14.9471 9.48084 14.7807C9.03933 14.5206 8.59938 14.2577 8.15873 13.996C7.03989 14.0644 6.5958 13.7933 6.39443 12.9189C6.27005 12.8241 6.14573 12.7293 6.02118 12.6344C5.86836 12.5038 5.71531 12.3731 5.56226 12.2424C5.06095 12.2476 4.55958 12.2582 4.05827 12.2565C3.26333 12.2538 2.75943 11.7999 2.75616 11.0938C2.75288 10.399 3.26551 9.92345 4.05293 9.90967C4.56992 9.90059 5.08738 9.91375 5.60449 9.91685C5.76616 9.81114 5.86238 9.61971 6.06404 9.5664L7.88981 9.89054C8.73669 9.13368 9.58368 8.37683 10.4307 7.61992C10.4096 7.50232 10.3556 7.38667 10.3661 7.26706C10.3556 7.38667 10.4096 7.50232 10.4306 7.61998C9.58368 8.37683 8.73669 9.13368 7.88981 9.89054C7.28124 9.78253 6.67261 9.67446 6.06404 9.5664C6.17279 9.46896 6.28149 9.37153 6.39018 9.27409C6.41029 8.55487 6.6876 8.27469 7.38764 8.27371C7.60641 8.27342 7.82523 8.28617 8.04418 8.2929C8.55124 7.99002 9.05967 7.68909 9.56512 7.38334C9.82347 7.22708 10.0929 7.11976 10.4017 7.14601C10.4933 6.86456 10.5849 6.58306 10.6808 6.28834C10.8852 6.45494 10.7449 6.68796 10.8331 6.86278C11.0223 6.56801 11.2977 6.45563 11.6388 6.48286C11.7402 6.36498 11.8389 6.24467 11.9436 6.12989C12.0792 5.98132 12.2083 5.78582 12.4478 5.95518C12.6586 6.10432 12.8557 6.27024 12.6782 6.57013C13.4657 6.34538 14.24 6.07284 14.9745 5.7182C15.9523 5.24613 16.8909 5.29559 17.8922 5.65788C19.3477 6.18458 20.7108 6.89203 22.0715 7.61234C22.4169 7.46061 22.7399 7.58206 23.0648 7.69179C23.6678 7.8954 24.2713 8.09711 24.8746 8.2995C25.4846 7.97175 26.146 7.83651 26.828 7.77906C27.3751 7.54133 27.9523 7.49129 28.5338 7.55742C30.2956 7.75792 32.0549 7.9806 33.8164 8.18351C34.2399 8.23229 34.5208 8.41958 34.6242 8.8427C35.0327 8.84758 35.4413 8.84488 35.8495 8.85878C37.1183 8.90193 38.1455 9.89186 38.237 11.1523C38.3309 12.4479 37.4565 13.5578 36.1776 13.7854C35.6617 13.8773 35.1409 13.7823 34.6264 13.8564C34.5933 14.2352 34.3609 14.3923 34.0066 14.4331C32.4366 14.6142 30.8668 14.7963 29.2979 14.9863C28.6441 15.0656 27.993 15.1563 27.3514 14.9197C27.1628 14.9174 26.974 14.9202 26.7858 14.9118C25.9397 14.874 25.1426 14.6874 24.4688 14.1347C24.0369 14.2731 23.5958 14.3891 23.1751 14.5563C22.7808 14.713 22.3946 14.7869 21.9822 14.6676C21.842 14.7371 21.6995 14.8022 21.5621 14.8768C20.3361 15.5432 19.1121 16.208 17.7923 16.6853Z" fill="#37474F" fill-opacity="0.15"/>
</g>
<path fill-rule="evenodd" clip-rule="evenodd" d="M17.94 3.42098C16.9681 3.06929 16.0572 3.02128 15.1082 3.47953C14.3953 3.82374 13.6437 4.08821 12.8794 4.3064C12.6965 4.37332 12.5136 4.44017 12.3307 4.50709C11.864 4.97626 11.9582 5.4495 12.5571 5.64556C13.2294 5.51982 13.9056 5.41103 14.5735 5.26438C15.6309 5.03224 16.6741 4.87846 17.6547 5.52272C18.2741 5.721 17.7384 5.93808 17.6649 6.14763C17.6035 6.27688 17.542 6.40619 17.4807 6.53539C18.4605 6.65795 19.2176 7.08313 19.5627 8.06804C19.7592 8.59219 19.7769 9.11277 19.5308 9.62795C19.2118 10.5502 18.4436 10.9353 17.533 11.0775C17.5885 11.1944 17.7021 11.3326 17.7575 11.4495C17.7944 11.6145 18.341 11.8239 17.7155 11.9309C17.0509 12.3258 16.3728 12.5814 15.5642 12.403C14.5587 12.1811 13.5378 12.0295 12.5235 11.8475C11.9781 12.1326 11.9232 12.5225 12.3593 13.0112C12.5479 13.0774 12.7365 13.1436 12.9252 13.2097C13.7412 13.4112 14.5167 13.7317 15.2762 14.0781C16.1387 14.4714 16.9686 14.4402 17.8431 14.1241C19.124 13.6609 20.3121 13.0155 21.5021 12.3688C21.6353 12.2963 21.7737 12.2332 21.9097 12.1657C22.5095 11.8318 23.0913 11.459 23.7128 11.1723C24.9193 10.6156 25.3456 9.69926 25.2534 8.3997C25.1875 7.46927 24.7724 6.85613 23.9953 6.42599C23.3288 6.05713 22.6627 5.68732 21.9965 5.31796C20.6757 4.61883 19.3527 3.93214 17.94 3.42098Z" fill="#1AAAF8"/>
<path fill-rule="evenodd" clip-rule="evenodd" d="M31.7862 7.52301C32.454 7.5195 32.3407 10.5773 31.5041 10.4989C30.9153 10.7782 30.3032 11.0097 29.7479 11.3579C31.2259 11.3647 32.7039 11.3715 34.182 11.3783C34.6814 11.3064 35.187 11.3986 35.6876 11.3095C36.9289 11.0885 37.7777 10.0112 37.6865 8.75365C37.5978 7.53037 36.6007 6.5695 35.3691 6.52768C34.9731 6.51418 34.5763 6.5168 34.1799 6.51206C32.8705 6.51468 31.561 6.51507 30.2516 6.52277C30.0907 6.52366 29.9146 6.464 29.7704 6.59409C30.4423 6.90373 31.1143 7.21337 31.7862 7.52301Z" fill="#37474F"/>
<g filter="url(#filter1_f_9_41)">
<rect width="3.05511" height="2.83415" rx="1.41708" transform="matrix(0 1.01393 1.01393 0 31.4684 7.46539)" fill="#DD452F"/>
</g>
<path fill-rule="evenodd" clip-rule="evenodd" d="M31.4684 8.40933V9.61914C31.4684 10.1405 31.891 10.5631 32.4123 10.5631H33.3981C33.9194 10.5631 34.342 10.1405 34.342 9.61914V8.40933C34.342 7.88801 33.9194 7.46539 33.3981 7.46539H32.4123C31.891 7.46539 31.4684 7.88801 31.4684 8.40933Z" fill="#DD452F"/>
<path fill-rule="evenodd" clip-rule="evenodd" d="M24.323 11.6486C24.9771 12.185 25.7508 12.3661 26.5719 12.4028C26.7546 12.411 26.9378 12.4083 27.1209 12.4105C27.4239 12.3767 27.7017 12.2686 27.9806 12.1488C28.5738 11.894 29.1284 11.5533 29.7479 11.3579C30.303 11.0099 30.9152 10.7784 31.504 10.4991C32.1198 10.2064 32.7356 9.91381 33.3514 9.62112C33.6979 9.2217 33.7224 8.80121 33.4339 8.3602C32.8846 8.08117 32.3353 7.8022 31.786 7.52323C31.1141 7.21359 30.4422 6.90389 29.7702 6.59425C29.6182 6.52533 29.4682 6.45094 29.3135 6.38827C28.4318 6.03084 27.6367 5.41518 26.613 5.47987C25.951 5.53563 25.3091 5.66689 24.7169 5.98506C25.0691 6.16651 25.3637 6.42195 25.6387 6.70248C25.8677 6.65403 26.0535 6.76716 26.2432 6.86469C27.1788 7.3458 28.1136 7.82824 29.0501 8.30767C29.3061 8.43876 29.5241 8.59177 29.5116 8.92294C29.4999 9.23046 29.2861 9.3673 29.0473 9.48986C28.1118 9.97018 27.1753 10.4486 26.2447 10.9381C25.9625 11.0865 25.6764 11.1505 25.3635 11.0955C25.0504 11.3432 24.6756 11.475 24.323 11.6486Z" fill="#F6EFF6"/>
<path fill-rule="evenodd" clip-rule="evenodd" d="M25.6386 6.70245C25.3636 6.42191 25.069 6.16647 24.7169 5.98503C24.1314 5.78847 23.5455 5.5928 22.9603 5.39513C22.645 5.28868 22.3314 5.17075 21.9962 5.31801C22.6625 5.68737 23.3285 6.05718 23.995 6.42604C24.7722 6.85623 25.1872 7.46933 25.2532 8.39975C25.3453 9.69932 24.9191 10.6157 23.7126 11.1724C23.0911 11.4591 22.5093 11.8318 21.9095 12.1658C22.3098 12.2816 22.6847 12.2098 23.0673 12.0578C23.4758 11.8955 23.904 11.7828 24.3233 11.6486C24.6755 11.475 25.0503 11.3433 25.3635 11.0955C25.6649 10.7288 25.9016 10.3303 26.0246 9.86493C26.3172 8.75746 26.187 7.70536 25.6386 6.70245Z" fill="#2A3137"/>
<path fill-rule="evenodd" clip-rule="evenodd" d="M29.7703 6.59426C29.9145 6.46417 30.0906 6.52384 30.2516 6.52295C31.5609 6.51525 32.8704 6.51486 34.1799 6.51224C34.0795 6.10156 33.8069 5.91972 33.3959 5.87244C31.6861 5.67549 29.9785 5.45936 28.2685 5.26476C27.7041 5.20052 27.1438 5.24909 26.6128 5.47994C27.6367 5.4152 28.4318 6.03086 29.3135 6.38828C29.4682 6.45096 29.6182 6.52529 29.7703 6.59426Z" fill="#1A1A1A"/>
<path fill-rule="evenodd" clip-rule="evenodd" d="M5.9726 9.81184C5.50711 9.05076 5.52311 8.29837 6.01358 7.55469C5.51162 7.55157 5.00944 7.53885 4.50765 7.54766C3.74333 7.56099 3.24583 8.02258 3.24901 8.69695C3.25219 9.38231 3.74127 9.82288 4.51283 9.82544C4.9994 9.82706 5.48603 9.8168 5.9726 9.81184Z" fill="#37474F"/>
<g filter="url(#filter2_f_9_41)">
<path fill-rule="evenodd" clip-rule="evenodd" d="M5.71629 9.53901C5.82826 9.63459 5.94023 9.7302 6.05203 9.82574C6.50327 9.74471 6.95459 9.66371 7.40607 9.58289C6.62784 8.86648 6.7338 8.41252 7.40284 7.84805C7.41087 7.84124 7.41381 7.82842 7.4191 7.81838L6.08338 7.58124C5.93586 7.6202 5.86546 7.76029 5.74718 7.83767C5.37749 8.39823 5.36542 8.96534 5.71629 9.53901Z" fill="white"/>
</g>
<path fill-rule="evenodd" clip-rule="evenodd" d="M5.97263 9.81197C6.12118 9.93877 6.26973 10.0656 6.41805 10.1924C7.0167 10.0849 7.61546 9.97742 8.21444 9.87019C7.18198 8.91974 7.32255 8.31747 8.21015 7.5686C8.2208 7.55957 8.2247 7.54256 8.23173 7.52923L6.45965 7.21463C6.26393 7.26632 6.17053 7.45217 6.01362 7.55483C5.52314 8.29851 5.50714 9.05089 5.97263 9.81197Z" fill="white"/>
<path fill-rule="evenodd" clip-rule="evenodd" d="M34.1818 11.3784C32.7038 11.3717 31.2258 11.3649 29.7477 11.358C29.1283 11.5533 28.5738 11.894 27.9806 12.1487C27.7016 12.2686 27.4238 12.3766 27.1208 12.4105C27.7436 12.6402 28.3755 12.552 29.0102 12.4752C30.533 12.2907 32.0566 12.114 33.5803 11.9382C33.9243 11.8985 34.1499 11.7462 34.1818 11.3784Z" fill="#1A1A1A"/>
<path fill-rule="evenodd" clip-rule="evenodd" d="M8.21427 9.86977C7.61545 9.97728 7.01663 10.0847 6.41804 10.1922C6.53893 10.2844 6.6596 10.3764 6.78032 10.4684C7.37439 10.7787 7.94706 11.1241 8.49274 11.5138C8.92042 11.7678 9.34738 12.023 9.77596 12.2755C10.0501 12.437 10.3259 12.5968 10.6646 12.5504C10.6096 12.4104 10.6519 12.289 10.7367 12.1759C10.5508 11.8749 10.1513 11.7678 10.0352 11.4034C10.0352 11.4034 10.0339 11.4051 10.0342 11.4048C9.84449 11.4043 9.74685 11.2563 9.6258 11.1471C9.15473 10.7219 8.68472 10.2957 8.21427 9.86977Z" fill="#1A1A1A"/>
<path fill-rule="evenodd" clip-rule="evenodd" d="M6.45963 7.21455C7.0503 7.31944 7.64103 7.42432 8.23171 7.52915C9.05368 6.79456 9.87576 6.05996 10.6977 5.32537C10.6707 5.17309 10.5864 5.02432 10.6697 4.86534C10.37 4.8398 10.1085 4.94402 9.85775 5.09569C9.36717 5.39245 8.87368 5.68453 8.38154 5.9785C7.86603 6.3289 7.35409 6.68538 6.77618 6.93078C6.67068 7.02535 6.56518 7.11998 6.45963 7.21455Z" fill="#1A1A1A"/>
<path fill-rule="evenodd" clip-rule="evenodd" d="M10.5271 11.0679C10.3552 11.0437 10.2138 10.9465 10.1995 10.7588C10.184 10.5571 10.2882 10.393 10.5069 10.3772C10.719 10.3619 10.8577 10.4887 10.8775 10.6996C10.899 10.9286 10.7347 11.0148 10.5271 11.0679ZM10.7366 12.1761C10.6517 12.2891 10.6095 12.4105 10.6645 12.5506C10.8228 12.814 10.8794 13.1074 10.9164 13.5131C11.1302 13.2332 11.066 13.0148 11.019 12.8C10.9563 12.6533 10.8699 12.5077 10.983 12.3461C10.7649 11.9814 11.1637 11.8704 11.2734 11.6404C11.269 11.5984 11.2647 11.5565 11.2603 11.5146C11.1461 11.4345 11.0335 11.3633 11.1811 11.2059C11.3447 11.0315 11.3559 10.8009 11.3741 10.5767C11.2889 10.4752 11.2068 10.3708 11.1178 10.2727C10.7265 9.84123 10.1493 9.94155 9.91307 10.4724C9.86467 10.5812 9.91335 10.7198 9.80077 10.8036C9.75778 11.0509 10.0046 11.1859 10.0338 11.4053C10.0338 11.4053 10.0351 11.4036 10.0354 11.4033C10.3896 11.5516 10.7643 11.6814 10.7366 12.1761Z" fill="#6F7A80"/>
<path fill-rule="evenodd" clip-rule="evenodd" d="M10.5147 7.15475C10.2936 7.1219 10.1822 6.96895 10.1994 6.77541C10.2145 6.60422 10.3534 6.4584 10.5404 6.46995C10.7333 6.48188 10.8953 6.58939 10.8773 6.82018C10.8606 7.03402 10.7221 7.13735 10.5147 7.15475ZM10.6698 4.86536C10.5865 5.02434 10.6707 5.17311 10.6979 5.32534C10.7644 5.74589 10.3753 5.86209 10.1617 6.07259C9.89101 6.33946 9.71084 6.6007 9.7995 6.99052C10.3629 7.6799 10.632 7.68441 11.2145 7.01902C11.239 6.99097 11.2957 6.99108 11.3374 6.97815C11.3366 6.91302 11.3358 6.84794 11.3349 6.78282C11.2863 6.75906 11.2889 6.73363 11.3325 6.70698C11.3604 6.43007 10.9099 6.25437 11.1679 5.92878C11.0587 5.66743 10.7058 5.46139 10.9823 5.11233C10.7759 4.88923 11.0607 4.766 11.0884 4.59046C11.0028 4.42084 11.139 4.19462 10.9406 4.03297C10.8475 4.31896 10.7586 4.59214 10.6698 4.86536Z" fill="#6F7A80"/>
<path fill-rule="evenodd" clip-rule="evenodd" d="M11.0883 4.59046C11.0606 4.76599 10.7758 4.88922 10.9823 5.11221C11.2407 5.15905 11.3297 5.44154 11.5754 5.52724C11.721 5.57804 11.5364 5.68895 11.5305 5.77839C11.8703 5.71571 12.2453 5.9242 12.5571 5.64557C11.958 5.44951 11.8638 4.97627 12.3305 4.50732C12.1772 4.41225 12.0238 4.31695 11.8704 4.22171C11.5393 4.19528 11.272 4.30429 11.0883 4.59046Z" fill="#FDB288"/>
<path fill-rule="evenodd" clip-rule="evenodd" d="M10.9829 12.3459C10.87 12.5075 10.9563 12.6531 11.0191 12.7999C11.2628 13.0494 11.4779 13.3528 11.8982 13.2843C12.0519 13.1933 12.2055 13.1023 12.3592 13.0112C11.923 12.5224 11.978 12.1326 12.5229 11.8475C12.5354 11.823 12.5509 11.7992 12.5595 11.7731C12.5616 11.7666 12.5415 11.7436 12.5316 11.7436C12.2149 11.743 11.8982 11.7443 11.5815 11.7453C11.6437 11.9552 11.3371 12.2629 10.9829 12.3459Z" fill="#FDB288"/>
<path fill-rule="evenodd" clip-rule="evenodd" d="M8.49261 11.5138C7.94694 11.1241 7.37427 10.7786 6.78019 10.4683C6.97564 11.3171 7.40667 11.5801 8.49261 11.5138Z" fill="#F6EFF6"/>
<path fill-rule="evenodd" clip-rule="evenodd" d="M6.77623 6.93075C7.35408 6.68535 7.86608 6.32887 8.38159 5.97847C8.16909 5.97189 7.95669 5.95956 7.7443 5.95984C7.06485 5.96073 6.79575 6.23274 6.77623 6.93075Z" fill="#F6EFF6"/>
<path fill-rule="evenodd" clip-rule="evenodd" d="M12.3591 13.0113C12.2055 13.1025 12.0519 13.1935 11.8981 13.2845C12.0204 13.4185 12.1442 13.5514 12.2648 13.6869C12.4029 13.8421 12.5417 13.9826 12.761 13.8099C12.9644 13.6499 13.1341 13.482 12.925 13.2098C12.7364 13.1437 12.5478 13.0775 12.3591 13.0113Z" fill="#37474F"/>
<path fill-rule="evenodd" clip-rule="evenodd" d="M11.8704 4.22176C12.0238 4.317 12.1772 4.41229 12.3306 4.50737C12.5135 4.44023 12.6964 4.37337 12.8792 4.30646C13.0515 4.01539 12.8602 3.85435 12.6556 3.70965C12.4232 3.54527 12.2978 3.73497 12.1662 3.87916C12.0646 3.99057 11.9688 4.10734 11.8704 4.22176Z" fill="#37474F"/>
<path fill-rule="evenodd" clip-rule="evenodd" d="M15.7481 10.9077L15.7549 10.9112C15.6453 10.9482 15.5972 10.8653 15.4989 10.8209C14.6409 10.4336 14.0363 9.38183 14.221 8.42921C14.4215 7.39445 15.2213 6.66343 16.2168 6.60482C16.4573 6.63683 16.6975 6.50334 16.9381 6.60337C17.1189 6.58068 17.2997 6.55798 17.4805 6.53529C17.5419 6.40604 17.6034 6.27678 17.6648 6.14753C16.1603 6.19281 14.6437 5.96129 13.1541 6.34475C12.7035 6.53072 12.3014 6.7972 11.9156 7.09084C11.7861 7.38168 11.5881 7.64688 11.5808 7.98346C11.5858 8.56198 11.5909 9.14061 11.596 9.71924C11.6323 10.0472 11.8377 10.2925 12.0051 10.5564C12.3396 10.8574 12.7478 11.0323 13.1461 11.2244C13.3823 11.2766 13.6161 11.348 13.8551 11.378C15.1528 11.5411 16.4566 11.4231 17.7575 11.4493C17.702 11.3325 17.6543 11.1941 17.5988 11.0773C17.3522 11.0721 17.3309 11.0529 17.0843 11.0476" fill="#3F4040"/>
<path fill-rule="evenodd" clip-rule="evenodd" d="M25.6387 6.70241C26.1871 7.70533 26.3173 8.75743 26.0246 9.8649C25.9016 10.3303 25.6649 10.7288 25.3635 11.0954C25.6764 11.1505 25.9625 11.0865 26.2446 10.9381C27.1753 10.4486 28.1118 9.97017 29.0472 9.48979C29.286 9.36723 29.4998 9.23039 29.5115 8.92287C29.5241 8.59171 29.3061 8.4387 29.05 8.3076C28.1136 7.82817 27.1787 7.34573 26.2431 6.86462C26.0534 6.7671 25.8677 6.65396 25.6387 6.70241Z" fill="#FEFEFE"/>
<path fill-rule="evenodd" clip-rule="evenodd" d="M9.79947 6.99052C9.71082 6.60075 9.89103 6.33951 10.1618 6.07264C10.3753 5.86214 10.7644 5.74593 10.6978 5.32539C9.87576 6.06004 9.05373 6.79457 8.2317 7.52917C8.22467 7.5425 8.22083 7.55956 8.21018 7.56854C7.32257 8.31746 7.182 8.91973 8.21441 9.87018C8.6847 10.2957 9.15477 10.722 9.62584 11.1472C9.74689 11.2564 9.84453 11.4044 10.0342 11.4049C10.0048 11.1859 9.75788 11.0508 9.80081 10.8037C9.79518 10.6286 9.78961 10.4534 9.78403 10.2783C9.5427 10.5972 9.29941 10.5693 9.03259 10.3006C8.75541 10.0215 8.45391 9.76658 8.17795 9.48643C7.76286 9.06488 7.77033 8.40629 8.1857 7.97676C8.39642 7.7589 8.61667 7.55019 8.83013 7.3349C9.12572 7.0368 9.43859 6.9502 9.7876 7.24741C9.79156 7.16176 9.79552 7.07617 9.79947 6.99052Z" fill="#8D9AA1"/>
<path fill-rule="evenodd" clip-rule="evenodd" d="M10.7366 12.1758C10.7643 11.6812 10.3896 11.5514 10.0354 11.4031C10.1512 11.7678 10.5507 11.8748 10.7366 12.1758Z" fill="#8D9AA1"/>
<path fill-rule="evenodd" clip-rule="evenodd" d="M9.79932 6.99036C9.79536 7.07601 9.7914 7.1616 9.78745 7.24725L9.78388 10.2781C9.78945 10.4533 9.79503 10.6284 9.80066 10.8035C9.9133 10.7196 9.86462 10.5811 9.91302 10.4722C10.1493 9.94134 10.7265 9.84102 11.1178 10.2724C11.2068 10.3706 11.2888 10.475 11.3741 10.5765C11.5844 10.5698 11.7947 10.5631 12.0051 10.5564C11.8376 10.2925 11.6322 10.0472 11.5959 9.71935C11.5755 9.65673 11.5551 9.59406 11.5347 9.53133C10.5968 9.7106 10.5401 9.66605 10.5407 8.75029C10.5407 8.73512 10.54 8.71995 10.54 8.70467C10.5402 7.96902 10.5702 7.94125 11.3137 8.01625C11.3876 8.02372 11.459 8.05573 11.5316 8.07641C11.5479 8.04547 11.5643 8.01446 11.5807 7.98357C11.5881 7.64689 11.786 7.38169 11.9153 7.09079C11.7277 7.02683 11.4933 7.20337 11.3373 6.97798C11.2956 6.99097 11.2388 6.99086 11.2143 7.01891C10.6318 7.68425 10.3627 7.67973 9.79932 6.99036Z" fill="#37474F"/>
<path fill-rule="evenodd" clip-rule="evenodd" d="M10.5271 11.068C10.7347 11.0148 10.8991 10.9287 10.8776 10.6996C10.8577 10.4888 10.719 10.362 10.507 10.3772C10.2882 10.393 10.1841 10.5571 10.1995 10.7588C10.2138 10.9466 10.3553 11.0437 10.5271 11.068Z" fill="#FF002A"/>
<path fill-rule="evenodd" clip-rule="evenodd" d="M11.5815 11.7453C11.4787 11.7102 11.3759 11.6752 11.2733 11.6402C11.1638 11.8702 10.7649 11.9812 10.983 12.346C11.3371 12.2629 11.6438 11.9552 11.5815 11.7453Z" fill="#37474F"/>
<path fill-rule="evenodd" clip-rule="evenodd" d="M10.5146 7.15472C10.722 7.13732 10.8605 7.034 10.8772 6.82016C10.8952 6.58936 10.7332 6.48186 10.5403 6.46992C10.3533 6.45838 10.2144 6.60419 10.1992 6.77538C10.1821 6.96893 10.2935 7.12188 10.5146 7.15472Z" fill="#FF002A"/>
<path fill-rule="evenodd" clip-rule="evenodd" d="M11.1678 5.92882C11.2452 5.91264 11.3225 5.89647 11.3995 5.88036C11.4429 5.84646 11.4867 5.8125 11.5305 5.77848C11.5364 5.68899 11.721 5.57808 11.5754 5.52728C11.3297 5.44158 11.2408 5.15909 10.9824 5.11225C10.7057 5.46143 11.0586 5.66746 11.1678 5.92882Z" fill="#37474F"/>
<path fill-rule="evenodd" clip-rule="evenodd" d="M11.3408 6.78276L11.3449 6.74462L11.338 6.70692C11.2886 6.73358 11.2856 6.759 11.3408 6.78276Z" fill="#2A3137"/>
<path fill-rule="evenodd" clip-rule="evenodd" d="M18.7232 8.80847C18.7232 10.0615 17.7074 11.0774 16.4543 11.0774C15.2012 11.0774 14.1854 10.0615 14.1854 8.80847C14.1854 7.5554 15.2012 6.53958 16.4543 6.53958C17.7074 6.53958 18.7232 7.5554 18.7232 8.80847Z" fill="white"/>
<path fill-rule="evenodd" clip-rule="evenodd" d="M19.0104 8.80847C19.0104 10.0615 17.9945 11.0774 16.7415 11.0774C15.4884 11.0774 14.4726 10.0615 14.4726 8.80847C14.4726 7.5554 15.4884 6.53958 16.7415 6.53958C17.9945 6.53958 19.0104 7.5554 19.0104 8.80847Z" fill="#2A3137"/>
<path fill-rule="evenodd" clip-rule="evenodd" d="M19.7159 8.80847C19.7159 10.0615 18.7 11.0774 17.447 11.0774C16.1939 11.0774 15.1781 10.0615 15.1781 8.80847C15.1781 7.5554 16.1939 6.53958 17.447 6.53958C18.7 6.53958 19.7159 7.5554 19.7159 8.80847Z" fill="white"/>
<path fill-rule="evenodd" clip-rule="evenodd" d="M11.5349 9.53142C11.5553 9.59415 11.5757 9.65683 11.5961 9.71945C11.5911 9.14065 11.586 8.56202 11.5809 7.9835C11.5645 8.01456 11.5482 8.04556 11.5318 8.07645C11.5328 8.56141 11.5338 9.04647 11.5349 9.53142Z" fill="#6F7A80"/>
<path fill-rule="evenodd" clip-rule="evenodd" d="M9.51135 9.95017C9.44282 9.55143 9.39821 9.15424 9.53577 8.76358C9.60319 9.16138 9.64975 9.55756 9.51135 9.95017ZM9.24671 9.00895H9.25022C9.25022 9.11523 9.24978 9.22156 9.25028 9.32784C9.25128 9.51871 9.24459 9.69904 8.98681 9.72291C8.75875 9.7441 8.62241 9.63576 8.62118 9.42219C8.61979 9.18236 8.41515 9.14528 8.29476 9.02428C8.09642 8.82471 8.07199 8.58907 8.1969 8.35705C8.31327 8.14092 8.51713 8.03475 8.77163 8.07674C9.04084 8.12123 9.21002 8.28054 9.24342 8.55388C9.26177 8.70349 9.24671 8.85705 9.24671 9.00895ZM9.78402 10.2782L9.78759 7.24734C9.43858 6.95013 9.12571 7.03673 8.83012 7.33483C8.61667 7.55012 8.39641 7.75883 8.18569 7.97669C7.77033 8.40622 7.76286 9.06481 8.17794 9.48636C8.4539 9.7665 8.7554 10.0214 9.03259 10.3005C9.2994 10.5692 9.54269 10.5971 9.78402 10.2782Z" fill="#6F7A80"/>
<path fill-rule="evenodd" clip-rule="evenodd" d="M11.5348 9.53145C11.5337 9.04649 11.5327 8.56143 11.5317 8.07648C11.4591 8.05584 11.3877 8.02384 11.3139 8.01637C10.5703 7.94131 10.5403 7.96908 10.5401 8.70479C10.5401 8.72001 10.5408 8.73524 10.5408 8.7504C10.5402 9.66616 10.5969 9.71072 11.5348 9.53145Z" fill="#FDFDFD"/>
<path fill-rule="evenodd" clip-rule="evenodd" d="M9.2466 9.00891C9.2466 8.85702 9.26165 8.7034 9.24331 8.55385C9.20991 8.28051 9.04079 8.1212 8.77152 8.0767C8.51708 8.03471 8.31316 8.14088 8.19679 8.35701C8.07188 8.58903 8.09631 8.82468 8.29465 9.02419C8.41504 9.14525 8.61968 9.18233 8.62107 9.42216C8.6223 9.63572 8.75869 9.74406 8.9867 9.72287C9.24448 9.69901 9.25117 9.51868 9.25017 9.32781C9.24967 9.22153 9.25011 9.11519 9.25011 9.00891H9.2466Z" fill="white"/>
<path fill-rule="evenodd" clip-rule="evenodd" d="M9.51124 9.95034C9.64964 9.55773 9.60308 9.16155 9.53566 8.76375C9.3981 9.15441 9.44271 9.5516 9.51124 9.95034Z" fill="white"/>
<defs>
<filter id="filter0_f_9_41" x="-2.03062e-05" y="2.61898" width="41" height="17.0728" filterUnits="userSpaceOnUse" color-interpolation-filters="sRGB">
<feFlood flood-opacity="0" result="BackgroundImageFix"/>
<feBlend mode="normal" in="SourceGraphic" in2="BackgroundImageFix" result="shape"/>
<feGaussianBlur stdDeviation="1.35914" result="effect1_foregroundBlur_9_41"/>
</filter>
<filter id="filter1_f_9_41" x="28.7122" y="4.70923" width="8.38604" height="8.61007" filterUnits="userSpaceOnUse" color-interpolation-filters="sRGB">
<feFlood flood-opacity="0" result="BackgroundImageFix"/>
<feBlend mode="normal" in="SourceGraphic" in2="BackgroundImageFix" result="shape"/>
<feGaussianBlur stdDeviation="1.35914" result="effect1_foregroundBlur_9_41"/>
</filter>
<filter id="filter2_f_9_41" x="2.70513" y="4.82508" width="7.47014" height="7.75679" filterUnits="userSpaceOnUse" color-interpolation-filters="sRGB">
<feFlood flood-opacity="0" result="BackgroundImageFix"/>
<feBlend mode="normal" in="SourceGraphic" in2="BackgroundImageFix" result="shape"/>
<feGaussianBlur stdDeviation="1.35914" result="effect1_foregroundBlur_9_41"/>
</filter>
</defs>
</svg>
