<svg width="4" height="4" viewBox="0 0 4 4" fill="none" xmlns="http://www.w3.org/2000/svg">
<path d="M3.73506 1.99999C3.75292 2.25589 3.71794 2.51272 3.63229 2.75451C3.54664 2.99631 3.41216 3.2179 3.23721 3.40549C3.06225 3.59308 2.85056 3.74267 2.61532 3.84495C2.38007 3.94723 2.12631 3.99999 1.8698 3.99999C1.61328 3.99999 1.3595 3.94723 1.12425 3.84495C0.889012 3.74267 0.677345 3.59308 0.50239 3.40549C0.327436 3.2179 0.192955 2.99631 0.107306 2.75451C0.0216564 2.51272 -0.0133227 2.25589 0.00453873 1.99999C-0.0133227 1.7441 0.0216564 1.48727 0.107306 1.24547C0.192955 1.00368 0.327436 0.782089 0.50239 0.594497C0.677345 0.406905 0.889012 0.257342 1.12425 0.155064C1.3595 0.0527867 1.61328 0 1.8698 0C2.12631 0 2.38007 0.0527867 2.61532 0.155064C2.85056 0.257342 3.06225 0.406905 3.23721 0.594497C3.41216 0.782089 3.54664 1.00368 3.63229 1.24547C3.71794 1.48727 3.75292 1.7441 3.73506 1.99999Z" fill="#F37A20"/>
</svg>
