<svg width="24" height="24" viewBox="0 0 24 24" fill="none" xmlns="http://www.w3.org/2000/svg">
<path d="M18.7912 11C19.3412 11 19.7912 11.45 19.7912 12C19.7912 12.55 19.3412 13 18.7912 13H7.62124L12.4912 17.89C12.8812 18.28 12.8812 18.91 12.4912 19.3C12.3044 19.4872 12.0508 19.5925 11.7862 19.5925C11.5217 19.5925 11.2681 19.4872 11.0812 19.3L4.50124 12.7C4.11124 12.31 4.11124 11.68 4.50124 11.29L11.0912 4.69997C11.4812 4.30997 12.1112 4.30997 12.5012 4.69997C12.8912 5.08997 12.8912 5.72997 12.5012 6.11997L7.62124 11H18.7912Z" fill="#37474F"/>
</svg>
