<svg width="140" height="140" viewBox="0 0 140 140" fill="none" xmlns="http://www.w3.org/2000/svg">
<path d="M11.4642 7.4288C2.99188 11.9352 -0.223147 22.4572 4.2843 30.9305L35.2543 89.1535C39.7607 97.6258 50.2827 100.841 58.756 96.3344C67.2283 91.827 70.4434 81.305 65.937 72.8327L34.967 14.6097C30.4595 6.13638 19.9375 2.92135 11.4642 7.4288Z" fill="#EAB875"/>
<path d="M65.937 72.8316L34.967 14.6097C30.4595 6.13638 19.9375 2.92135 11.4642 7.4288C11.007 7.67233 10.568 7.93615 10.1418 8.2128C17.0718 5.40793 25.7192 9.2446 29.9821 17.2608L60.9532 75.4827C65.2171 83.4989 63.5647 92.8139 57.3664 96.9924C57.8343 96.7937 58.2989 96.5769 58.756 96.3334C67.2283 91.827 70.4434 81.305 65.937 72.8316Z" fill="#C68D4E"/>
<path d="M33.5592 52.7062C32.1707 50.0957 25.794 50.7729 19.317 54.2176C18.612 54.5925 17.938 54.9856 17.2939 55.3893L22.2436 64.6937C22.9389 64.385 23.6407 64.0453 24.3456 63.6715C30.8227 60.2257 34.9478 55.3167 33.5592 52.7062Z" fill="#FFF7AF"/>
<path d="M43.4103 71.2261C42.0217 68.6157 35.6451 69.2929 29.168 72.7386C28.4641 73.1124 27.7902 73.5055 27.145 73.9093L32.0947 83.2136C32.79 82.906 33.4918 82.5663 34.1967 82.1914C40.6738 78.7457 44.7988 73.8366 43.4103 71.2261Z" fill="#FFF7AF"/>
<path d="M9.46564 35.6975C8.76068 36.0724 8.0867 36.4644 7.44263 36.8692L12.3923 46.1736C13.0876 45.8649 13.7894 45.5252 14.4933 45.1503C20.9703 41.7057 25.0964 36.7966 23.7079 34.1861C22.3193 31.5757 15.9427 32.2518 9.46564 35.6975Z" fill="#FFF7AF"/>
<path d="M69.3174 5.25726V17.0129C69.3174 17.3611 69.5994 17.6431 69.9476 17.6431H87.2286C87.5768 17.6431 87.8588 17.3611 87.8588 17.0129V5.25726C87.8588 2.35413 85.5047 0 82.6015 0H74.5746C71.6715 0 69.3174 2.35413 69.3174 5.25726Z" fill="#ED5176"/>
<path d="M82.6016 0H77.9863C80.3597 0 82.2833 2.35413 82.2833 5.25726V17.0129C82.2833 17.3611 82.0526 17.6431 81.7685 17.6431H87.2287C87.5769 17.6431 87.8578 17.3611 87.8578 17.0129V5.25726C87.8589 2.35413 85.5048 0 82.6016 0Z" fill="#BA365F"/>
<path d="M86.3304 25.0718V17.6431H70.8459V25.0718C70.8459 26.9335 69.906 28.6724 68.3412 29.6829C65.6527 31.4185 61.6153 34.2693 60.4873 36.3885C55.4191 45.915 57.9677 79.551 57.9677 79.551H99.2076C99.2076 79.551 101.756 45.915 96.6879 36.3885C95.56 34.2693 91.5225 31.4185 88.8341 29.6829C87.2703 28.6724 86.3304 26.9335 86.3304 25.0718Z" fill="#804C68"/>
<path d="M96.688 36.3885C95.5611 34.2704 91.5226 31.4196 88.8341 29.6829C87.2704 28.6735 86.3305 26.9335 86.3305 25.0718V17.6431H81.0337V25.0718C81.0337 26.9335 81.8027 28.6724 83.0813 29.6829C85.2784 31.4185 88.5789 34.2693 89.5006 36.3885C93.6428 45.915 91.56 79.551 91.56 79.551H99.2087C99.2087 79.551 101.756 45.915 96.688 36.3885Z" fill="#60364E"/>
<path d="M109.704 48.7584H83.8855L76.1299 58.506V104.243H117.458V58.506L109.704 48.7584Z" fill="#E9E9EA"/>
<path d="M109.704 48.7584H104.555L111.12 58.506V104.243H117.459V58.506L109.704 48.7584Z" fill="#C5C4CC"/>
<path d="M86.3774 37.8284H107.211C108.588 37.8284 109.704 38.9435 109.704 40.3203V48.7584H83.8855V40.3203C83.8855 38.9435 85.0006 37.8284 86.3774 37.8284Z" fill="#C8E7F7"/>
<path d="M107.211 37.8284H102.261C103.528 37.8284 104.554 38.8548 104.554 40.1216V48.7584H109.704V40.3203C109.704 38.9445 108.588 37.8284 107.211 37.8284Z" fill="#8CBCD6"/>
<path d="M57.5414 57.2478C57.5467 57.2435 57.551 57.2403 57.5563 57.236C61.2969 54.2229 61.3129 54.209 70.1601 47.0825C70.4848 46.823 70.7871 46.5271 71.0595 46.1928C73.138 43.6454 72.7578 39.8963 70.2103 37.8177C67.6629 35.7402 63.9138 36.1205 61.8352 38.6669C61.5628 39.0012 61.3332 39.3569 61.1452 39.7264C55.9392 49.8244 55.9285 49.8436 53.7282 54.1129C53.725 54.1182 53.7218 54.1236 53.7197 54.1289C53.7186 54.13 53.7186 54.131 53.7175 54.1321C53.1824 55.1682 53.4249 56.4723 54.3648 57.2393C55.3048 58.0062 56.6303 57.9827 57.5382 57.2489C57.5393 57.2489 57.5403 57.2489 57.5414 57.2478Z" fill="#7FAB38"/>
<path d="M49.3351 57.2478C49.3297 57.2435 49.3254 57.2403 49.3201 57.236C45.5796 54.2229 45.5625 54.209 36.7153 47.0825C36.3916 46.823 36.0894 46.5271 35.8159 46.1928C33.7384 43.6454 34.1187 39.8963 36.6661 37.8177C39.2125 35.7402 42.9627 36.1205 45.0402 38.6669C45.3136 39.0012 45.5422 39.3569 45.7312 39.7264C50.9372 49.8244 50.9479 49.8436 53.1482 54.1129C53.1514 54.1182 53.1536 54.1236 53.1568 54.1289C53.1578 54.13 53.1578 54.131 53.1578 54.1321C53.694 55.1682 53.4516 56.4723 52.5116 57.2393C51.5717 58.0062 50.2451 57.9827 49.3372 57.2489C49.3361 57.2489 49.3351 57.2489 49.3351 57.2478Z" fill="#7FAB38"/>
<path d="M57.2317 55.4266C57.2339 55.417 57.236 55.4074 57.2381 55.3989C58.7655 48.1699 58.773 48.1378 62.3865 31.0416C62.521 30.4178 62.5926 29.7716 62.5926 29.1072C62.5926 24.0507 58.4942 19.9524 53.4378 19.9524C48.3813 19.9524 44.283 24.0507 44.283 29.1072C44.283 29.7716 44.3556 30.4178 44.4891 31.0416C48.1036 48.1378 48.11 48.1699 49.6385 55.3989C49.6406 55.4074 49.6417 55.417 49.6438 55.4266C49.6449 55.4277 49.6449 55.4298 49.6449 55.4309H49.646C50.0155 57.1869 51.5718 58.506 53.4378 58.506C55.3038 58.506 56.8611 57.1869 57.2307 55.4309C57.2307 55.4298 57.2317 55.4277 57.2317 55.4266Z" fill="#AED559"/>
<path d="M68.7566 70.4453C68.9862 69.3762 69.1112 68.2675 69.1112 67.1288C69.1112 58.4728 62.0937 51.4553 53.4377 51.4553C44.7817 51.4553 37.7642 58.4728 37.7642 67.1288C37.7642 68.2675 37.8891 69.3762 38.1198 70.4453C44.5659 100.609 44.5809 100.68 47.1924 112.899C47.7745 115.816 50.3487 118.015 53.4377 118.015C56.5267 118.015 59.1019 115.816 59.684 112.899C62.2945 100.68 62.3105 100.609 68.7566 70.4453Z" fill="#FFCD34"/>
<path d="M53.4378 51.4553C52.8034 51.4553 52.1807 51.498 51.5654 51.5707C57.6793 52.4967 62.4218 59.1062 62.4218 67.1288C62.4218 68.2675 62.3235 69.3762 62.1419 70.4453C57.0716 100.609 57.0598 100.68 55.0058 112.898C54.6448 115.199 53.3065 117.048 51.5665 117.73C52.1582 117.911 52.7863 118.015 53.4378 118.015C56.5268 118.015 59.1021 115.816 59.6842 112.898C62.2946 100.68 62.3107 100.609 68.7567 70.4453C68.9875 69.3762 69.1114 68.2675 69.1114 67.1288C69.1114 58.4728 62.0938 51.4553 53.4378 51.4553Z" fill="#E69012"/>
<path d="M15.9417 83.2905L17.108 93.2689L17.9807 100.721L21.8109 133.463C22.2467 137.19 25.4041 140 29.1564 140H110.862C114.614 140 117.771 137.19 118.207 133.463L124.077 83.2905H15.9417Z" fill="#AED559"/>
<path d="M123.332 89.6597L124.077 83.2905H15.9417L16.6861 89.6597H123.332Z" fill="#7FAB38"/>
<path d="M117.035 83.2905L111.165 133.463C110.729 137.19 107.572 140 103.82 140H110.862C114.614 140 117.772 137.19 118.207 133.463L124.077 83.2905H117.035Z" fill="#7FAB38"/>
<path d="M8.28101 72.4876V79.3833C8.28101 81.5409 10.0306 83.2905 12.1882 83.2905H127.83C129.987 83.2905 131.737 81.5409 131.737 79.3833V72.4876C131.737 70.3289 129.987 68.5793 127.83 68.5793H12.1882C10.0306 68.5793 8.28101 70.3289 8.28101 72.4876Z" fill="#90B6E1"/>
<path d="M127.83 68.5793H120.675C122.832 68.5793 124.582 70.3289 124.582 72.4876V79.3833C124.582 81.5409 122.832 83.2905 120.675 83.2905H127.83C129.987 83.2905 131.737 81.5409 131.737 79.3833V72.4876C131.737 70.3289 129.987 68.5793 127.83 68.5793Z" fill="#5692D8"/>
<path d="M134.682 128.253C133.146 128.47 131.559 127.772 130.71 126.359L102.672 79.6355C101.54 77.7502 102.151 75.3053 104.036 74.1742C105.922 73.0431 108.366 73.654 109.498 75.5392L137.536 122.263C138.667 124.147 138.056 126.593 136.172 127.724C135.7 128.007 135.194 128.18 134.682 128.253Z" fill="#575B7A"/>
<path d="M5.33634 128.253C6.87229 128.47 8.45951 127.772 9.30866 126.359L37.3467 79.6355C38.4778 77.7502 37.8669 75.3053 35.9827 74.1742C34.0975 73.0431 31.6526 73.654 30.5214 75.5392L2.48233 122.263C1.3512 124.148 1.96216 126.593 3.84632 127.724C4.31842 128.007 4.82471 128.18 5.33634 128.253Z" fill="#575B7A"/>
<path d="M46.0763 103.85C46.0763 105.799 44.4965 107.38 42.5461 107.38C40.5968 107.38 39.0171 105.799 39.0171 103.85V96.86C39.0171 94.9106 40.5968 93.3298 42.5461 93.3298C44.4955 93.3298 46.0763 94.9106 46.0763 96.86V103.85Z" fill="#7FAB38"/>
<path d="M59.808 126.688C59.808 128.637 58.2272 130.218 56.2779 130.218C54.3286 130.218 52.7478 128.637 52.7478 126.688V119.698C52.7478 117.749 54.3286 116.168 56.2779 116.168C58.2272 116.168 59.808 117.749 59.808 119.698V126.688Z" fill="#7FAB38"/>
<path d="M73.5387 103.85C73.5387 105.799 71.9589 107.38 70.0096 107.38C68.0603 107.38 66.4795 105.799 66.4795 103.85V96.86C66.4795 94.9106 68.0603 93.3298 70.0096 93.3298C71.9589 93.3298 73.5387 94.9106 73.5387 96.86V103.85Z" fill="#7FAB38"/>
<path d="M87.2702 126.688C87.2702 128.637 85.6894 130.218 83.7401 130.218C81.7908 130.218 80.21 128.637 80.21 126.688V119.698C80.21 117.749 81.7908 116.168 83.7401 116.168C85.6894 116.168 87.2702 117.749 87.2702 119.698V126.688Z" fill="#7FAB38"/>
<path d="M101.001 103.85C101.001 105.799 99.4211 107.38 97.4707 107.38C95.5214 107.38 93.9417 105.799 93.9417 103.85V96.86C93.9417 94.9106 95.5214 93.3298 97.4707 93.3298C99.42 93.3298 101.001 94.9106 101.001 96.86V103.85Z" fill="#7FAB38"/>
<path d="M113.948 60.5568H103.506C102.372 60.5568 101.455 59.6382 101.455 58.506C101.455 57.3727 102.372 56.4552 103.506 56.4552H113.948C115.081 56.4552 115.998 57.3727 115.998 58.506C115.998 59.6382 115.081 60.5568 113.948 60.5568Z" fill="#C5C4CC"/>
</svg>
