<svg width="24" height="24" viewBox="0 0 24 24" fill="none" xmlns="http://www.w3.org/2000/svg">
<path fill-rule="evenodd" clip-rule="evenodd" d="M1 12.5C2.73 8.11 7 5 12 5C17 5 21.27 8.11 23 12.5C21.27 16.89 17 20 12 20C7 20 2.73 16.89 1 12.5ZM12 7C15.79 7 19.17 9.13 20.82 12.5C19.17 15.87 15.79 18 12 18C8.21 18 4.83 15.87 3.18 12.5C4.83 9.13 8.21 7 12 7ZM7.5 12.5C7.5 10.02 9.52 8 12 8C14.48 8 16.5 10.02 16.5 12.5C16.5 14.98 14.48 17 12 17C9.52 17 7.5 14.98 7.5 12.5ZM14.5 12.5C14.5 11.12 13.38 10 12 10C10.62 10 9.5 11.12 9.5 12.5C9.5 13.88 10.62 15 12 15C13.38 15 14.5 13.88 14.5 12.5Z" fill="#37474F"/>
</svg>
