<svg width="86" height="15" viewBox="0 0 86 15" fill="none" xmlns="http://www.w3.org/2000/svg">
<path d="M84.5068 14.6753C84.675 14.6583 84.8402 14.6191 84.9982 14.5587C85.2287 14.4686 85.4291 14.3153 85.5764 14.1164C85.7238 13.9175 85.812 13.6811 85.831 13.4343C85.831 12.1101 85.831 10.1778 85.831 7.69585C85.831 6.45487 85.831 5.06397 85.831 3.53149C85.831 3.1567 85.831 2.76525 85.831 2.3738C85.8853 1.99396 85.8026 1.6072 85.5978 1.28274C85.4832 1.12716 85.334 1.00031 85.162 0.912154C84.9901 0.823997 84.8 0.776941 84.6067 0.774685H83.3074H71.2725L1.61103 0.516496C1.43272 0.513467 1.25633 0.553524 1.09682 0.633276C0.93732 0.713027 0.799433 0.830117 0.694875 0.974579C0.493748 1.30036 0.416854 1.68774 0.47832 2.06564C0.47832 2.89851 0.47832 3.73138 0.47832 4.56426C0.47832 6.23 0.47832 7.89574 0.47832 9.56149C0.47832 10.3944 0.47832 11.2272 0.47832 12.0601C0.443768 12.448 0.443768 12.8382 0.47832 13.2261C0.522074 13.3924 0.603399 13.5465 0.716022 13.6764C0.828645 13.8064 0.969564 13.9088 1.12796 13.9757C1.29207 14.041 1.46778 14.0722 1.64435 14.0673H5.88366L24.3818 14.1673L55.6977 14.3588L76.811 14.5254L82.5495 14.592H84.0404C84.3818 14.592 84.5484 14.592 84.5484 14.592H84.0404H82.5495H76.811H55.6977L24.3818 14.4921L5.88366 14.4171H1.64435C1.41104 14.4266 1.17835 14.3868 0.961387 14.3005C0.742082 14.2069 0.547051 14.0645 0.391164 13.8841C0.235277 13.7036 0.122651 13.49 0.0618837 13.2594C0.0136707 13.0408 -0.00315368 12.8165 0.0119134 12.5931V11.9768C0.0119134 11.1439 0.0119134 10.3111 0.0119134 9.4782C0.0119134 7.81245 0.0119134 6.14671 0.0119134 4.48096C0.0119134 3.64809 0.0119134 2.81522 0.0119134 1.98235C-0.00397113 1.76053 -0.00397113 1.53786 0.0119134 1.31605C0.0431224 1.07105 0.137876 0.838477 0.286763 0.641422C0.430441 0.44038 0.620602 0.277063 0.841036 0.165395C1.06147 0.0537277 1.30565 -0.00296911 1.55273 0.000119775L71.2141 0.383234L83.2492 0.466526H84.5484C84.7773 0.466703 85.0028 0.52205 85.2058 0.627887C85.4088 0.733725 85.5833 0.886929 85.7145 1.07452C85.9493 1.43662 86.044 1.8719 85.981 2.29884C85.981 2.69029 85.981 3.08174 85.981 3.45653C85.981 4.97236 85.981 6.36326 85.981 7.62089C85.981 10.1195 85.9227 12.0351 85.906 13.3677C85.8856 13.6239 85.7925 13.869 85.6376 14.0741C85.4827 14.2792 85.2724 14.4358 85.0315 14.5254C84.8739 14.6231 84.6922 14.675 84.5068 14.6753Z" fill="#E0E0E0"/>
</svg>
