<svg width="24" height="24" viewBox="0 0 24 24" fill="none" xmlns="http://www.w3.org/2000/svg">
<path fill-rule="evenodd" clip-rule="evenodd" d="M19 3H5C3.9 3 3 3.9 3 5V19C3 20.1 3.9 21 5 21H19C20.1 21 21 20.1 21 19V5C21 3.9 20.1 3 19 3ZM19 19H5V5H19V19ZM9.39739 13.6209L11.14 15.73L13.7385 12.3779C13.9406 12.1172 14.3354 12.1202 14.5335 12.384L17.399 16.1998C17.6465 16.5293 17.4114 17 16.9992 17H7.02186C6.60586 17 6.37179 16.5216 6.62707 16.1932L8.61715 13.6326C8.81356 13.3799 9.19352 13.3742 9.39739 13.6209Z" fill="#37474F"/>
</svg>
