<svg width="34" height="34" viewBox="0 0 34 34" fill="none" xmlns="http://www.w3.org/2000/svg">
<path fill-rule="evenodd" clip-rule="evenodd" d="M16.9858 2.83325C9.16575 2.83325 2.83325 9.17992 2.83325 16.9999C2.83325 24.8199 9.16575 31.1666 16.9858 31.1666C24.8199 31.1666 31.1666 24.8199 31.1666 16.9999C31.1666 9.17992 24.8199 2.83325 16.9858 2.83325ZM16.9999 28.3333C10.7383 28.3333 5.66659 23.2616 5.66659 16.9999C5.66659 10.7383 10.7383 5.66659 16.9999 5.66659C23.2616 5.66659 28.3333 10.7383 28.3333 16.9999C28.3333 23.2616 23.2616 28.3333 16.9999 28.3333ZM16.6033 9.91658H16.6883C17.2549 9.91658 17.7083 10.3699 17.7083 10.9366V17.3683L23.1908 20.6266C23.6866 20.9099 23.8424 21.5474 23.5449 22.0291C23.2616 22.5108 22.6383 22.6524 22.1566 22.3691L16.2774 18.8416C15.8383 18.5866 15.5833 18.1191 15.5833 17.6233V10.9366C15.5833 10.3699 16.0366 9.91658 16.6033 9.91658Z" fill="#37474F"/>
<mask id="mask0_14_2" style="mask-type:alpha" maskUnits="userSpaceOnUse" x="2" y="2" width="30" height="30">
<path fill-rule="evenodd" clip-rule="evenodd" d="M16.9858 2.83325C9.16575 2.83325 2.83325 9.17992 2.83325 16.9999C2.83325 24.8199 9.16575 31.1666 16.9858 31.1666C24.8199 31.1666 31.1666 24.8199 31.1666 16.9999C31.1666 9.17992 24.8199 2.83325 16.9858 2.83325ZM16.9999 28.3333C10.7383 28.3333 5.66659 23.2616 5.66659 16.9999C5.66659 10.7383 10.7383 5.66659 16.9999 5.66659C23.2616 5.66659 28.3333 10.7383 28.3333 16.9999C28.3333 23.2616 23.2616 28.3333 16.9999 28.3333ZM16.6033 9.91658H16.6883C17.2549 9.91658 17.7083 10.3699 17.7083 10.9366V17.3683L23.1908 20.6266C23.6866 20.9099 23.8424 21.5474 23.5449 22.0291C23.2616 22.5108 22.6383 22.6524 22.1566 22.3691L16.2774 18.8416C15.8383 18.5866 15.5833 18.1191 15.5833 17.6233V10.9366C15.5833 10.3699 16.0366 9.91658 16.6033 9.91658Z" fill="white"/>
</mask>
<g mask="url(#mask0_14_2)">
</g>
</svg>
