<svg width="56" height="56" viewBox="0 0 56 56" fill="none" xmlns="http://www.w3.org/2000/svg">
<path fill-rule="evenodd" clip-rule="evenodd" d="M27.9999 4.66663C36.7158 4.66663 43.7752 11.7261 43.7752 20.4419C43.7752 28.5041 37.7349 35.1491 29.9306 36.1004V49.4026C29.9306 50.4689 29.0662 51.3333 27.9999 51.3333C26.9336 51.3333 26.0692 50.4689 26.0692 49.4026V36.1004C18.2649 35.1491 12.2246 28.5041 12.2246 20.4419C12.2246 11.7261 19.2841 4.66663 27.9999 4.66663ZM24.1671 20.4419C24.1671 18.3243 25.8823 16.6092 27.9999 16.6092C30.1175 16.6092 31.8327 18.3243 31.8327 20.4419C31.8327 22.5595 30.1175 24.2747 27.9999 24.2747C25.8823 24.2747 24.1671 22.5595 24.1671 20.4419Z" fill="#F37A20"/>
</svg>
