<svg width="11" height="12" viewBox="0 0 11 12" fill="none" xmlns="http://www.w3.org/2000/svg">
<path d="M6.6372 6.16301C7.21413 5.90894 7.7036 5.49083 8.04472 4.9607C8.38584 4.43057 8.56354 3.81182 8.55568 3.18147C8.57718 2.7717 8.51502 2.36184 8.37302 1.97686C8.23101 1.59188 8.01213 1.23985 7.72968 0.942192C7.44723 0.644538 7.10715 0.407502 6.73014 0.24552C6.35313 0.0835373 5.94709 0 5.53675 0C5.12642 0 4.72038 0.0835373 4.34337 0.24552C3.96636 0.407502 3.62628 0.644538 3.34383 0.942192C3.06138 1.23985 2.8425 1.59188 2.70049 1.97686C2.55848 2.36184 2.49635 2.7717 2.51785 3.18147C2.5052 3.81813 2.68145 4.44427 3.02438 4.98084C3.36731 5.5174 3.86152 5.94033 4.44463 6.19624C-0.206254 6.89387 0.00139536 11.9434 0.00139536 11.9434L10.9974 11.9932C10.9974 11.9932 11.2549 6.85234 6.6372 6.16301Z" fill="#F37A20"/>
</svg>
