<svg width="62" height="62" viewBox="0 0 62 62" fill="none" xmlns="http://www.w3.org/2000/svg">
<path fill-rule="evenodd" clip-rule="evenodd" d="M14.9946 25.6649C13.8209 25.6649 12.8605 24.7045 12.8605 23.5308V19.2627H8.59243C7.4187 19.2627 6.45837 18.3024 6.45837 17.1286C6.45837 15.9549 7.4187 14.9946 8.59243 14.9946H12.8605V10.7265C12.8605 9.55273 13.8209 8.59241 14.9946 8.59241C16.1683 8.59241 17.1287 9.55273 17.1287 10.7265V14.9946H21.3968C22.5705 14.9946 23.5308 15.9549 23.5308 17.1286C23.5308 18.3024 22.5705 19.2627 21.3968 19.2627H17.1287V23.5308C17.1287 24.7045 16.1683 25.6649 14.9946 25.6649ZM34.1635 46.2462C28.2735 46.2462 23.4932 41.4659 23.4932 35.5759C23.4932 29.6859 28.2735 24.9056 34.1635 24.9056C40.0535 24.9056 44.8338 29.6859 44.8338 35.5759C44.8338 41.4659 40.0535 46.2462 34.1635 46.2462ZM34.1635 29.1737C31.8762 29.1737 29.7627 30.394 28.6191 32.3748C27.4754 34.3556 27.4754 36.7961 28.6191 38.777C29.7627 40.7578 31.8762 41.9781 34.1635 41.9781C36.4508 41.9781 38.5643 40.7578 39.7079 38.777C40.8516 36.7961 40.8516 34.3556 39.7079 32.3748C38.5643 30.394 36.4508 29.1737 34.1635 29.1737ZM38.7135 19.2627L41.3653 22.1499C42.1736 23.0299 43.3137 23.5308 44.5086 23.5308H51.2736V49.1395H17.1287V32.1858C17.1287 31.0072 16.1732 30.0518 14.9946 30.0518C13.816 30.0518 12.8605 31.0072 12.8605 32.1858V49.1395C12.8605 51.487 14.7812 53.4076 17.1287 53.4076H51.2736C53.6211 53.4076 55.5417 51.487 55.5417 49.1395V23.5308C55.5417 21.1833 53.6211 19.2627 51.2736 19.2627H44.5086L41.8624 16.3817C41.0728 15.5068 39.9204 14.9946 38.7253 14.9946H29.9516C28.7729 14.9946 27.8175 15.95 27.8175 17.1286C27.8175 18.3072 28.7729 19.2627 29.9516 19.2627H38.7135Z" fill="#37474F"/>
</svg>
