<svg width="119" height="231" viewBox="0 0 119 231" fill="none" xmlns="http://www.w3.org/2000/svg">
<path d="M40.4024 227.126V220.031L27.6817 219.94L27.5739 230.669L28.3621 230.727C31.8722 230.951 46.2192 231.283 48.5758 230.553C51.1979 229.739 40.4024 227.126 40.4024 227.126Z" fill="#F37A20"/>
<path d="M48.8746 229.889C48.8746 230.005 44.1116 230.105 38.245 230.105C32.3784 230.105 27.6154 230.005 27.6154 229.889C27.6154 229.773 32.3784 229.673 38.245 229.673C44.1116 229.673 48.8746 229.773 48.8746 229.889Z" fill="#263238"/>
<path d="M40.6264 228.578C40.5185 228.52 40.6264 228.146 40.8837 227.748C41.1409 227.35 41.4894 227.184 41.5724 227.267C41.6554 227.35 41.4811 227.665 41.2322 228.005C40.9832 228.346 40.7343 228.636 40.6264 228.578Z" fill="#263238"/>
<path d="M41.4396 229.043C41.3235 229.043 41.3815 228.578 41.6305 228.138C41.8794 227.698 42.2113 227.433 42.3026 227.499C42.3939 227.565 42.2445 227.939 42.0122 228.329C41.7798 228.719 41.5475 229.084 41.4396 229.043Z" fill="#263238"/>
<path d="M31.449 229.856C31.3992 229.856 31.2084 229.706 30.9345 229.391C30.6003 228.986 30.2279 228.613 29.8226 228.279C29.424 227.961 28.9492 227.752 28.4452 227.673C28.0552 227.624 27.8062 227.673 27.7813 227.624C27.7564 227.574 27.9971 227.4 28.4535 227.366C29.0558 227.354 29.6433 227.553 30.113 227.931C30.5531 228.289 30.9243 228.725 31.2084 229.217C31.3992 229.582 31.4988 229.823 31.449 229.856Z" fill="#263238"/>
<path d="M40.6679 227.242C40.726 227.341 40.5102 227.59 40.1451 227.723C39.78 227.856 39.4564 227.806 39.4398 227.723C39.4232 227.64 39.6805 227.466 39.9958 227.35C40.3111 227.234 40.6015 227.142 40.6679 227.242Z" fill="#263238"/>
<path d="M40.4688 226.553C40.4688 226.678 40.1369 226.777 39.7054 226.785C39.2739 226.794 38.9337 226.694 38.942 226.578C38.9503 226.462 39.2905 226.354 39.7054 226.346C40.1203 226.337 40.4522 226.437 40.4688 226.553Z" fill="#263238"/>
<path d="M71.7269 227.126V220.031L59.0062 219.94L58.8984 230.561L59.6867 230.619C63.1967 230.843 77.552 231.283 79.9003 230.553C82.5224 229.739 71.7269 227.126 71.7269 227.126Z" fill="#F37A20"/>
<path d="M80.1991 229.905C80.1991 230.022 75.4444 230.121 69.5695 230.121C63.6946 230.121 58.9482 230.022 58.9482 229.905C58.9482 229.789 63.7029 229.69 69.5695 229.69C75.4361 229.69 80.1991 229.789 80.1991 229.905Z" fill="#263238"/>
<path d="M71.9509 228.578C71.8514 228.52 71.9509 228.146 72.2082 227.748C72.4654 227.35 72.8139 227.184 72.8969 227.267C72.9799 227.35 72.8056 227.665 72.5567 228.005C72.3078 228.346 72.0588 228.636 71.9509 228.578Z" fill="#263238"/>
<path d="M72.7641 229.043C72.6562 229.043 72.706 228.578 72.9633 228.138C73.2205 227.698 73.5441 227.433 73.6354 227.499C73.7267 227.565 73.569 227.939 73.3367 228.329C73.1043 228.719 72.8803 229.084 72.7641 229.043Z" fill="#263238"/>
<path d="M62.7735 229.856C62.7237 229.856 62.5412 229.706 62.259 229.391C61.9248 228.986 61.5524 228.613 61.1471 228.279C60.7485 227.961 60.2737 227.752 59.7697 227.673C59.388 227.624 59.1307 227.673 59.1058 227.624C59.0809 227.574 59.3216 227.4 59.778 227.366C60.3803 227.354 60.9678 227.553 61.4375 227.931C61.8799 228.287 62.2515 228.723 62.5329 229.217C62.7237 229.582 62.8233 229.823 62.7735 229.856Z" fill="#263238"/>
<path d="M71.9924 227.242C72.0505 227.341 71.8347 227.59 71.4696 227.723C71.1045 227.856 70.7809 227.806 70.7643 227.723C70.7477 227.64 71.005 227.466 71.3203 227.35C71.6356 227.234 71.926 227.142 71.9924 227.242Z" fill="#263238"/>
<path d="M71.8099 226.553C71.8099 226.678 71.478 226.777 71.0465 226.785C70.615 226.794 70.2831 226.694 70.2914 226.578C70.2997 226.462 70.6316 226.354 71.0465 226.346C71.4614 226.337 71.8099 226.437 71.8099 226.553Z" fill="#263238"/>
<path d="M118.593 16.4424C118.261 16.1022 117.44 16.2682 117.44 16.2682C117.522 15.7904 117.522 15.3021 117.44 14.8243C117.291 14.3597 116.245 14.4509 116.245 14.4509C116.197 14.0596 116.197 13.6639 116.245 13.2726C116.253 13.1859 116.235 13.0987 116.192 13.023C116.149 12.9472 116.083 12.8866 116.004 12.8494C115.51 12.6477 114.978 12.5516 114.444 12.5673C113.805 12.1109 116.394 8.48475 117.357 7.32305C118.319 6.16135 118.145 5.25689 117.291 5.25689C116.701 5.25689 113.681 8.742 112.752 9.912C111.822 11.082 109.358 14.3348 109.275 11.7375C109.192 9.14029 108.146 7.18199 107.491 6.85008C106.835 6.51816 106.138 7.29815 106.495 8.02007C106.808 8.84024 107.004 9.70073 107.076 10.5758C107.166 11.2729 107.135 11.9803 106.985 12.6669C106.709 13.9444 106.335 15.1984 105.864 16.4175H105.798C105.798 16.4175 87.692 33.785 86.3809 35.0214C85.2109 36.1333 61.6781 33.702 56.9567 33.2041C55.3522 32.9694 53.7321 32.8584 52.1107 32.8722C50.0611 32.9635 49.696 33.2539 47.6547 33.2788C42.4996 33.3361 37.3565 33.7882 32.2705 34.6314C29.9675 35.0229 27.8163 36.0394 26.0516 37.57C24.2869 39.1006 22.9764 41.0865 22.2632 43.311C17.5085 58.1642 6.73787 93.3223 4.83765 113.071C3.40175 115.675 2.10545 118.354 0.954249 121.095C-0.38171 124.73 -0.0580925 124.854 0.389993 124.937C1.60148 125.161 2.97893 118.639 3.4934 120.216C4.00787 121.792 0.87957 127.991 2.14915 128.173C3.80872 128.406 5.12808 121.535 5.28574 120.987C5.4434 120.44 6.26489 120.614 6.11553 121.129C5.87489 121.859 3.54319 129.601 5.16957 129.85C6.06575 129.982 6.16532 128.348 6.16532 128.348C6.16532 128.348 7.8249 120.938 8.58 121.087C9.33511 121.236 8.53021 125.609 8.14851 127.07C7.76681 128.53 8.29787 129.269 9.07787 128.912C9.60893 128.663 10.8785 124.224 11.227 122.78C11.5755 121.336 12.4468 117.336 13.6168 119.651C14.7868 121.967 16.5626 123.311 17.2928 123.344C17.4573 123.325 17.6124 123.257 17.7381 123.149C17.8638 123.042 17.9543 122.899 17.9981 122.739C18.0418 122.579 18.0367 122.41 17.9835 122.253C17.9303 122.096 17.8313 121.959 17.6994 121.859C17.0713 121.245 16.5322 120.547 16.0979 119.784C15.7108 119.19 15.43 118.533 15.2681 117.843C14.9337 116.466 14.7391 115.059 14.6872 113.644L14.5545 112.814C16.4132 103.612 21.7653 76.6021 29.4907 59.3508L32.6605 65.8729L34.0379 70.7023L25.5907 91.5548L61.6201 91.0819L56.243 70.387L62.7735 48.8125C69.835 48.9701 87.9658 49.2357 90.9863 47.8665C94.7867 46.2069 114.444 21.3797 114.444 21.3797C115.726 20.384 116.953 19.3203 118.12 18.1933C118.12 18.1933 119.315 17.1892 118.593 16.4424Z" fill="#FFBE9D"/>
<path d="M24.0058 76.1457C25.0514 72.5776 30.4201 54.9363 30.4201 54.9363C30.4201 54.9363 33.0588 69.3165 32.3618 71.0507C31.7206 72.5354 30.9632 73.9671 30.0965 75.3325C24.0058 84.6012 24.8024 89.2397 24.8024 89.2397L61.6035 88.1195C61.6865 82.9748 58.6412 71.0093 58.0105 69.1007C57.3799 67.1922 59.4793 60.9439 59.4793 60.9439C59.4793 60.9439 63.6282 56.7203 63.4789 54.5463C63.4 52.5934 63.1586 50.6505 62.7569 48.7377L85.1612 49.5675L84.4559 34.3824L52.2767 31.1628C51.1565 34.3243 41.0248 32.7726 41.0248 32.7726C30.0882 33.1377 29.4077 35.1458 24.8605 38.6807C20.3133 42.2156 12.7871 72.5527 12.7871 72.5527L24.0058 76.1457Z" fill="#F37A20"/>
<path d="M45.7628 72.5527C45.125 72.6667 44.4755 72.7001 43.8294 72.6523C42.6262 72.6523 40.9749 72.5693 39.1577 72.3868C37.3404 72.2042 35.6975 71.947 34.5275 71.7146C33.8823 71.6316 33.2498 71.4699 32.6438 71.2334C33.2926 71.2336 33.9399 71.2947 34.5773 71.4159C35.7556 71.5653 37.3902 71.7727 39.1992 71.9553C41.0081 72.1378 42.6511 72.2623 43.8377 72.3453C44.4845 72.3535 45.1291 72.4229 45.7628 72.5527Z" fill="#263238"/>
<path d="M48.2854 69.4244C47.6474 69.737 46.9728 69.9683 46.2773 70.1131C42.9667 70.9831 39.5512 71.388 36.129 71.3164C35.4208 71.3394 34.7126 71.2725 34.0213 71.1172C34.7202 71.0289 35.4247 70.9929 36.129 71.0093C37.4317 70.9678 39.2241 70.8766 41.199 70.6442C43.1739 70.4119 44.933 70.08 46.1777 69.8144C46.869 69.6298 47.5737 69.4994 48.2854 69.4244Z" fill="#263238"/>
<path d="M60.6659 55.4674C60.6491 56.1 60.5628 56.7289 60.4086 57.3427C60.1929 58.4961 59.861 60.0727 59.4378 61.7986C59.0146 63.5246 58.608 65.1178 58.2429 66.1965C58.0961 66.814 57.8789 67.4126 57.5956 67.9806C57.6419 67.3499 57.7588 66.7264 57.9442 66.1218C58.2595 64.8274 58.6163 63.3337 59.0146 61.6991C59.4129 60.0644 59.7946 58.5708 60.1099 57.2763C60.2222 56.6533 60.4089 56.0459 60.6659 55.4674Z" fill="#263238"/>
<path d="M24.3958 74.0299C22.4761 73.7334 20.5815 73.2924 18.7283 72.7105C16.8346 72.2677 14.9764 71.6853 13.1687 70.968C15.0875 71.2692 16.9817 71.7102 18.8362 72.2873C20.7303 72.7285 22.5887 73.311 24.3958 74.0299Z" fill="#263238"/>
<path d="M63.1552 48.5552C62.8422 48.6091 62.5223 48.6091 62.2092 48.5552C61.3425 48.4663 60.4915 48.2626 59.6784 47.9495C58.321 47.4394 57.0852 46.651 56.0506 45.6349C55.016 44.6189 54.2053 43.3977 53.6707 42.0497C53.0798 40.5668 52.8275 38.9708 52.9322 37.378C52.9692 36.0642 53.3621 34.7851 54.069 33.6771C54.5662 32.9307 55.3089 32.3817 56.1684 32.1254C56.398 32.062 56.6355 32.0313 56.8737 32.0341C57.0397 32.0341 57.1227 32.0341 57.1227 32.0341C57.1227 32.0341 56.7741 32.0341 56.2182 32.2582C55.4297 32.5495 54.761 33.0955 54.318 33.8099C53.1895 35.5856 52.8741 38.8301 54.0773 41.8588C54.6373 43.2869 55.514 44.5693 56.6414 45.6095C57.5651 46.4606 58.6291 47.1456 59.7863 47.6342C60.8722 48.0633 62.002 48.3722 63.1552 48.5552Z" fill="#263238"/>
<path d="M82.4975 49.2689C82.2899 46.7243 82.2234 44.1702 82.2983 41.6183C82.2333 39.0685 82.3109 36.5171 82.5307 33.9759C82.7384 36.5177 82.8049 39.0691 82.7298 41.6183C82.7996 44.1708 82.722 46.7253 82.4975 49.2689Z" fill="#263238"/>
<path d="M52.0609 32.0923C52.1522 30.2419 52.343 28.1508 52.343 28.1508C52.343 28.1508 56.9235 27.6446 57.1973 22.9148C57.4711 18.185 57.1973 7.27331 57.1973 7.27331L48.8994 3.0248L39.6887 10.2688L41.1077 33.9178L49.5549 34.4572C50.2006 34.475 50.827 34.2361 51.2968 33.7928C51.7666 33.3495 52.0414 32.7379 52.0609 32.0923Z" fill="#FFBE9D"/>
<path d="M52.8824 19.1724C52.8824 19.1724 52.8824 19.2637 52.8077 19.3715C52.7459 19.4498 52.6661 19.5118 52.575 19.5523C52.4839 19.5928 52.3844 19.6105 52.2849 19.6039C51.7538 19.6039 51.2394 18.9898 51.0568 18.2762C50.9701 17.9303 50.9701 17.5683 51.0568 17.2224C51.0739 17.0714 51.1283 16.927 51.2152 16.8024C51.3022 16.6778 51.4189 16.5769 51.5547 16.5088C51.6663 16.4627 51.7916 16.4627 51.9032 16.5088C51.9859 16.5499 52.053 16.6169 52.0941 16.6996C52.1521 16.8407 52.0941 16.932 52.0941 16.9237C52.0941 16.9154 52.0941 16.8407 52.0111 16.7577C51.9677 16.6983 51.9039 16.6569 51.832 16.6416C51.76 16.6263 51.6849 16.6381 51.6211 16.6747C51.5193 16.7363 51.4347 16.8226 51.3752 16.9256C51.3158 17.0286 51.2833 17.1449 51.2809 17.2639C51.211 17.5725 51.211 17.8929 51.2809 18.2015C51.4468 18.8488 51.8949 19.3715 52.2932 19.4213C52.3711 19.4319 52.4504 19.4263 52.5261 19.4049C52.6017 19.3835 52.6722 19.3467 52.733 19.2969C52.8326 19.2305 52.8658 19.1641 52.8824 19.1724Z" fill="#EB996E"/>
<path d="M60.0435 4.71759C59.4045 2.54354 57.0894 1.46482 54.9818 0.86737C51.7705 -0.0453974 48.302 -0.443698 45.1654 0.709708C42.0288 1.86311 38.2615 3.8878 38.2615 7.34801C36.4111 7.19865 35.349 8.81674 34.6187 10.8248C34.1519 12.0482 33.8721 13.335 33.789 14.6419C33.5566 19.1725 32.287 25.4291 29.3496 28.7483C27.69 30.5987 25.3915 31.8766 24.4455 34.1834C23.6158 36.1832 24.0472 38.5563 23.2755 40.581C22.5868 42.3651 21.0683 43.6347 19.9564 45.1864C18.8236 46.9467 18.1569 48.9661 18.019 51.0548C17.8811 53.1435 18.2765 55.2331 19.1681 57.127C20.0661 58.9724 21.3303 60.6156 22.8839 61.9566C24.4374 63.2976 26.2477 64.3083 28.2045 64.927C32.0805 66.1062 36.2137 66.1465 40.1119 65.0432C43.0376 64.3436 45.7667 62.9904 48.0945 61.0851C50.4763 59.1401 52.1121 56.4313 52.7247 53.4179C53.3139 50.0323 52.3679 46.5887 51.6626 43.2198C49.4554 32.5736 50.086 32.0176 52.8741 22.1348C52.9405 21.9606 52.9737 21.778 53.0235 21.6038C53.0732 21.4295 53.0981 21.3465 53.1313 21.2138C53.2105 20.8231 53.2522 20.4258 53.2558 20.0272C52.8486 20.1786 52.4066 20.2107 51.9817 20.1195C51.5569 20.0284 51.167 19.8179 50.8577 19.5127C50.5477 19.1873 50.3316 18.7841 50.2322 18.3459C50.1329 17.9076 50.1541 17.4506 50.2935 17.0233C50.4892 16.5561 50.781 16.1352 51.1497 15.7878C51.5185 15.4405 51.9562 15.1744 52.4343 15.007C53.3554 14.6253 54.3428 14.4261 55.2473 14.0029C57.1641 13.0901 58.4917 11.1982 59.3962 9.21504C60.1398 7.84052 60.3693 6.24601 60.0435 4.71759Z" fill="#263238"/>
<path d="M53.2143 19.3965C53.3896 19.6555 53.5344 19.934 53.6458 20.2263C53.8947 20.749 54.2266 21.4876 54.5917 22.3422L54.6581 22.4999H54.4839L53.6541 22.5746C53.0815 22.5746 52.6002 22.6824 52.036 22.6741C51.9869 22.6631 51.9413 22.6398 51.9036 22.6064C51.8659 22.5731 51.8372 22.5307 51.8202 22.4833C51.7955 22.4078 51.7955 22.3264 51.8202 22.251C51.8395 22.1391 51.8644 22.0283 51.8949 21.919L52.0443 21.3299C52.1193 20.9369 52.2362 20.553 52.3928 20.1848C52.3774 20.5854 52.3189 20.9832 52.2185 21.3714L52.1024 21.9605C52.0609 22.1597 51.9862 22.4667 52.1024 22.4418C52.5173 22.4418 53.1064 22.3505 53.6541 22.3173L54.4839 22.2427L54.376 22.4252C54.0192 21.5954 53.7205 20.8154 53.5462 20.2761C53.3933 20.0006 53.2815 19.7043 53.2143 19.3965Z" fill="#F37A20"/>
<path d="M24.8024 89.2398L61.6035 88.1196L77.6184 150.636L74.6727 222.346H55.2142L57.5956 152.163L43.3648 108.64L45.5554 225.126L25.8894 225.416L23.8233 115.926C23.732 112.88 22.7362 106.018 23.1096 102.998L24.8024 89.2398Z" fill="#263238"/>
<path d="M48.2604 109.528C47.6581 109.566 47.0533 109.53 46.4598 109.42C45.3479 109.287 43.8294 109.055 42.1615 108.723C40.4936 108.391 39 108.01 37.9213 107.703C37.3447 107.576 36.7868 107.375 36.2617 107.105C36.2617 106.981 38.9668 107.628 42.286 108.3C45.6051 108.972 48.277 109.404 48.2604 109.528Z" fill="#455A64"/>
<path d="M74.4735 218.413C74.4735 218.529 70.0673 218.629 64.6322 218.629C59.1971 218.629 54.7826 218.529 54.7826 218.413C54.7826 218.297 59.1888 218.197 64.6322 218.197C70.0756 218.197 74.4735 218.288 74.4735 218.413Z" fill="#455A64"/>
<path d="M45.3812 222.097C45.3812 222.222 41.0995 222.313 35.822 222.313C30.5445 222.313 26.2711 222.222 26.2711 222.097C26.2711 221.973 30.5528 221.881 35.822 221.881C41.0912 221.881 45.3812 221.981 45.3812 222.097Z" fill="#455A64"/>
<path d="M42.842 221.799C42.7258 221.799 42.2113 196.349 41.6886 164.958C41.1658 133.567 40.8588 108.101 40.9667 108.101C41.0745 108.101 41.6056 133.542 42.1201 164.95C42.6345 196.357 42.9664 221.799 42.842 221.799Z" fill="#455A64"/>
<path d="M71.8596 218.413C71.8506 218.3 71.8506 218.186 71.8596 218.073V217.077C71.8596 216.181 71.926 214.895 71.9758 213.26C72.092 209.941 72.2579 205.12 72.4654 199.212C72.9135 187.329 73.5441 170.949 74.2328 152.868C74.2328 152.694 74.2328 152.528 74.2328 152.378V152.437C69.8765 135.011 65.935 119.195 63.0722 107.752L59.753 94.2186C59.3713 92.6337 59.0809 91.3974 58.8735 90.5344C58.7739 90.1278 58.7075 89.8125 58.6494 89.5718C58.6171 89.4638 58.5976 89.3524 58.5913 89.2399C58.6344 89.3445 58.6678 89.4528 58.6909 89.5635C58.7573 89.7959 58.8403 90.1112 58.9564 90.5095C59.1805 91.3393 59.5041 92.6005 59.919 94.1771C60.7488 97.3801 61.9188 101.994 63.3792 107.678C66.2669 119.112 70.2499 134.887 74.6643 152.337V152.395C74.6643 152.544 74.6643 152.719 74.6643 152.885C73.9258 170.966 73.2537 187.337 72.7641 199.22C72.5069 205.136 72.2911 209.924 72.1418 213.26C72.0588 214.92 71.9924 216.181 71.9509 217.077C71.9509 217.5 71.9011 217.832 71.8928 218.073C71.8941 218.187 71.8829 218.301 71.8596 218.413Z" fill="#455A64"/>
<path d="M65.5118 150.918C64.1142 151.377 62.6743 151.697 61.2135 151.872C59.4212 152.179 57.8944 152.395 57.2056 152.428V152.262C57.4297 152.329 57.5459 152.37 57.5459 152.403C57.5459 152.436 57.4048 152.403 57.1724 152.403H56.6746L57.1724 152.254C57.8197 152.063 59.3465 151.748 61.1388 151.424C62.5763 151.112 64.0411 150.943 65.5118 150.918Z" fill="#455A64"/>
<path d="M65.1716 153.3C63.8772 153.359 62.5802 153.3 61.2965 153.125C60.0003 153.099 58.709 152.957 57.4379 152.702C60.0312 152.49 62.6416 152.692 65.1716 153.3Z" fill="#455A64"/>
<path opacity="0.2" d="M24.6447 90.5592C25.0805 91.1188 25.6295 91.5803 26.2557 91.9134C26.882 92.2466 27.5715 92.4439 28.2791 92.4926C29.7613 92.6681 31.2605 92.6402 32.7351 92.4096C42.2362 91.3557 52.3015 90.3849 61.6034 88.1196C49.5632 88.7917 36.8426 88.5677 24.8023 89.2398L24.6779 90.2687" fill="black"/>
<g opacity="0.2">
<path opacity="0.2" d="M37.0501 107.528L43.8377 133.866L43.3647 108.64L37.0501 107.528Z" fill="black"/>
</g>
</svg>
