<svg width="24" height="24" viewBox="0 0 24 24" fill="none" xmlns="http://www.w3.org/2000/svg">
<path d="M7.52336 15.825V11.819H6.34086C5.64101 11.819 5.25488 11.4329 5.25488 10.733V10.6848C5.25488 10.009 5.64101 9.62293 6.34086 9.62293H7.52336V8.22323C7.52336 6.94419 7.16137 6.5822 6.29259 6.48567C5.66514 6.41327 5.25488 6.09955 5.25488 5.30317V5.2549C5.25488 4.43439 5.80994 4 6.77524 4C9.16439 4 10.2504 5.71342 10.2504 8.1267V9.62293H10.6365C11.3122 9.62293 11.6742 10.009 11.6742 10.6848V10.733C11.6742 11.4329 11.3122 11.819 10.6365 11.819H10.2504V15.825C10.2504 17.1041 11.1915 17.5626 12.3499 17.5626C14.7632 17.5626 16.2111 15.7285 16.2111 13.1704C16.2111 12.2534 16.0181 11.5777 15.5596 11.3363C15.5113 12.2775 15.0528 12.905 14.0151 12.905C12.905 12.905 12.2292 12.2534 12.2292 11.1192C12.2292 9.5264 13.3152 8.82655 14.8356 8.82655C17.4178 8.82655 18.7451 10.5882 18.7451 13.267C18.7451 16.8386 16.6938 20 12.3499 20C9.57464 20 7.52336 18.6244 7.52336 15.825Z" fill="#37474F"/>
</svg>
