<svg width="14" height="14" viewBox="0 0 14 14" fill="none" xmlns="http://www.w3.org/2000/svg">
<path d="M11.8389 11.6461L11.8389 11.6462C11.8541 11.7915 11.807 11.9365 11.709 12.0453L11.8389 11.6461ZM11.8389 11.6461L10.968 3.35332L10.968 3.35328M11.8389 11.6461L10.968 3.35328M10.968 3.35328C10.9404 3.09066 10.719 2.89116 10.4548 2.89116H8.99305M10.968 3.35328L8.99305 2.89116M8.99305 2.89116V2.69299C8.99305 1.43311 7.96826 0.408313 6.70838 0.408313C5.44841 0.408313 4.42361 1.4331 4.42361 2.69299V2.89116H2.96185C2.69767 2.89116 2.47628 3.09066 2.44864 3.35328L2.44864 3.35332L1.57781 11.6461L1.5778 11.6462C1.56259 11.7916 1.60982 11.9366 1.70747 12.0452L1.70762 12.0454C1.80548 12.154 1.94485 12.216 2.09102 12.216H11.3256C11.4717 12.216 11.6111 12.154 11.709 12.0454L8.99305 2.89116ZM5.45562 2.69299C5.45562 2.00247 6.01776 1.44033 6.70838 1.44033C7.3989 1.44033 7.96104 2.00247 7.96104 2.69299V2.89116H5.45562V2.69299ZM9.99014 3.92318L10.7526 11.184H2.66404L3.42653 3.92318H4.42361V4.49968C4.42361 4.78463 4.65468 5.01569 4.93962 5.01569C5.22456 5.01569 5.45562 4.78463 5.45562 4.49968V3.92318H7.96104V4.49968C7.96104 4.78463 8.1921 5.01569 8.47705 5.01569C8.76199 5.01569 8.99305 4.78463 8.99305 4.49968V3.92318H9.99014Z" fill="white" stroke="white" stroke-width="0.35" stroke-linejoin="round"/>
</svg>
