<svg width="23" height="23" viewBox="0 0 23 23" fill="none" xmlns="http://www.w3.org/2000/svg">
<path d="M7.20985 15.1656V11.3265H6.07661C5.40592 11.3265 5.03589 10.9564 5.03589 10.2857V10.2395C5.03589 9.59192 5.40592 9.22189 6.07661 9.22189H7.20985V7.88051C7.20985 6.65477 6.86294 6.30786 6.03036 6.21535C5.42905 6.14597 5.03589 5.84532 5.03589 5.08212V5.03587C5.03589 4.24954 5.56781 3.83325 6.4929 3.83325C8.7825 3.83325 9.82322 5.47528 9.82322 7.788V9.22189H10.1933C10.8408 9.22189 11.1877 9.59192 11.1877 10.2395V10.2857C11.1877 10.9564 10.8408 11.3265 10.1933 11.3265H9.82322V15.1656C9.82322 16.3913 10.7252 16.8307 11.8353 16.8307C14.148 16.8307 15.5356 15.0731 15.5356 12.6216C15.5356 11.7428 15.3506 11.0952 14.9112 10.8639C14.8649 11.7659 14.4255 12.3672 13.4311 12.3672C12.3672 12.3672 11.7196 11.7428 11.7196 10.6558C11.7196 9.12938 12.7604 8.45869 14.2174 8.45869C16.692 8.45869 17.964 10.147 17.964 12.7141C17.964 16.1369 15.9982 19.1666 11.8353 19.1666C9.17566 19.1666 7.20985 17.8483 7.20985 15.1656Z" fill="white"/>
</svg>
