<svg width="20" height="20" viewBox="0 0 20 20" fill="none" xmlns="http://www.w3.org/2000/svg">
<path fill-rule="evenodd" clip-rule="evenodd" d="M16.0031 12.7084L13.8864 12.4667C13.3781 12.4084 12.8781 12.5834 12.5197 12.9417L10.9864 14.4751C8.62806 13.2751 6.69473 11.3501 5.49473 8.98341L7.0364 7.44175C7.39473 7.08341 7.56973 6.58341 7.5114 6.07508L7.26973 3.97508C7.16973 3.13341 6.4614 2.50008 5.6114 2.50008H4.16973C3.22806 2.50008 2.44473 3.28341 2.50306 4.22508C2.94473 11.3417 8.6364 17.0251 15.7447 17.4667C16.6864 17.5251 17.4697 16.7417 17.4697 15.8001V14.3584C17.4781 13.5167 16.8447 12.8084 16.0031 12.7084ZM5.45 4.16675C5.5 4.90841 5.625 5.63341 5.825 6.32508L4.825 7.32508C4.48334 6.32508 4.26667 5.26675 4.19167 4.16675H5.45ZM15.8333 14.5584C15.1 14.5084 14.375 14.3834 13.6667 14.1834L12.6667 15.1751C13.675 15.5084 14.7333 15.7251 15.8333 15.8001V14.5584Z" fill="#F37A20"/>
</svg>
